{
.appVersion = "983";
copyright = "Copyright 2013, 2017 Peter Hull. Licensed under SIL Open Font License 1.1";
customParameters = (
{
name = note;
value = "2013-7-31: Created.";
},
{
name = openTypeNameVersion;
value = "Version 1.000";
}
);
date = "2017-08-06 04:46:22 +0000";
designer = "Peter Hull";
disablesNiceNames = 1;
familyName = EffectsEighty;
featurePrefixes = (
{
code = "@GDEF_Simple = [\\space \\less \\dollar \\four \\comma \\yen \\D \\H \\L \\P \\five \\T \\underscore \012	\\X \\bar \\d \\h \\l \\p \\t \\x \\exclamdown \\parenright \\sterling \\zero \\quotesingle \012	\\braceleft \\ampersand \\slash \\C \\G \\asterisk \\K \\O \\S \\W \\exclam \\c \\g \\k \\equal \\o \\s \012	\\plus \\w \\eight \\hyphen \\period \\one \\asciitilde \\colon \\parenleft \\question \012	\\three \\B \\F \\J \\N \\dieresis \\R \\bracketleft \\V \\asciicircum \\Z \\b \\f \\j \\n \\r \\nine \\v \\z \012	\\braceright \\seven \\semicolon \\backslash \\currency \\at \\greater \\six \\percent \012	\\bracketright \\A \\quotedbl \\E \\I \\numbersign \\M \\Q \\U \\two \\Y \\grave \\a \\e \\i \\m \\q \\u \\y ];\012\012table GDEF {\012  GlyphClassDef @GDEF_Simple, , , ;\012\012} GDEF;";
name = Prefix;
}
);
fontMaster = (
{
ascender = 800;
capHeight = 0;
customParameters = (
{
name = hheaAscender;
value = 609;
},
{
name = hheaDescender;
value = -200;
},
{
name = hheaLineGap;
value = 0;
},
{
name = underlineThickness;
value = 50;
},
{
name = underlinePosition;
value = -100;
}
);
descender = -200;
id = "50D14539-243D-4DFB-80D4-A58473C3BD4B";
weightValue = 400;
xHeight = 0;
}
);
glyphs = (
{
glyphname = A;
lastChange = "2017-08-06 04:45:23 +0000";
layers = (
{
layerId = "50D14539-243D-4DFB-80D4-A58473C3BD4B";
paths = (
{
closed = 1;
nodes = (
"285 560 CURVE SMOOTH",
"285 543 OFFCURVE",
"276 528 OFFCURVE",
"262 519 CURVE",
"266 520 OFFCURVE",
"270 520 OFFCURVE",
"274 520 CURVE SMOOTH",
"301 520 OFFCURVE",
"323 498 OFFCURVE",
"323 471 CURVE SMOOTH",
"323 454 OFFCURVE",
"314 439 OFFCURVE",
"300 430 CURVE",
"304 431 OFFCURVE",
"307 431 OFFCURVE",
"311 431 CURVE SMOOTH",
"338 431 OFFCURVE",
"360 409 OFFCURVE",
"360 382 CURVE SMOOTH",
"360 365 OFFCURVE",
"351 350 OFFCURVE",
"337 341 CURVE",
"341 342 OFFCURVE",
"345 342 OFFCURVE",
"349 342 CURVE SMOOTH",
"376 342 OFFCURVE",
"398 320 OFFCURVE",
"398 293 CURVE SMOOTH",
"398 273 OFFCURVE",
"386 257 OFFCURVE",
"369 249 CURVE",
"386 241 OFFCURVE",
"398 224 OFFCURVE",
"398 204 CURVE SMOOTH",
"398 184 OFFCURVE",
"386 168 OFFCURVE",
"369 160 CURVE",
"386 152 OFFCURVE",
"398 136 OFFCURVE",
"398 116 CURVE SMOOTH",
"398 96 OFFCURVE",
"386 79 OFFCURVE",
"369 71 CURVE",
"386 63 OFFCURVE",
"398 47 OFFCURVE",
"398 27 CURVE SMOOTH",
"398 0 OFFCURVE",
"376 -22 OFFCURVE",
"349 -22 CURVE SMOOTH",
"322 -22 OFFCURVE",
"300 0 OFFCURVE",
"300 27 CURVE SMOOTH",
"300 47 OFFCURVE",
"312 63 OFFCURVE",
"329 71 CURVE",
"312 79 OFFCURVE",
"300 96 OFFCURVE",
"300 116 CURVE SMOOTH",
"300 136 OFFCURVE",
"312 152 OFFCURVE",
"329 160 CURVE",
"322 163 OFFCURVE",
"316 167 OFFCURVE",
"311 173 CURVE",
"302 162 OFFCURVE",
"289 156 OFFCURVE",
"274 156 CURVE SMOOTH",
"259 156 OFFCURVE",
"245 162 OFFCURVE",
"236 173 CURVE",
"227 162 OFFCURVE",
"214 156 OFFCURVE",
"199 156 CURVE SMOOTH",
"184 156 OFFCURVE",
"170 162 OFFCURVE",
"161 173 CURVE",
"152 162 OFFCURVE",
"139 156 OFFCURVE",
"124 156 CURVE SMOOTH",
"109 156 OFFCURVE",
"95 162 OFFCURVE",
"86 173 CURVE",
"81 167 OFFCURVE",
"76 163 OFFCURVE",
"69 160 CURVE",
"86 152 OFFCURVE",
"98 136 OFFCURVE",
"98 116 CURVE SMOOTH",
"98 96 OFFCURVE",
"86 79 OFFCURVE",
"69 71 CURVE",
"86 63 OFFCURVE",
"98 47 OFFCURVE",
"98 27 CURVE SMOOTH",
"98 0 OFFCURVE",
"76 -22 OFFCURVE",
"49 -22 CURVE SMOOTH",
"22 -22 OFFCURVE",
"0 0 OFFCURVE",
"0 27 CURVE SMOOTH",
"0 47 OFFCURVE",
"12 63 OFFCURVE",
"29 71 CURVE",
"12 79 OFFCURVE",
"0 96 OFFCURVE",
"0 116 CURVE SMOOTH",
"0 136 OFFCURVE",
"12 152 OFFCURVE",
"29 160 CURVE",
"12 168 OFFCURVE",
"0 184 OFFCURVE",
"0 204 CURVE SMOOTH",
"0 224 OFFCURVE",
"12 241 OFFCURVE",
"29 249 CURVE",
"12 257 OFFCURVE",
"0 273 OFFCURVE",
"0 293 CURVE SMOOTH",
"0 320 OFFCURVE",
"22 342 OFFCURVE",
"49 342 CURVE SMOOTH",
"53 342 OFFCURVE",
"56 342 OFFCURVE",
"60 341 CURVE",
"46 350 OFFCURVE",
"37 365 OFFCURVE",
"37 382 CURVE SMOOTH",
"37 409 OFFCURVE",
"59 431 OFFCURVE",
"86 431 CURVE SMOOTH",
"90 431 OFFCURVE",
"94 431 OFFCURVE",
"98 430 CURVE",
"84 439 OFFCURVE",
"75 454 OFFCURVE",
"75 471 CURVE SMOOTH",
"75 498 OFFCURVE",
"97 520 OFFCURVE",
"124 520 CURVE SMOOTH",
"128 520 OFFCURVE",
"131 520 OFFCURVE",
"135 519 CURVE",
"121 528 OFFCURVE",
"112 543 OFFCURVE",
"112 560 CURVE SMOOTH",
"112 587 OFFCURVE",
"134 609 OFFCURVE",
"161 609 CURVE SMOOTH",
"176 609 OFFCURVE",
"190 602 OFFCURVE",
"199 591 CURVE",
"208 602 OFFCURVE",
"221 609 OFFCURVE",
"236 609 CURVE SMOOTH",
"263 609 OFFCURVE",
"285 587 OFFCURVE"
);
},
{
closed = 1;
nodes = (
"199 529 CURVE",
"190 518 OFFCURVE",
"176 511 OFFCURVE",
"161 511 CURVE SMOOTH",
"157 511 OFFCURVE",
"154 511 OFFCURVE",
"150 512 CURVE",
"164 503 OFFCURVE",
"173 488 OFFCURVE",
"173 471 CURVE SMOOTH",
"173 444 OFFCURVE",
"151 422 OFFCURVE",
"124 422 CURVE SMOOTH",
"120 422 OFFCURVE",
"116 423 OFFCURVE",
"112 424 CURVE",
"126 415 OFFCURVE",
"135 399 OFFCURVE",
"135 382 CURVE SMOOTH",
"135 355 OFFCURVE",
"113 333 OFFCURVE",
"86 333 CURVE SMOOTH",
"82 333 OFFCURVE",
"79 334 OFFCURVE",
"75 335 CURVE",
"89 326 OFFCURVE",
"98 310 OFFCURVE",
"98 293 CURVE SMOOTH",
"98 273 OFFCURVE",
"86 257 OFFCURVE",
"69 249 CURVE",
"76 246 OFFCURVE",
"81 242 OFFCURVE",
"86 236 CURVE",
"95 247 OFFCURVE",
"109 253 OFFCURVE",
"124 253 CURVE SMOOTH",
"139 253 OFFCURVE",
"152 247 OFFCURVE",
"161 236 CURVE",
"170 247 OFFCURVE",
"184 253 OFFCURVE",
"199 253 CURVE SMOOTH",
"214 253 OFFCURVE",
"227 247 OFFCURVE",
"236 236 CURVE",
"245 247 OFFCURVE",
"259 253 OFFCURVE",
"274 253 CURVE SMOOTH",
"289 253 OFFCURVE",
"302 247 OFFCURVE",
"311 236 CURVE",
"316 242 OFFCURVE",
"322 246 OFFCURVE",
"329 249 CURVE",
"312 257 OFFCURVE",
"300 273 OFFCURVE",
"300 293 CURVE SMOOTH",
"300 310 OFFCURVE",
"309 326 OFFCURVE",
"323 335 CURVE",
"319 334 OFFCURVE",
"315 333 OFFCURVE",
"311 333 CURVE SMOOTH",
"284 333 OFFCURVE",
"262 355 OFFCURVE",
"262 382 CURVE SMOOTH",
"262 399 OFFCURVE",
"271 415 OFFCURVE",
"285 424 CURVE",
"281 423 OFFCURVE",
"278 422 OFFCURVE",
"274 422 CURVE SMOOTH",
"247 422 OFFCURVE",
"225 444 OFFCURVE",
"225 471 CURVE SMOOTH",
"225 488 OFFCURVE",
"234 503 OFFCURVE",
"248 512 CURVE",
"244 511 OFFCURVE",
"240 511 OFFCURVE",
"236 511 CURVE SMOOTH",
"221 511 OFFCURVE",
"208 518 OFFCURVE"
);
}
);
width = 450;
}
);
unicode = 0041;
userData = {
com.fontlab.hintData = {
hhints = (
{
position = -22;
width = 21;
},
{
position = -22;
width = 21;
},
{
position = 156;
width = 97;
},
{
position = 333;
width = 98;
},
{
position = 422;
width = 98;
},
{
position = 511;
width = 98;
}
);
vhints = (
{
position = 0;
width = 98;
},
{
position = 37;
width = 98;
},
{
position = 75;
width = 98;
},
{
position = 112;
width = 173;
},
{
position = 225;
width = 98;
},
{
position = 262;
width = 98;
},
{
position = 300;
width = 98;
}
);
};
};
},
{
glyphname = B;
lastChange = "2017-08-06 04:45:23 +0000";
layers = (
{
layerId = "50D14539-243D-4DFB-80D4-A58473C3BD4B";
paths = (
{
closed = 1;
nodes = (
"323 560 CURVE SMOOTH",
"323 533 OFFCURVE",
"301 511 OFFCURVE",
"274 511 CURVE SMOOTH",
"259 511 OFFCURVE",
"245 518 OFFCURVE",
"236 529 CURVE",
"227 518 OFFCURVE",
"214 511 OFFCURVE",
"199 511 CURVE SMOOTH",
"184 511 OFFCURVE",
"170 518 OFFCURVE",
"161 529 CURVE",
"152 518 OFFCURVE",
"139 511 OFFCURVE",
"124 511 CURVE SMOOTH",
"120 511 OFFCURVE",
"116 511 OFFCURVE",
"112 512 CURVE",
"126 503 OFFCURVE",
"135 488 OFFCURVE",
"135 471 CURVE SMOOTH",
"135 451 OFFCURVE",
"124 435 OFFCURVE",
"107 427 CURVE",
"124 419 OFFCURVE",
"135 402 OFFCURVE",
"135 382 CURVE SMOOTH",
"135 362 OFFCURVE",
"124 346 OFFCURVE",
"107 338 CURVE",
"114 335 OFFCURVE",
"119 331 OFFCURVE",
"124 325 CURVE",
"133 336 OFFCURVE",
"146 342 OFFCURVE",
"161 342 CURVE SMOOTH",
"176 342 OFFCURVE",
"190 336 OFFCURVE",
"199 325 CURVE",
"208 336 OFFCURVE",
"221 342 OFFCURVE",
"236 342 CURVE SMOOTH",
"251 342 OFFCURVE",
"265 336 OFFCURVE",
"274 325 CURVE",
"283 336 OFFCURVE",
"296 342 OFFCURVE",
"311 342 CURVE SMOOTH",
"315 342 OFFCURVE",
"319 342 OFFCURVE",
"323 341 CURVE",
"309 350 OFFCURVE",
"300 365 OFFCURVE",
"300 382 CURVE SMOOTH",
"300 402 OFFCURVE",
"312 419 OFFCURVE",
"329 427 CURVE",
"312 435 OFFCURVE",
"300 451 OFFCURVE",
"300 471 CURVE SMOOTH",
"300 498 OFFCURVE",
"322 520 OFFCURVE",
"349 520 CURVE SMOOTH",
"376 520 OFFCURVE",
"398 498 OFFCURVE",
"398 471 CURVE SMOOTH",
"398 451 OFFCURVE",
"386 435 OFFCURVE",
"369 427 CURVE",
"386 419 OFFCURVE",
"398 402 OFFCURVE",
"398 382 CURVE SMOOTH",
"398 355 OFFCURVE",
"376 333 OFFCURVE",
"349 333 CURVE SMOOTH",
"345 333 OFFCURVE",
"341 334 OFFCURVE",
"337 335 CURVE",
"351 326 OFFCURVE",
"360 310 OFFCURVE",
"360 293 CURVE SMOOTH",
"360 276 OFFCURVE",
"351 261 OFFCURVE",
"337 252 CURVE",
"341 253 OFFCURVE",
"345 253 OFFCURVE",
"349 253 CURVE SMOOTH",
"376 253 OFFCURVE",
"398 231 OFFCURVE",
"398 204 CURVE SMOOTH",
"398 184 OFFCURVE",
"386 168 OFFCURVE",
"369 160 CURVE",
"386 152 OFFCURVE",
"398 136 OFFCURVE",
"398 116 CURVE SMOOTH",
"398 89 OFFCURVE",
"376 67 OFFCURVE",
"349 67 CURVE SMOOTH",
"322 67 OFFCURVE",
"300 89 OFFCURVE",
"300 116 CURVE SMOOTH",
"300 136 OFFCURVE",
"312 152 OFFCURVE",
"329 160 CURVE",
"312 168 OFFCURVE",
"300 184 OFFCURVE",
"300 204 CURVE SMOOTH",
"300 221 OFFCURVE",
"309 237 OFFCURVE",
"323 246 CURVE",
"319 245 OFFCURVE",
"315 244 OFFCURVE",
"311 244 CURVE SMOOTH",
"296 244 OFFCURVE",
"283 251 OFFCURVE",
"274 262 CURVE",
"265 251 OFFCURVE",
"251 244 OFFCURVE",
"236 244 CURVE SMOOTH",
"221 244 OFFCURVE",
"208 251 OFFCURVE",
"199 262 CURVE",
"190 251 OFFCURVE",
"176 244 OFFCURVE",
"161 244 CURVE SMOOTH",
"146 244 OFFCURVE",
"133 251 OFFCURVE",
"124 262 CURVE",
"119 256 OFFCURVE",
"114 252 OFFCURVE",
"107 249 CURVE",
"124 241 OFFCURVE",
"135 224 OFFCURVE",
"135 204 CURVE SMOOTH",
"135 184 OFFCURVE",
"124 168 OFFCURVE",
"107 160 CURVE",
"124 152 OFFCURVE",
"135 136 OFFCURVE",
"135 116 CURVE SMOOTH",
"135 99 OFFCURVE",
"126 83 OFFCURVE",
"112 74 CURVE",
"116 75 OFFCURVE",
"120 76 OFFCURVE",
"124 76 CURVE SMOOTH",
"139 76 OFFCURVE",
"152 69 OFFCURVE",
"161 58 CURVE",
"170 69 OFFCURVE",
"184 76 OFFCURVE",
"199 76 CURVE SMOOTH",
"214 76 OFFCURVE",
"227 69 OFFCURVE",
"236 58 CURVE",
"245 69 OFFCURVE",
"259 76 OFFCURVE",
"274 76 CURVE SMOOTH",
"301 76 OFFCURVE",
"323 54 OFFCURVE",
"323 27 CURVE SMOOTH",
"323 0 OFFCURVE",
"301 -22 OFFCURVE",
"274 -22 CURVE SMOOTH",
"259 -22 OFFCURVE",
"245 -16 OFFCURVE",
"236 -5 CURVE",
"227 -16 OFFCURVE",
"214 -22 OFFCURVE",
"199 -22 CURVE SMOOTH",
"184 -22 OFFCURVE",
"170 -16 OFFCURVE",
"161 -5 CURVE",
"152 -16 OFFCURVE",
"139 -22 OFFCURVE",
"124 -22 CURVE SMOOTH",
"109 -22 OFFCURVE",
"95 -16 OFFCURVE",
"86 -5 CURVE",
"77 -16 OFFCURVE",
"64 -22 OFFCURVE",
"49 -22 CURVE SMOOTH",
"22 -22 OFFCURVE",
"0 0 OFFCURVE",
"0 27 CURVE SMOOTH",
"0 54 OFFCURVE",
"22 76 OFFCURVE",
"49 76 CURVE SMOOTH",
"53 76 OFFCURVE",
"56 75 OFFCURVE",
"60 74 CURVE",
"46 83 OFFCURVE",
"37 99 OFFCURVE",
"37 116 CURVE SMOOTH",
"37 136 OFFCURVE",
"49 152 OFFCURVE",
"66 160 CURVE",
"49 168 OFFCURVE",
"37 184 OFFCURVE",
"37 204 CURVE SMOOTH",
"37 224 OFFCURVE",
"49 241 OFFCURVE",
"66 249 CURVE",
"49 257 OFFCURVE",
"37 273 OFFCURVE",
"37 293 CURVE SMOOTH",
"37 313 OFFCURVE",
"49 330 OFFCURVE",
"66 338 CURVE",
"49 346 OFFCURVE",
"37 362 OFFCURVE",
"37 382 CURVE SMOOTH",
"37 402 OFFCURVE",
"49 419 OFFCURVE",
"66 427 CURVE",
"49 435 OFFCURVE",
"37 451 OFFCURVE",
"37 471 CURVE SMOOTH",
"37 488 OFFCURVE",
"46 503 OFFCURVE",
"60 512 CURVE",
"56 511 OFFCURVE",
"53 511 OFFCURVE",
"49 511 CURVE SMOOTH",
"22 511 OFFCURVE",
"0 533 OFFCURVE",
"0 560 CURVE SMOOTH",
"0 587 OFFCURVE",
"22 609 OFFCURVE",
"49 609 CURVE SMOOTH",
"64 609 OFFCURVE",
"77 602 OFFCURVE",
"86 591 CURVE",
"95 602 OFFCURVE",
"109 609 OFFCURVE",
"124 609 CURVE SMOOTH",
"139 609 OFFCURVE",
"152 602 OFFCURVE",
"161 591 CURVE",
"170 602 OFFCURVE",
"184 609 OFFCURVE",
"199 609 CURVE SMOOTH",
"214 609 OFFCURVE",
"227 602 OFFCURVE",
"236 591 CURVE",
"245 602 OFFCURVE",
"259 609 OFFCURVE",
"274 609 CURVE SMOOTH",
"301 609 OFFCURVE",
"323 587 OFFCURVE"
);
},
{
closed = 1;
nodes = (
"86 529 CURVE",
"83 525 OFFCURVE",
"79 522 OFFCURVE",
"75 519 CURVE",
"79 520 OFFCURVE",
"82 520 OFFCURVE",
"86 520 CURVE SMOOTH",
"90 520 OFFCURVE",
"94 520 OFFCURVE",
"98 519 CURVE",
"94 522 OFFCURVE",
"89 525 OFFCURVE"
);
},
{
closed = 1;
nodes = (
"75 68 CURVE",
"79 65 OFFCURVE",
"83 62 OFFCURVE",
"86 58 CURVE",
"89 62 OFFCURVE",
"94 65 OFFCURVE",
"98 68 CURVE",
"94 67 OFFCURVE",
"90 67 OFFCURVE",
"86 67 CURVE SMOOTH",
"82 67 OFFCURVE",
"79 67 OFFCURVE"
);
}
);
width = 450;
}
);
unicode = 0042;
userData = {
com.fontlab.hintData = {
hhints = (
{
position = -22;
width = 98;
},
{
position = 244;
width = 98;
},
{
position = 511;
width = 98;
}
);
vhints = (
{
position = 37;
width = 98;
},
{
position = 300;
width = 98;
}
);
};
};
},
{
glyphname = C;
lastChange = "2017-08-06 04:45:23 +0000";
layers = (
{
layerId = "50D14539-243D-4DFB-80D4-A58473C3BD4B";
paths = (
{
closed = 1;
nodes = (
"360 560 CURVE SMOOTH",
"360 543 OFFCURVE",
"351 528 OFFCURVE",
"337 519 CURVE",
"341 520 OFFCURVE",
"345 520 OFFCURVE",
"349 520 CURVE SMOOTH",
"376 520 OFFCURVE",
"398 498 OFFCURVE",
"398 471 CURVE SMOOTH",
"398 444 OFFCURVE",
"376 422 OFFCURVE",
"349 422 CURVE SMOOTH",
"322 422 OFFCURVE",
"300 444 OFFCURVE",
"300 471 CURVE SMOOTH",
"300 488 OFFCURVE",
"309 503 OFFCURVE",
"323 512 CURVE",
"319 511 OFFCURVE",
"315 511 OFFCURVE",
"311 511 CURVE SMOOTH",
"296 511 OFFCURVE",
"283 518 OFFCURVE",
"274 529 CURVE",
"265 518 OFFCURVE",
"251 511 OFFCURVE",
"236 511 CURVE SMOOTH",
"221 511 OFFCURVE",
"208 518 OFFCURVE",
"199 529 CURVE",
"190 518 OFFCURVE",
"176 511 OFFCURVE",
"161 511 CURVE SMOOTH",
"146 511 OFFCURVE",
"133 518 OFFCURVE",
"124 529 CURVE",
"115 518 OFFCURVE",
"101 511 OFFCURVE",
"86 511 CURVE SMOOTH",
"82 511 OFFCURVE",
"79 511 OFFCURVE",
"75 512 CURVE",
"89 503 OFFCURVE",
"98 488 OFFCURVE",
"98 471 CURVE SMOOTH",
"98 451 OFFCURVE",
"86 435 OFFCURVE",
"69 427 CURVE",
"86 419 OFFCURVE",
"98 402 OFFCURVE",
"98 382 CURVE SMOOTH",
"98 362 OFFCURVE",
"86 346 OFFCURVE",
"69 338 CURVE",
"86 330 OFFCURVE",
"98 313 OFFCURVE",
"98 293 CURVE SMOOTH",
"98 273 OFFCURVE",
"86 257 OFFCURVE",
"69 249 CURVE",
"86 241 OFFCURVE",
"98 224 OFFCURVE",
"98 204 CURVE SMOOTH",
"98 184 OFFCURVE",
"86 168 OFFCURVE",
"69 160 CURVE",
"86 152 OFFCURVE",
"98 136 OFFCURVE",
"98 116 CURVE SMOOTH",
"98 99 OFFCURVE",
"89 83 OFFCURVE",
"75 74 CURVE",
"79 75 OFFCURVE",
"82 76 OFFCURVE",
"86 76 CURVE SMOOTH",
"101 76 OFFCURVE",
"115 69 OFFCURVE",
"124 58 CURVE",
"133 69 OFFCURVE",
"146 76 OFFCURVE",
"161 76 CURVE SMOOTH",
"176 76 OFFCURVE",
"190 69 OFFCURVE",
"199 58 CURVE",
"208 69 OFFCURVE",
"221 76 OFFCURVE",
"236 76 CURVE SMOOTH",
"251 76 OFFCURVE",
"265 69 OFFCURVE",
"274 58 CURVE",
"283 69 OFFCURVE",
"296 76 OFFCURVE",
"311 76 CURVE SMOOTH",
"315 76 OFFCURVE",
"319 75 OFFCURVE",
"323 74 CURVE",
"309 83 OFFCURVE",
"300 99 OFFCURVE",
"300 116 CURVE SMOOTH",
"300 143 OFFCURVE",
"322 164 OFFCURVE",
"349 164 CURVE SMOOTH",
"376 164 OFFCURVE",
"398 143 OFFCURVE",
"398 116 CURVE SMOOTH",
"398 89 OFFCURVE",
"376 67 OFFCURVE",
"349 67 CURVE SMOOTH",
"345 67 OFFCURVE",
"341 67 OFFCURVE",
"337 68 CURVE",
"351 59 OFFCURVE",
"360 44 OFFCURVE",
"360 27 CURVE SMOOTH",
"360 0 OFFCURVE",
"338 -22 OFFCURVE",
"311 -22 CURVE SMOOTH",
"296 -22 OFFCURVE",
"283 -16 OFFCURVE",
"274 -5 CURVE",
"265 -16 OFFCURVE",
"251 -22 OFFCURVE",
"236 -22 CURVE SMOOTH",
"221 -22 OFFCURVE",
"208 -16 OFFCURVE",
"199 -5 CURVE",
"190 -16 OFFCURVE",
"176 -22 OFFCURVE",
"161 -22 CURVE SMOOTH",
"146 -22 OFFCURVE",
"133 -16 OFFCURVE",
"124 -5 CURVE",
"115 -16 OFFCURVE",
"101 -22 OFFCURVE",
"86 -22 CURVE SMOOTH",
"59 -22 OFFCURVE",
"37 0 OFFCURVE",
"37 27 CURVE SMOOTH",
"37 44 OFFCURVE",
"46 59 OFFCURVE",
"60 68 CURVE",
"56 67 OFFCURVE",
"53 67 OFFCURVE",
"49 67 CURVE SMOOTH",
"22 67 OFFCURVE",
"0 89 OFFCURVE",
"0 116 CURVE SMOOTH",
"0 136 OFFCURVE",
"12 152 OFFCURVE",
"29 160 CURVE",
"12 168 OFFCURVE",
"0 184 OFFCURVE",
"0 204 CURVE SMOOTH",
"0 224 OFFCURVE",
"12 241 OFFCURVE",
"29 249 CURVE",
"12 257 OFFCURVE",
"0 273 OFFCURVE",
"0 293 CURVE SMOOTH",
"0 313 OFFCURVE",
"12 330 OFFCURVE",
"29 338 CURVE",
"12 346 OFFCURVE",
"0 362 OFFCURVE",
"0 382 CURVE SMOOTH",
"0 402 OFFCURVE",
"12 419 OFFCURVE",
"29 427 CURVE",
"12 435 OFFCURVE",
"0 451 OFFCURVE",
"0 471 CURVE SMOOTH",
"0 498 OFFCURVE",
"22 520 OFFCURVE",
"49 520 CURVE SMOOTH",
"53 520 OFFCURVE",
"56 520 OFFCURVE",
"60 519 CURVE",
"46 528 OFFCURVE",
"37 543 OFFCURVE",
"37 560 CURVE SMOOTH",
"37 587 OFFCURVE",
"59 609 OFFCURVE",
"86 609 CURVE SMOOTH",
"101 609 OFFCURVE",
"115 602 OFFCURVE",
"124 591 CURVE",
"133 602 OFFCURVE",
"146 609 OFFCURVE",
"161 609 CURVE SMOOTH",
"176 609 OFFCURVE",
"190 602 OFFCURVE",
"199 591 CURVE",
"208 602 OFFCURVE",
"221 609 OFFCURVE",
"236 609 CURVE SMOOTH",
"251 609 OFFCURVE",
"265 602 OFFCURVE",
"274 591 CURVE",
"283 602 OFFCURVE",
"296 609 OFFCURVE",
"311 609 CURVE SMOOTH",
"338 609 OFFCURVE",
"360 587 OFFCURVE"
);
}
);
width = 450;
}
);
unicode = 0043;
userData = {
com.fontlab.hintData = {
hhints = (
{
position = -22;
width = 98;
},
{
position = 67;
width = 97;
},
{
position = 422;
width = 98;
},
{
position = 511;
width = 98;
}
);
vhints = (
{
position = 0;
width = 98;
},
{
position = 300;
width = 98;
}
);
};
};
},
{
glyphname = D;
lastChange = "2017-08-06 04:45:23 +0000";
layers = (
{
layerId = "50D14539-243D-4DFB-80D4-A58473C3BD4B";
paths = (
{
closed = 1;
nodes = (
"323 560 CURVE SMOOTH",
"323 543 OFFCURVE",
"314 528 OFFCURVE",
"300 519 CURVE",
"304 520 OFFCURVE",
"307 520 OFFCURVE",
"311 520 CURVE SMOOTH",
"338 520 OFFCURVE",
"360 498 OFFCURVE",
"360 471 CURVE SMOOTH",
"360 454 OFFCURVE",
"351 439 OFFCURVE",
"337 430 CURVE",
"341 431 OFFCURVE",
"345 431 OFFCURVE",
"349 431 CURVE SMOOTH",
"376 431 OFFCURVE",
"398 409 OFFCURVE",
"398 382 CURVE SMOOTH",
"398 362 OFFCURVE",
"386 346 OFFCURVE",
"369 338 CURVE",
"386 330 OFFCURVE",
"398 313 OFFCURVE",
"398 293 CURVE SMOOTH",
"398 273 OFFCURVE",
"386 257 OFFCURVE",
"369 249 CURVE",
"386 241 OFFCURVE",
"398 224 OFFCURVE",
"398 204 CURVE SMOOTH",
"398 177 OFFCURVE",
"376 156 OFFCURVE",
"349 156 CURVE SMOOTH",
"345 156 OFFCURVE",
"341 156 OFFCURVE",
"337 157 CURVE",
"351 148 OFFCURVE",
"360 133 OFFCURVE",
"360 116 CURVE SMOOTH",
"360 89 OFFCURVE",
"338 67 OFFCURVE",
"311 67 CURVE SMOOTH",
"307 67 OFFCURVE",
"304 67 OFFCURVE",
"300 68 CURVE",
"314 59 OFFCURVE",
"323 44 OFFCURVE",
"323 27 CURVE SMOOTH",
"323 0 OFFCURVE",
"301 -22 OFFCURVE",
"274 -22 CURVE SMOOTH",
"259 -22 OFFCURVE",
"245 -16 OFFCURVE",
"236 -5 CURVE",
"227 -16 OFFCURVE",
"214 -22 OFFCURVE",
"199 -22 CURVE SMOOTH",
"184 -22 OFFCURVE",
"170 -16 OFFCURVE",
"161 -5 CURVE",
"152 -16 OFFCURVE",
"139 -22 OFFCURVE",
"124 -22 CURVE SMOOTH",
"109 -22 OFFCURVE",
"95 -16 OFFCURVE",
"86 -5 CURVE",
"77 -16 OFFCURVE",
"64 -22 OFFCURVE",
"49 -22 CURVE SMOOTH",
"22 -22 OFFCURVE",
"0 0 OFFCURVE",
"0 27 CURVE SMOOTH",
"0 54 OFFCURVE",
"22 76 OFFCURVE",
"49 76 CURVE SMOOTH",
"53 76 OFFCURVE",
"56 75 OFFCURVE",
"60 74 CURVE",
"46 83 OFFCURVE",
"37 99 OFFCURVE",
"37 116 CURVE SMOOTH",
"37 136 OFFCURVE",
"49 152 OFFCURVE",
"66 160 CURVE",
"49 168 OFFCURVE",
"37 184 OFFCURVE",
"37 204 CURVE SMOOTH",
"37 224 OFFCURVE",
"49 241 OFFCURVE",
"66 249 CURVE",
"49 257 OFFCURVE",
"37 273 OFFCURVE",
"37 293 CURVE SMOOTH",
"37 313 OFFCURVE",
"49 330 OFFCURVE",
"66 338 CURVE",
"49 346 OFFCURVE",
"37 362 OFFCURVE",
"37 382 CURVE SMOOTH",
"37 402 OFFCURVE",
"49 419 OFFCURVE",
"66 427 CURVE",
"49 435 OFFCURVE",
"37 451 OFFCURVE",
"37 471 CURVE SMOOTH",
"37 488 OFFCURVE",
"46 503 OFFCURVE",
"60 512 CURVE",
"56 511 OFFCURVE",
"53 511 OFFCURVE",
"49 511 CURVE SMOOTH",
"22 511 OFFCURVE",
"0 533 OFFCURVE",
"0 560 CURVE SMOOTH",
"0 587 OFFCURVE",
"22 609 OFFCURVE",
"49 609 CURVE SMOOTH",
"64 609 OFFCURVE",
"77 602 OFFCURVE",
"86 591 CURVE",
"95 602 OFFCURVE",
"109 609 OFFCURVE",
"124 609 CURVE SMOOTH",
"139 609 OFFCURVE",
"152 602 OFFCURVE",
"161 591 CURVE",
"170 602 OFFCURVE",
"184 609 OFFCURVE",
"199 609 CURVE SMOOTH",
"214 609 OFFCURVE",
"227 602 OFFCURVE",
"236 591 CURVE",
"245 602 OFFCURVE",
"259 609 OFFCURVE",
"274 609 CURVE SMOOTH",
"301 609 OFFCURVE",
"323 587 OFFCURVE"
);
},
{
closed = 1;
nodes = (
"86 529 CURVE",
"83 525 OFFCURVE",
"79 522 OFFCURVE",
"75 519 CURVE",
"79 520 OFFCURVE",
"82 520 OFFCURVE",
"86 520 CURVE SMOOTH",
"90 520 OFFCURVE",
"94 520 OFFCURVE",
"98 519 CURVE",
"94 522 OFFCURVE",
"89 525 OFFCURVE"
);
},
{
closed = 1;
nodes = (
"161 529 CURVE",
"152 518 OFFCURVE",
"139 511 OFFCURVE",
"124 511 CURVE SMOOTH",
"120 511 OFFCURVE",
"116 511 OFFCURVE",
"112 512 CURVE",
"126 503 OFFCURVE",
"135 488 OFFCURVE",
"135 471 CURVE SMOOTH",
"135 451 OFFCURVE",
"124 435 OFFCURVE",
"107 427 CURVE",
"124 419 OFFCURVE",
"135 402 OFFCURVE",
"135 382 CURVE SMOOTH",
"135 362 OFFCURVE",
"124 346 OFFCURVE",
"107 338 CURVE",
"124 330 OFFCURVE",
"135 313 OFFCURVE",
"135 293 CURVE SMOOTH",
"135 273 OFFCURVE",
"124 257 OFFCURVE",
"107 249 CURVE",
"124 241 OFFCURVE",
"135 224 OFFCURVE",
"135 204 CURVE SMOOTH",
"135 184 OFFCURVE",
"124 168 OFFCURVE",
"107 160 CURVE",
"124 152 OFFCURVE",
"135 136 OFFCURVE",
"135 116 CURVE SMOOTH",
"135 99 OFFCURVE",
"126 83 OFFCURVE",
"112 74 CURVE",
"116 75 OFFCURVE",
"120 76 OFFCURVE",
"124 76 CURVE SMOOTH",
"139 76 OFFCURVE",
"152 69 OFFCURVE",
"161 58 CURVE",
"170 69 OFFCURVE",
"184 76 OFFCURVE",
"199 76 CURVE SMOOTH",
"214 76 OFFCURVE",
"227 69 OFFCURVE",
"236 58 CURVE",
"245 69 OFFCURVE",
"259 76 OFFCURVE",
"274 76 CURVE SMOOTH",
"278 76 OFFCURVE",
"281 75 OFFCURVE",
"285 74 CURVE",
"271 83 OFFCURVE",
"262 99 OFFCURVE",
"262 116 CURVE SMOOTH",
"262 143 OFFCURVE",
"284 164 OFFCURVE",
"311 164 CURVE SMOOTH",
"315 164 OFFCURVE",
"319 164 OFFCURVE",
"323 163 CURVE",
"309 172 OFFCURVE",
"300 187 OFFCURVE",
"300 204 CURVE SMOOTH",
"300 224 OFFCURVE",
"312 241 OFFCURVE",
"329 249 CURVE",
"312 257 OFFCURVE",
"300 273 OFFCURVE",
"300 293 CURVE SMOOTH",
"300 313 OFFCURVE",
"312 330 OFFCURVE",
"329 338 CURVE",
"312 346 OFFCURVE",
"300 362 OFFCURVE",
"300 382 CURVE SMOOTH",
"300 399 OFFCURVE",
"309 415 OFFCURVE",
"323 424 CURVE",
"319 423 OFFCURVE",
"315 422 OFFCURVE",
"311 422 CURVE SMOOTH",
"284 422 OFFCURVE",
"262 444 OFFCURVE",
"262 471 CURVE SMOOTH",
"262 488 OFFCURVE",
"271 503 OFFCURVE",
"285 512 CURVE",
"281 511 OFFCURVE",
"278 511 OFFCURVE",
"274 511 CURVE SMOOTH",
"259 511 OFFCURVE",
"245 518 OFFCURVE",
"236 529 CURVE",
"227 518 OFFCURVE",
"214 511 OFFCURVE",
"199 511 CURVE SMOOTH",
"184 511 OFFCURVE",
"170 518 OFFCURVE"
);
},
{
closed = 1;
nodes = (
"75 68 CURVE",
"79 65 OFFCURVE",
"83 62 OFFCURVE",
"86 58 CURVE",
"89 62 OFFCURVE",
"94 65 OFFCURVE",
"98 68 CURVE",
"94 67 OFFCURVE",
"90 67 OFFCURVE",
"86 67 CURVE SMOOTH",
"82 67 OFFCURVE",
"79 67 OFFCURVE"
);
}
);
width = 450;
}
);
unicode = 0044;
userData = {
com.fontlab.hintData = {
hhints = (
{
position = -22;
width = 98;
},
{
position = 67;
width = 97;
},
{
position = 411;
width = 20;
},
{
position = 511;
width = 98;
}
);
vhints = (
{
position = 37;
width = 98;
},
{
position = 262;
width = 98;
},
{
position = 300;
width = 98;
}
);
};
};
},
{
glyphname = E;
lastChange = "2017-08-06 04:45:23 +0000";
layers = (
{
layerId = "50D14539-243D-4DFB-80D4-A58473C3BD4B";
paths = (
{
closed = 1;
nodes = (
"398 560 CURVE SMOOTH",
"398 533 OFFCURVE",
"376 511 OFFCURVE",
"349 511 CURVE SMOOTH",
"334 511 OFFCURVE",
"320 518 OFFCURVE",
"311 529 CURVE",
"302 518 OFFCURVE",
"289 511 OFFCURVE",
"274 511 CURVE SMOOTH",
"259 511 OFFCURVE",
"245 518 OFFCURVE",
"236 529 CURVE",
"227 518 OFFCURVE",
"214 511 OFFCURVE",
"199 511 CURVE SMOOTH",
"184 511 OFFCURVE",
"170 518 OFFCURVE",
"161 529 CURVE",
"152 518 OFFCURVE",
"139 511 OFFCURVE",
"124 511 CURVE SMOOTH",
"109 511 OFFCURVE",
"95 518 OFFCURVE",
"86 529 CURVE",
"81 523 OFFCURVE",
"76 519 OFFCURVE",
"69 516 CURVE",
"86 508 OFFCURVE",
"98 491 OFFCURVE",
"98 471 CURVE SMOOTH",
"98 451 OFFCURVE",
"86 435 OFFCURVE",
"69 427 CURVE",
"86 419 OFFCURVE",
"98 402 OFFCURVE",
"98 382 CURVE SMOOTH",
"98 362 OFFCURVE",
"86 346 OFFCURVE",
"69 338 CURVE",
"76 335 OFFCURVE",
"81 331 OFFCURVE",
"86 325 CURVE",
"95 336 OFFCURVE",
"109 342 OFFCURVE",
"124 342 CURVE SMOOTH",
"139 342 OFFCURVE",
"152 336 OFFCURVE",
"161 325 CURVE",
"170 336 OFFCURVE",
"184 342 OFFCURVE",
"199 342 CURVE SMOOTH",
"214 342 OFFCURVE",
"227 336 OFFCURVE",
"236 325 CURVE",
"245 336 OFFCURVE",
"259 342 OFFCURVE",
"274 342 CURVE SMOOTH",
"301 342 OFFCURVE",
"323 320 OFFCURVE",
"323 293 CURVE SMOOTH",
"323 266 OFFCURVE",
"301 244 OFFCURVE",
"274 244 CURVE SMOOTH",
"259 244 OFFCURVE",
"245 251 OFFCURVE",
"236 262 CURVE",
"227 251 OFFCURVE",
"214 244 OFFCURVE",
"199 244 CURVE SMOOTH",
"184 244 OFFCURVE",
"170 251 OFFCURVE",
"161 262 CURVE",
"152 251 OFFCURVE",
"139 244 OFFCURVE",
"124 244 CURVE SMOOTH",
"109 244 OFFCURVE",
"95 251 OFFCURVE",
"86 262 CURVE",
"81 256 OFFCURVE",
"76 252 OFFCURVE",
"69 249 CURVE",
"86 241 OFFCURVE",
"98 224 OFFCURVE",
"98 204 CURVE SMOOTH",
"98 184 OFFCURVE",
"86 168 OFFCURVE",
"69 160 CURVE",
"86 152 OFFCURVE",
"98 136 OFFCURVE",
"98 116 CURVE SMOOTH",
"98 96 OFFCURVE",
"86 79 OFFCURVE",
"69 71 CURVE",
"76 68 OFFCURVE",
"81 64 OFFCURVE",
"86 58 CURVE",
"95 69 OFFCURVE",
"109 76 OFFCURVE",
"124 76 CURVE SMOOTH",
"139 76 OFFCURVE",
"152 69 OFFCURVE",
"161 58 CURVE",
"170 69 OFFCURVE",
"184 76 OFFCURVE",
"199 76 CURVE SMOOTH",
"214 76 OFFCURVE",
"227 69 OFFCURVE",
"236 58 CURVE",
"245 69 OFFCURVE",
"259 76 OFFCURVE",
"274 76 CURVE SMOOTH",
"289 76 OFFCURVE",
"302 69 OFFCURVE",
"311 58 CURVE",
"320 69 OFFCURVE",
"334 76 OFFCURVE",
"349 76 CURVE SMOOTH",
"376 76 OFFCURVE",
"398 54 OFFCURVE",
"398 27 CURVE SMOOTH",
"398 0 OFFCURVE",
"376 -22 OFFCURVE",
"349 -22 CURVE SMOOTH",
"334 -22 OFFCURVE",
"320 -16 OFFCURVE",
"311 -5 CURVE",
"302 -16 OFFCURVE",
"289 -22 OFFCURVE",
"274 -22 CURVE SMOOTH",
"259 -22 OFFCURVE",
"245 -16 OFFCURVE",
"236 -5 CURVE",
"227 -16 OFFCURVE",
"214 -22 OFFCURVE",
"199 -22 CURVE SMOOTH",
"184 -22 OFFCURVE",
"170 -16 OFFCURVE",
"161 -5 CURVE",
"152 -16 OFFCURVE",
"139 -22 OFFCURVE",
"124 -22 CURVE SMOOTH",
"109 -22 OFFCURVE",
"95 -16 OFFCURVE",
"86 -5 CURVE",
"77 -16 OFFCURVE",
"64 -22 OFFCURVE",
"49 -22 CURVE SMOOTH",
"22 -22 OFFCURVE",
"0 0 OFFCURVE",
"0 27 CURVE SMOOTH",
"0 47 OFFCURVE",
"12 63 OFFCURVE",
"29 71 CURVE",
"12 79 OFFCURVE",
"0 96 OFFCURVE",
"0 116 CURVE SMOOTH",
"0 136 OFFCURVE",
"12 152 OFFCURVE",
"29 160 CURVE",
"12 168 OFFCURVE",
"0 184 OFFCURVE",
"0 204 CURVE SMOOTH",
"0 224 OFFCURVE",
"12 241 OFFCURVE",
"29 249 CURVE",
"12 257 OFFCURVE",
"0 273 OFFCURVE",
"0 293 CURVE SMOOTH",
"0 313 OFFCURVE",
"12 330 OFFCURVE",
"29 338 CURVE",
"12 346 OFFCURVE",
"0 362 OFFCURVE",
"0 382 CURVE SMOOTH",
"0 402 OFFCURVE",
"12 419 OFFCURVE",
"29 427 CURVE",
"12 435 OFFCURVE",
"0 451 OFFCURVE",
"0 471 CURVE SMOOTH",
"0 491 OFFCURVE",
"12 508 OFFCURVE",
"29 516 CURVE",
"12 524 OFFCURVE",
"0 540 OFFCURVE",
"0 560 CURVE SMOOTH",
"0 587 OFFCURVE",
"22 609 OFFCURVE",
"49 609 CURVE SMOOTH",
"64 609 OFFCURVE",
"77 602 OFFCURVE",
"86 591 CURVE",
"95 602 OFFCURVE",
"109 609 OFFCURVE",
"124 609 CURVE SMOOTH",
"139 609 OFFCURVE",
"152 602 OFFCURVE",
"161 591 CURVE",
"170 602 OFFCURVE",
"184 609 OFFCURVE",
"199 609 CURVE SMOOTH",
"214 609 OFFCURVE",
"227 602 OFFCURVE",
"236 591 CURVE",
"245 602 OFFCURVE",
"259 609 OFFCURVE",
"274 609 CURVE SMOOTH",
"289 609 OFFCURVE",
"302 602 OFFCURVE",
"311 591 CURVE",
"320 602 OFFCURVE",
"334 609 OFFCURVE",
"349 609 CURVE SMOOTH",
"376 609 OFFCURVE",
"398 587 OFFCURVE"
);
}
);
width = 450;
}
);
unicode = 0045;
userData = {
com.fontlab.hintData = {
hhints = (
{
position = -22;
width = 98;
},
{
position = 244;
width = 98;
},
{
position = 511;
width = 98;
}
);
vhints = (
{
position = 0;
width = 98;
}
);
};
};
},
{
glyphname = F;
lastChange = "2017-08-06 04:45:23 +0000";
layers = (
{
layerId = "50D14539-243D-4DFB-80D4-A58473C3BD4B";
paths = (
{
closed = 1;
nodes = (
"398 560 CURVE SMOOTH",
"398 533 OFFCURVE",
"376 511 OFFCURVE",
"349 511 CURVE SMOOTH",
"334 511 OFFCURVE",
"320 518 OFFCURVE",
"311 529 CURVE",
"302 518 OFFCURVE",
"289 511 OFFCURVE",
"274 511 CURVE SMOOTH",
"259 511 OFFCURVE",
"245 518 OFFCURVE",
"236 529 CURVE",
"227 518 OFFCURVE",
"214 511 OFFCURVE",
"199 511 CURVE SMOOTH",
"184 511 OFFCURVE",
"170 518 OFFCURVE",
"161 529 CURVE",
"152 518 OFFCURVE",
"139 511 OFFCURVE",
"124 511 CURVE SMOOTH",
"109 511 OFFCURVE",
"95 518 OFFCURVE",
"86 529 CURVE",
"81 523 OFFCURVE",
"76 519 OFFCURVE",
"69 516 CURVE",
"86 508 OFFCURVE",
"98 491 OFFCURVE",
"98 471 CURVE SMOOTH",
"98 451 OFFCURVE",
"86 435 OFFCURVE",
"69 427 CURVE",
"86 419 OFFCURVE",
"98 402 OFFCURVE",
"98 382 CURVE SMOOTH",
"98 362 OFFCURVE",
"86 346 OFFCURVE",
"69 338 CURVE",
"76 335 OFFCURVE",
"81 331 OFFCURVE",
"86 325 CURVE",
"95 336 OFFCURVE",
"109 342 OFFCURVE",
"124 342 CURVE SMOOTH",
"139 342 OFFCURVE",
"152 336 OFFCURVE",
"161 325 CURVE",
"170 336 OFFCURVE",
"184 342 OFFCURVE",
"199 342 CURVE SMOOTH",
"214 342 OFFCURVE",
"227 336 OFFCURVE",
"236 325 CURVE",
"245 336 OFFCURVE",
"259 342 OFFCURVE",
"274 342 CURVE SMOOTH",
"301 342 OFFCURVE",
"323 320 OFFCURVE",
"323 293 CURVE SMOOTH",
"323 266 OFFCURVE",
"301 244 OFFCURVE",
"274 244 CURVE SMOOTH",
"259 244 OFFCURVE",
"245 251 OFFCURVE",
"236 262 CURVE",
"227 251 OFFCURVE",
"214 244 OFFCURVE",
"199 244 CURVE SMOOTH",
"184 244 OFFCURVE",
"170 251 OFFCURVE",
"161 262 CURVE",
"152 251 OFFCURVE",
"139 244 OFFCURVE",
"124 244 CURVE SMOOTH",
"109 244 OFFCURVE",
"95 251 OFFCURVE",
"86 262 CURVE",
"81 256 OFFCURVE",
"76 252 OFFCURVE",
"69 249 CURVE",
"86 241 OFFCURVE",
"98 224 OFFCURVE",
"98 204 CURVE SMOOTH",
"98 184 OFFCURVE",
"86 168 OFFCURVE",
"69 160 CURVE",
"86 152 OFFCURVE",
"98 136 OFFCURVE",
"98 116 CURVE SMOOTH",
"98 96 OFFCURVE",
"86 79 OFFCURVE",
"69 71 CURVE",
"86 63 OFFCURVE",
"98 47 OFFCURVE",
"98 27 CURVE SMOOTH",
"98 0 OFFCURVE",
"76 -22 OFFCURVE",
"49 -22 CURVE SMOOTH",
"22 -22 OFFCURVE",
"0 0 OFFCURVE",
"0 27 CURVE SMOOTH",
"0 47 OFFCURVE",
"12 63 OFFCURVE",
"29 71 CURVE",
"12 79 OFFCURVE",
"0 96 OFFCURVE",
"0 116 CURVE SMOOTH",
"0 136 OFFCURVE",
"12 152 OFFCURVE",
"29 160 CURVE",
"12 168 OFFCURVE",
"0 184 OFFCURVE",
"0 204 CURVE SMOOTH",
"0 224 OFFCURVE",
"12 241 OFFCURVE",
"29 249 CURVE",
"12 257 OFFCURVE",
"0 273 OFFCURVE",
"0 293 CURVE SMOOTH",
"0 313 OFFCURVE",
"12 330 OFFCURVE",
"29 338 CURVE",
"12 346 OFFCURVE",
"0 362 OFFCURVE",
"0 382 CURVE SMOOTH",
"0 402 OFFCURVE",
"12 419 OFFCURVE",
"29 427 CURVE",
"12 435 OFFCURVE",
"0 451 OFFCURVE",
"0 471 CURVE SMOOTH",
"0 491 OFFCURVE",
"12 508 OFFCURVE",
"29 516 CURVE",
"12 524 OFFCURVE",
"0 540 OFFCURVE",
"0 560 CURVE SMOOTH",
"0 587 OFFCURVE",
"22 609 OFFCURVE",
"49 609 CURVE SMOOTH",
"64 609 OFFCURVE",
"77 602 OFFCURVE",
"86 591 CURVE",
"95 602 OFFCURVE",
"109 609 OFFCURVE",
"124 609 CURVE SMOOTH",
"139 609 OFFCURVE",
"152 602 OFFCURVE",
"161 591 CURVE",
"170 602 OFFCURVE",
"184 609 OFFCURVE",
"199 609 CURVE SMOOTH",
"214 609 OFFCURVE",
"227 602 OFFCURVE",
"236 591 CURVE",
"245 602 OFFCURVE",
"259 609 OFFCURVE",
"274 609 CURVE SMOOTH",
"289 609 OFFCURVE",
"302 602 OFFCURVE",
"311 591 CURVE",
"320 602 OFFCURVE",
"334 609 OFFCURVE",
"349 609 CURVE SMOOTH",
"376 609 OFFCURVE",
"398 587 OFFCURVE"
);
}
);
width = 450;
}
);
unicode = 0046;
userData = {
com.fontlab.hintData = {
hhints = (
{
position = -22;
width = 21;
},
{
position = -22;
width = 21;
},
{
position = 244;
width = 98;
},
{
position = 511;
width = 98;
}
);
vhints = (
{
position = 0;
width = 98;
}
);
};
};
},
{
glyphname = G;
lastChange = "2017-08-06 04:45:23 +0000";
layers = (
{
layerId = "50D14539-243D-4DFB-80D4-A58473C3BD4B";
paths = (
{
closed = 1;
nodes = (
"360 560 CURVE SMOOTH",
"360 543 OFFCURVE",
"351 528 OFFCURVE",
"337 519 CURVE",
"341 520 OFFCURVE",
"345 520 OFFCURVE",
"349 520 CURVE SMOOTH",
"376 520 OFFCURVE",
"398 498 OFFCURVE",
"398 471 CURVE SMOOTH",
"398 444 OFFCURVE",
"376 422 OFFCURVE",
"349 422 CURVE SMOOTH",
"322 422 OFFCURVE",
"300 444 OFFCURVE",
"300 471 CURVE SMOOTH",
"300 488 OFFCURVE",
"309 503 OFFCURVE",
"323 512 CURVE",
"319 511 OFFCURVE",
"315 511 OFFCURVE",
"311 511 CURVE SMOOTH",
"296 511 OFFCURVE",
"283 518 OFFCURVE",
"274 529 CURVE",
"265 518 OFFCURVE",
"251 511 OFFCURVE",
"236 511 CURVE SMOOTH",
"221 511 OFFCURVE",
"208 518 OFFCURVE",
"199 529 CURVE",
"190 518 OFFCURVE",
"176 511 OFFCURVE",
"161 511 CURVE SMOOTH",
"146 511 OFFCURVE",
"133 518 OFFCURVE",
"124 529 CURVE",
"115 518 OFFCURVE",
"101 511 OFFCURVE",
"86 511 CURVE SMOOTH",
"82 511 OFFCURVE",
"79 511 OFFCURVE",
"75 512 CURVE",
"89 503 OFFCURVE",
"98 488 OFFCURVE",
"98 471 CURVE SMOOTH",
"98 451 OFFCURVE",
"86 435 OFFCURVE",
"69 427 CURVE",
"86 419 OFFCURVE",
"98 402 OFFCURVE",
"98 382 CURVE SMOOTH",
"98 362 OFFCURVE",
"86 346 OFFCURVE",
"69 338 CURVE",
"86 330 OFFCURVE",
"98 313 OFFCURVE",
"98 293 CURVE SMOOTH",
"98 273 OFFCURVE",
"86 257 OFFCURVE",
"69 249 CURVE",
"86 241 OFFCURVE",
"98 224 OFFCURVE",
"98 204 CURVE SMOOTH",
"98 184 OFFCURVE",
"86 168 OFFCURVE",
"69 160 CURVE",
"86 152 OFFCURVE",
"98 136 OFFCURVE",
"98 116 CURVE SMOOTH",
"98 99 OFFCURVE",
"89 83 OFFCURVE",
"75 74 CURVE",
"79 75 OFFCURVE",
"82 76 OFFCURVE",
"86 76 CURVE SMOOTH",
"101 76 OFFCURVE",
"115 69 OFFCURVE",
"124 58 CURVE",
"133 69 OFFCURVE",
"146 76 OFFCURVE",
"161 76 CURVE SMOOTH",
"176 76 OFFCURVE",
"190 69 OFFCURVE",
"199 58 CURVE",
"208 69 OFFCURVE",
"221 76 OFFCURVE",
"236 76 CURVE SMOOTH",
"251 76 OFFCURVE",
"265 69 OFFCURVE",
"274 58 CURVE",
"283 69 OFFCURVE",
"296 76 OFFCURVE",
"311 76 CURVE SMOOTH",
"315 76 OFFCURVE",
"319 75 OFFCURVE",
"323 74 CURVE",
"309 83 OFFCURVE",
"300 99 OFFCURVE",
"300 116 CURVE SMOOTH",
"300 136 OFFCURVE",
"312 152 OFFCURVE",
"329 160 CURVE",
"312 168 OFFCURVE",
"300 184 OFFCURVE",
"300 204 CURVE SMOOTH",
"300 224 OFFCURVE",
"312 241 OFFCURVE",
"329 249 CURVE",
"322 252 OFFCURVE",
"316 256 OFFCURVE",
"311 262 CURVE",
"302 251 OFFCURVE",
"289 244 OFFCURVE",
"274 244 CURVE SMOOTH",
"259 244 OFFCURVE",
"245 251 OFFCURVE",
"236 262 CURVE",
"227 251 OFFCURVE",
"214 244 OFFCURVE",
"199 244 CURVE SMOOTH",
"172 244 OFFCURVE",
"150 266 OFFCURVE",
"150 293 CURVE SMOOTH",
"150 320 OFFCURVE",
"172 342 OFFCURVE",
"199 342 CURVE SMOOTH",
"214 342 OFFCURVE",
"227 336 OFFCURVE",
"236 325 CURVE",
"245 336 OFFCURVE",
"259 342 OFFCURVE",
"274 342 CURVE SMOOTH",
"289 342 OFFCURVE",
"302 336 OFFCURVE",
"311 325 CURVE",
"320 336 OFFCURVE",
"334 342 OFFCURVE",
"349 342 CURVE SMOOTH",
"376 342 OFFCURVE",
"398 320 OFFCURVE",
"398 293 CURVE SMOOTH",
"398 273 OFFCURVE",
"386 257 OFFCURVE",
"369 249 CURVE",
"386 241 OFFCURVE",
"398 224 OFFCURVE",
"398 204 CURVE SMOOTH",
"398 184 OFFCURVE",
"386 168 OFFCURVE",
"369 160 CURVE",
"386 152 OFFCURVE",
"398 136 OFFCURVE",
"398 116 CURVE SMOOTH",
"398 89 OFFCURVE",
"376 67 OFFCURVE",
"349 67 CURVE SMOOTH",
"345 67 OFFCURVE",
"341 67 OFFCURVE",
"337 68 CURVE",
"351 59 OFFCURVE",
"360 44 OFFCURVE",
"360 27 CURVE SMOOTH",
"360 0 OFFCURVE",
"338 -22 OFFCURVE",
"311 -22 CURVE SMOOTH",
"296 -22 OFFCURVE",
"283 -16 OFFCURVE",
"274 -5 CURVE",
"265 -16 OFFCURVE",
"251 -22 OFFCURVE",
"236 -22 CURVE SMOOTH",
"221 -22 OFFCURVE",
"208 -16 OFFCURVE",
"199 -5 CURVE",
"190 -16 OFFCURVE",
"176 -22 OFFCURVE",
"161 -22 CURVE SMOOTH",
"146 -22 OFFCURVE",
"133 -16 OFFCURVE",
"124 -5 CURVE",
"115 -16 OFFCURVE",
"101 -22 OFFCURVE",
"86 -22 CURVE SMOOTH",
"59 -22 OFFCURVE",
"37 0 OFFCURVE",
"37 27 CURVE SMOOTH",
"37 44 OFFCURVE",
"46 59 OFFCURVE",
"60 68 CURVE",
"56 67 OFFCURVE",
"53 67 OFFCURVE",
"49 67 CURVE SMOOTH",
"22 67 OFFCURVE",
"0 89 OFFCURVE",
"0 116 CURVE SMOOTH",
"0 136 OFFCURVE",
"12 152 OFFCURVE",
"29 160 CURVE",
"12 168 OFFCURVE",
"0 184 OFFCURVE",
"0 204 CURVE SMOOTH",
"0 224 OFFCURVE",
"12 241 OFFCURVE",
"29 249 CURVE",
"12 257 OFFCURVE",
"0 273 OFFCURVE",
"0 293 CURVE SMOOTH",
"0 313 OFFCURVE",
"12 330 OFFCURVE",
"29 338 CURVE",
"12 346 OFFCURVE",
"0 362 OFFCURVE",
"0 382 CURVE SMOOTH",
"0 402 OFFCURVE",
"12 419 OFFCURVE",
"29 427 CURVE",
"12 435 OFFCURVE",
"0 451 OFFCURVE",
"0 471 CURVE SMOOTH",
"0 498 OFFCURVE",
"22 520 OFFCURVE",
"49 520 CURVE SMOOTH",
"53 520 OFFCURVE",
"56 520 OFFCURVE",
"60 519 CURVE",
"46 528 OFFCURVE",
"37 543 OFFCURVE",
"37 560 CURVE SMOOTH",
"37 587 OFFCURVE",
"59 609 OFFCURVE",
"86 609 CURVE SMOOTH",
"101 609 OFFCURVE",
"115 602 OFFCURVE",
"124 591 CURVE",
"133 602 OFFCURVE",
"146 609 OFFCURVE",
"161 609 CURVE SMOOTH",
"176 609 OFFCURVE",
"190 602 OFFCURVE",
"199 591 CURVE",
"208 602 OFFCURVE",
"221 609 OFFCURVE",
"236 609 CURVE SMOOTH",
"251 609 OFFCURVE",
"265 602 OFFCURVE",
"274 591 CURVE",
"283 602 OFFCURVE",
"296 609 OFFCURVE",
"311 609 CURVE SMOOTH",
"338 609 OFFCURVE",
"360 587 OFFCURVE"
);
}
);
width = 450;
}
);
unicode = 0047;
userData = {
com.fontlab.hintData = {
hhints = (
{
position = -22;
width = 98;
},
{
position = 244;
width = 98;
},
{
position = 422;
width = 98;
},
{
position = 511;
width = 98;
}
);
vhints = (
{
position = 0;
width = 98;
},
{
position = 300;
width = 98;
}
);
};
};
},
{
glyphname = H;
lastChange = "2017-08-06 04:45:23 +0000";
layers = (
{
layerId = "50D14539-243D-4DFB-80D4-A58473C3BD4B";
paths = (
{
closed = 1;
nodes = (
"98 560 CURVE SMOOTH",
"98 540 OFFCURVE",
"86 524 OFFCURVE",
"69 516 CURVE",
"86 508 OFFCURVE",
"98 491 OFFCURVE",
"98 471 CURVE SMOOTH",
"98 451 OFFCURVE",
"86 435 OFFCURVE",
"69 427 CURVE",
"86 419 OFFCURVE",
"98 402 OFFCURVE",
"98 382 CURVE SMOOTH",
"98 362 OFFCURVE",
"86 346 OFFCURVE",
"69 338 CURVE",
"76 335 OFFCURVE",
"81 331 OFFCURVE",
"86 325 CURVE",
"95 336 OFFCURVE",
"109 342 OFFCURVE",
"124 342 CURVE SMOOTH",
"139 342 OFFCURVE",
"152 336 OFFCURVE",
"161 325 CURVE",
"170 336 OFFCURVE",
"184 342 OFFCURVE",
"199 342 CURVE SMOOTH",
"214 342 OFFCURVE",
"227 336 OFFCURVE",
"236 325 CURVE",
"245 336 OFFCURVE",
"259 342 OFFCURVE",
"274 342 CURVE SMOOTH",
"289 342 OFFCURVE",
"302 336 OFFCURVE",
"311 325 CURVE",
"316 331 OFFCURVE",
"322 335 OFFCURVE",
"329 338 CURVE",
"312 346 OFFCURVE",
"300 362 OFFCURVE",
"300 382 CURVE SMOOTH",
"300 402 OFFCURVE",
"312 419 OFFCURVE",
"329 427 CURVE",
"312 435 OFFCURVE",
"300 451 OFFCURVE",
"300 471 CURVE SMOOTH",
"300 491 OFFCURVE",
"312 508 OFFCURVE",
"329 516 CURVE",
"312 524 OFFCURVE",
"300 540 OFFCURVE",
"300 560 CURVE SMOOTH",
"300 587 OFFCURVE",
"322 609 OFFCURVE",
"349 609 CURVE SMOOTH",
"376 609 OFFCURVE",
"398 587 OFFCURVE",
"398 560 CURVE SMOOTH",
"398 540 OFFCURVE",
"386 524 OFFCURVE",
"369 516 CURVE",
"386 508 OFFCURVE",
"398 491 OFFCURVE",
"398 471 CURVE SMOOTH",
"398 451 OFFCURVE",
"386 435 OFFCURVE",
"369 427 CURVE",
"386 419 OFFCURVE",
"398 402 OFFCURVE",
"398 382 CURVE SMOOTH",
"398 362 OFFCURVE",
"386 346 OFFCURVE",
"369 338 CURVE",
"386 330 OFFCURVE",
"398 313 OFFCURVE",
"398 293 CURVE SMOOTH",
"398 273 OFFCURVE",
"386 257 OFFCURVE",
"369 249 CURVE",
"386 241 OFFCURVE",
"398 224 OFFCURVE",
"398 204 CURVE SMOOTH",
"398 184 OFFCURVE",
"386 168 OFFCURVE",
"369 160 CURVE",
"386 152 OFFCURVE",
"398 136 OFFCURVE",
"398 116 CURVE SMOOTH",
"398 96 OFFCURVE",
"386 79 OFFCURVE",
"369 71 CURVE",
"386 63 OFFCURVE",
"398 47 OFFCURVE",
"398 27 CURVE SMOOTH",
"398 0 OFFCURVE",
"376 -22 OFFCURVE",
"349 -22 CURVE SMOOTH",
"322 -22 OFFCURVE",
"300 0 OFFCURVE",
"300 27 CURVE SMOOTH",
"300 47 OFFCURVE",
"312 63 OFFCURVE",
"329 71 CURVE",
"312 79 OFFCURVE",
"300 96 OFFCURVE",
"300 116 CURVE SMOOTH",
"300 136 OFFCURVE",
"312 152 OFFCURVE",
"329 160 CURVE",
"312 168 OFFCURVE",
"300 184 OFFCURVE",
"300 204 CURVE SMOOTH",
"300 224 OFFCURVE",
"312 241 OFFCURVE",
"329 249 CURVE",
"322 252 OFFCURVE",
"316 256 OFFCURVE",
"311 262 CURVE",
"302 251 OFFCURVE",
"289 244 OFFCURVE",
"274 244 CURVE SMOOTH",
"259 244 OFFCURVE",
"245 251 OFFCURVE",
"236 262 CURVE",
"227 251 OFFCURVE",
"214 244 OFFCURVE",
"199 244 CURVE SMOOTH",
"184 244 OFFCURVE",
"170 251 OFFCURVE",
"161 262 CURVE",
"152 251 OFFCURVE",
"139 244 OFFCURVE",
"124 244 CURVE SMOOTH",
"109 244 OFFCURVE",
"95 251 OFFCURVE",
"86 262 CURVE",
"81 256 OFFCURVE",
"76 252 OFFCURVE",
"69 249 CURVE",
"86 241 OFFCURVE",
"98 224 OFFCURVE",
"98 204 CURVE SMOOTH",
"98 184 OFFCURVE",
"86 168 OFFCURVE",
"69 160 CURVE",
"86 152 OFFCURVE",
"98 136 OFFCURVE",
"98 116 CURVE SMOOTH",
"98 96 OFFCURVE",
"86 79 OFFCURVE",
"69 71 CURVE",
"86 63 OFFCURVE",
"98 47 OFFCURVE",
"98 27 CURVE SMOOTH",
"98 0 OFFCURVE",
"76 -22 OFFCURVE",
"49 -22 CURVE SMOOTH",
"22 -22 OFFCURVE",
"0 0 OFFCURVE",
"0 27 CURVE SMOOTH",
"0 47 OFFCURVE",
"12 63 OFFCURVE",
"29 71 CURVE",
"12 79 OFFCURVE",
"0 96 OFFCURVE",
"0 116 CURVE SMOOTH",
"0 136 OFFCURVE",
"12 152 OFFCURVE",
"29 160 CURVE",
"12 168 OFFCURVE",
"0 184 OFFCURVE",
"0 204 CURVE SMOOTH",
"0 224 OFFCURVE",
"12 241 OFFCURVE",
"29 249 CURVE",
"12 257 OFFCURVE",
"0 273 OFFCURVE",
"0 293 CURVE SMOOTH",
"0 313 OFFCURVE",
"12 330 OFFCURVE",
"29 338 CURVE",
"12 346 OFFCURVE",
"0 362 OFFCURVE",
"0 382 CURVE SMOOTH",
"0 402 OFFCURVE",
"12 419 OFFCURVE",
"29 427 CURVE",
"12 435 OFFCURVE",
"0 451 OFFCURVE",
"0 471 CURVE SMOOTH",
"0 491 OFFCURVE",
"12 508 OFFCURVE",
"29 516 CURVE",
"12 524 OFFCURVE",
"0 540 OFFCURVE",
"0 560 CURVE SMOOTH",
"0 587 OFFCURVE",
"22 609 OFFCURVE",
"49 609 CURVE SMOOTH",
"76 609 OFFCURVE",
"98 587 OFFCURVE"
);
}
);
width = 450;
}
);
unicode = 0048;
userData = {
com.fontlab.hintData = {
hhints = (
{
position = -22;
width = 21;
},
{
position = -22;
width = 21;
},
{
position = 244;
width = 98;
},
{
position = 589;
width = 20;
}
);
vhints = (
{
position = 0;
width = 98;
},
{
position = 300;
width = 98;
}
);
};
};
},
{
glyphname = I;
lastChange = "2017-08-06 04:45:23 +0000";
layers = (
{
layerId = "50D14539-243D-4DFB-80D4-A58473C3BD4B";
paths = (
{
closed = 1;
nodes = (
"323 560 CURVE SMOOTH",
"323 533 OFFCURVE",
"301 511 OFFCURVE",
"274 511 CURVE SMOOTH",
"259 511 OFFCURVE",
"245 518 OFFCURVE",
"236 529 CURVE",
"231 523 OFFCURVE",
"226 519 OFFCURVE",
"219 516 CURVE",
"236 508 OFFCURVE",
"248 491 OFFCURVE",
"248 471 CURVE SMOOTH",
"248 451 OFFCURVE",
"236 435 OFFCURVE",
"219 427 CURVE",
"236 419 OFFCURVE",
"248 402 OFFCURVE",
"248 382 CURVE SMOOTH",
"248 362 OFFCURVE",
"236 346 OFFCURVE",
"219 338 CURVE",
"236 330 OFFCURVE",
"248 313 OFFCURVE",
"248 293 CURVE SMOOTH",
"248 273 OFFCURVE",
"236 257 OFFCURVE",
"219 249 CURVE",
"236 241 OFFCURVE",
"248 224 OFFCURVE",
"248 204 CURVE SMOOTH",
"248 184 OFFCURVE",
"236 168 OFFCURVE",
"219 160 CURVE",
"236 152 OFFCURVE",
"248 136 OFFCURVE",
"248 116 CURVE SMOOTH",
"248 96 OFFCURVE",
"236 79 OFFCURVE",
"219 71 CURVE",
"226 68 OFFCURVE",
"231 64 OFFCURVE",
"236 58 CURVE",
"245 69 OFFCURVE",
"259 76 OFFCURVE",
"274 76 CURVE SMOOTH",
"301 76 OFFCURVE",
"323 54 OFFCURVE",
"323 27 CURVE SMOOTH",
"323 0 OFFCURVE",
"301 -22 OFFCURVE",
"274 -22 CURVE SMOOTH",
"259 -22 OFFCURVE",
"245 -16 OFFCURVE",
"236 -5 CURVE",
"227 -16 OFFCURVE",
"214 -22 OFFCURVE",
"199 -22 CURVE SMOOTH",
"184 -22 OFFCURVE",
"170 -16 OFFCURVE",
"161 -5 CURVE",
"152 -16 OFFCURVE",
"139 -22 OFFCURVE",
"124 -22 CURVE SMOOTH",
"97 -22 OFFCURVE",
"75 0 OFFCURVE",
"75 27 CURVE SMOOTH",
"75 54 OFFCURVE",
"97 76 OFFCURVE",
"124 76 CURVE SMOOTH",
"139 76 OFFCURVE",
"152 69 OFFCURVE",
"161 58 CURVE",
"166 64 OFFCURVE",
"172 68 OFFCURVE",
"179 71 CURVE",
"162 79 OFFCURVE",
"150 96 OFFCURVE",
"150 116 CURVE SMOOTH",
"150 136 OFFCURVE",
"162 152 OFFCURVE",
"179 160 CURVE",
"162 168 OFFCURVE",
"150 184 OFFCURVE",
"150 204 CURVE SMOOTH",
"150 224 OFFCURVE",
"162 241 OFFCURVE",
"179 249 CURVE",
"162 257 OFFCURVE",
"150 273 OFFCURVE",
"150 293 CURVE SMOOTH",
"150 313 OFFCURVE",
"162 330 OFFCURVE",
"179 338 CURVE",
"162 346 OFFCURVE",
"150 362 OFFCURVE",
"150 382 CURVE SMOOTH",
"150 402 OFFCURVE",
"162 419 OFFCURVE",
"179 427 CURVE",
"162 435 OFFCURVE",
"150 451 OFFCURVE",
"150 471 CURVE SMOOTH",
"150 491 OFFCURVE",
"162 508 OFFCURVE",
"179 516 CURVE",
"172 519 OFFCURVE",
"166 523 OFFCURVE",
"161 529 CURVE",
"152 518 OFFCURVE",
"139 511 OFFCURVE",
"124 511 CURVE SMOOTH",
"97 511 OFFCURVE",
"75 533 OFFCURVE",
"75 560 CURVE SMOOTH",
"75 587 OFFCURVE",
"97 609 OFFCURVE",
"124 609 CURVE SMOOTH",
"139 609 OFFCURVE",
"152 602 OFFCURVE",
"161 591 CURVE",
"170 602 OFFCURVE",
"184 609 OFFCURVE",
"199 609 CURVE SMOOTH",
"214 609 OFFCURVE",
"227 602 OFFCURVE",
"236 591 CURVE",
"245 602 OFFCURVE",
"259 609 OFFCURVE",
"274 609 CURVE SMOOTH",
"301 609 OFFCURVE",
"323 587 OFFCURVE"
);
}
);
width = 450;
}
);
unicode = 0049;
userData = {
com.fontlab.hintData = {
hhints = (
{
position = -22;
width = 98;
},
{
position = 511;
width = 98;
}
);
vhints = (
{
position = 150;
width = 98;
}
);
};
};
},
{
glyphname = J;
lastChange = "2017-08-06 04:45:23 +0000";
layers = (
{
layerId = "50D14539-243D-4DFB-80D4-A58473C3BD4B";
paths = (
{
closed = 1;
nodes = (
"360 560 CURVE SMOOTH",
"360 533 OFFCURVE",
"338 511 OFFCURVE",
"311 511 CURVE SMOOTH",
"307 511 OFFCURVE",
"304 511 OFFCURVE",
"300 512 CURVE",
"314 503 OFFCURVE",
"323 488 OFFCURVE",
"323 471 CURVE SMOOTH",
"323 451 OFFCURVE",
"311 435 OFFCURVE",
"294 427 CURVE",
"311 419 OFFCURVE",
"323 402 OFFCURVE",
"323 382 CURVE SMOOTH",
"323 362 OFFCURVE",
"311 346 OFFCURVE",
"294 338 CURVE",
"311 330 OFFCURVE",
"323 313 OFFCURVE",
"323 293 CURVE SMOOTH",
"323 273 OFFCURVE",
"311 257 OFFCURVE",
"294 249 CURVE",
"311 241 OFFCURVE",
"323 224 OFFCURVE",
"323 204 CURVE SMOOTH",
"323 184 OFFCURVE",
"311 168 OFFCURVE",
"294 160 CURVE",
"311 152 OFFCURVE",
"323 136 OFFCURVE",
"323 116 CURVE SMOOTH",
"323 89 OFFCURVE",
"301 67 OFFCURVE",
"274 67 CURVE SMOOTH",
"270 67 OFFCURVE",
"266 67 OFFCURVE",
"262 68 CURVE",
"276 59 OFFCURVE",
"285 44 OFFCURVE",
"285 27 CURVE SMOOTH",
"285 0 OFFCURVE",
"263 -22 OFFCURVE",
"236 -22 CURVE SMOOTH",
"221 -22 OFFCURVE",
"208 -16 OFFCURVE",
"199 -5 CURVE",
"190 -16 OFFCURVE",
"176 -22 OFFCURVE",
"161 -22 CURVE SMOOTH",
"146 -22 OFFCURVE",
"133 -16 OFFCURVE",
"124 -5 CURVE",
"115 -16 OFFCURVE",
"101 -22 OFFCURVE",
"86 -22 CURVE SMOOTH",
"59 -22 OFFCURVE",
"37 0 OFFCURVE",
"37 27 CURVE SMOOTH",
"37 44 OFFCURVE",
"46 59 OFFCURVE",
"60 68 CURVE",
"56 67 OFFCURVE",
"53 67 OFFCURVE",
"49 67 CURVE SMOOTH",
"22 67 OFFCURVE",
"0 89 OFFCURVE",
"0 116 CURVE SMOOTH",
"0 143 OFFCURVE",
"22 164 OFFCURVE",
"49 164 CURVE SMOOTH",
"76 164 OFFCURVE",
"98 143 OFFCURVE",
"98 116 CURVE SMOOTH",
"98 99 OFFCURVE",
"89 83 OFFCURVE",
"75 74 CURVE",
"79 75 OFFCURVE",
"82 76 OFFCURVE",
"86 76 CURVE SMOOTH",
"101 76 OFFCURVE",
"115 69 OFFCURVE",
"124 58 CURVE",
"133 69 OFFCURVE",
"146 76 OFFCURVE",
"161 76 CURVE SMOOTH",
"176 76 OFFCURVE",
"190 69 OFFCURVE",
"199 58 CURVE",
"208 69 OFFCURVE",
"221 76 OFFCURVE",
"236 76 CURVE SMOOTH",
"240 76 OFFCURVE",
"244 75 OFFCURVE",
"248 74 CURVE",
"234 83 OFFCURVE",
"225 99 OFFCURVE",
"225 116 CURVE SMOOTH",
"225 136 OFFCURVE",
"237 152 OFFCURVE",
"254 160 CURVE",
"237 168 OFFCURVE",
"225 184 OFFCURVE",
"225 204 CURVE SMOOTH",
"225 224 OFFCURVE",
"237 241 OFFCURVE",
"254 249 CURVE",
"237 257 OFFCURVE",
"225 273 OFFCURVE",
"225 293 CURVE SMOOTH",
"225 313 OFFCURVE",
"237 330 OFFCURVE",
"254 338 CURVE",
"237 346 OFFCURVE",
"225 362 OFFCURVE",
"225 382 CURVE SMOOTH",
"225 402 OFFCURVE",
"237 419 OFFCURVE",
"254 427 CURVE",
"237 435 OFFCURVE",
"225 451 OFFCURVE",
"225 471 CURVE SMOOTH",
"225 488 OFFCURVE",
"234 503 OFFCURVE",
"248 512 CURVE",
"244 511 OFFCURVE",
"240 511 OFFCURVE",
"236 511 CURVE SMOOTH",
"221 511 OFFCURVE",
"208 518 OFFCURVE",
"199 529 CURVE",
"190 518 OFFCURVE",
"176 511 OFFCURVE",
"161 511 CURVE SMOOTH",
"134 511 OFFCURVE",
"112 533 OFFCURVE",
"112 560 CURVE SMOOTH",
"112 587 OFFCURVE",
"134 609 OFFCURVE",
"161 609 CURVE SMOOTH",
"176 609 OFFCURVE",
"190 602 OFFCURVE",
"199 591 CURVE",
"208 602 OFFCURVE",
"221 609 OFFCURVE",
"236 609 CURVE SMOOTH",
"251 609 OFFCURVE",
"265 602 OFFCURVE",
"274 591 CURVE",
"283 602 OFFCURVE",
"296 609 OFFCURVE",
"311 609 CURVE SMOOTH",
"338 609 OFFCURVE",
"360 587 OFFCURVE"
);
},
{
closed = 1;
nodes = (
"274 529 CURVE",
"271 525 OFFCURVE",
"266 522 OFFCURVE",
"262 519 CURVE",
"266 520 OFFCURVE",
"270 520 OFFCURVE",
"274 520 CURVE SMOOTH",
"278 520 OFFCURVE",
"281 520 OFFCURVE",
"285 519 CURVE",
"281 522 OFFCURVE",
"277 525 OFFCURVE"
);
}
);
width = 450;
}
);
unicode = 004A;
userData = {
com.fontlab.hintData = {
hhints = (
{
position = -22;
width = 98;
},
{
position = 67;
width = 97;
},
{
position = 511;
width = 98;
}
);
vhints = (
{
position = 0;
width = 98;
},
{
position = 225;
width = 98;
}
);
};
};
},
{
glyphname = K;
lastChange = "2017-08-06 04:45:23 +0000";
layers = (
{
layerId = "50D14539-243D-4DFB-80D4-A58473C3BD4B";
paths = (
{
closed = 1;
nodes = (
"98 560 CURVE SMOOTH",
"98 540 OFFCURVE",
"86 524 OFFCURVE",
"69 516 CURVE",
"86 508 OFFCURVE",
"98 491 OFFCURVE",
"98 471 CURVE SMOOTH",
"98 451 OFFCURVE",
"86 435 OFFCURVE",
"69 427 CURVE",
"86 419 OFFCURVE",
"98 402 OFFCURVE",
"98 382 CURVE SMOOTH",
"98 362 OFFCURVE",
"86 346 OFFCURVE",
"69 338 CURVE",
"76 335 OFFCURVE",
"81 331 OFFCURVE",
"86 325 CURVE",
"95 336 OFFCURVE",
"109 342 OFFCURVE",
"124 342 CURVE SMOOTH",
"151 342 OFFCURVE",
"173 320 OFFCURVE",
"173 293 CURVE SMOOTH",
"173 266 OFFCURVE",
"151 244 OFFCURVE",
"124 244 CURVE SMOOTH",
"109 244 OFFCURVE",
"95 251 OFFCURVE",
"86 262 CURVE",
"81 256 OFFCURVE",
"76 252 OFFCURVE",
"69 249 CURVE",
"86 241 OFFCURVE",
"98 224 OFFCURVE",
"98 204 CURVE SMOOTH",
"98 184 OFFCURVE",
"86 168 OFFCURVE",
"69 160 CURVE",
"86 152 OFFCURVE",
"98 136 OFFCURVE",
"98 116 CURVE SMOOTH",
"98 96 OFFCURVE",
"86 79 OFFCURVE",
"69 71 CURVE",
"86 63 OFFCURVE",
"98 47 OFFCURVE",
"98 27 CURVE SMOOTH",
"98 0 OFFCURVE",
"76 -22 OFFCURVE",
"49 -22 CURVE SMOOTH",
"22 -22 OFFCURVE",
"0 0 OFFCURVE",
"0 27 CURVE SMOOTH",
"0 47 OFFCURVE",
"12 63 OFFCURVE",
"29 71 CURVE",
"12 79 OFFCURVE",
"0 96 OFFCURVE",
"0 116 CURVE SMOOTH",
"0 136 OFFCURVE",
"12 152 OFFCURVE",
"29 160 CURVE",
"12 168 OFFCURVE",
"0 184 OFFCURVE",
"0 204 CURVE SMOOTH",
"0 224 OFFCURVE",
"12 241 OFFCURVE",
"29 249 CURVE",
"12 257 OFFCURVE",
"0 273 OFFCURVE",
"0 293 CURVE SMOOTH",
"0 313 OFFCURVE",
"12 330 OFFCURVE",
"29 338 CURVE",
"12 346 OFFCURVE",
"0 362 OFFCURVE",
"0 382 CURVE SMOOTH",
"0 402 OFFCURVE",
"12 419 OFFCURVE",
"29 427 CURVE",
"12 435 OFFCURVE",
"0 451 OFFCURVE",
"0 471 CURVE SMOOTH",
"0 491 OFFCURVE",
"12 508 OFFCURVE",
"29 516 CURVE",
"12 524 OFFCURVE",
"0 540 OFFCURVE",
"0 560 CURVE SMOOTH",
"0 587 OFFCURVE",
"22 609 OFFCURVE",
"49 609 CURVE SMOOTH",
"76 609 OFFCURVE",
"98 587 OFFCURVE"
);
},
{
closed = 1;
nodes = (
"398 560 CURVE SMOOTH",
"398 533 OFFCURVE",
"376 511 OFFCURVE",
"349 511 CURVE SMOOTH",
"322 511 OFFCURVE",
"300 533 OFFCURVE",
"300 560 CURVE SMOOTH",
"300 587 OFFCURVE",
"322 609 OFFCURVE",
"349 609 CURVE SMOOTH",
"376 609 OFFCURVE",
"398 587 OFFCURVE"
);
},
{
closed = 1;
nodes = (
"323 471 CURVE SMOOTH",
"323 444 OFFCURVE",
"301 422 OFFCURVE",
"274 422 CURVE SMOOTH",
"247 422 OFFCURVE",
"225 444 OFFCURVE",
"225 471 CURVE SMOOTH",
"225 498 OFFCURVE",
"247 520 OFFCURVE",
"274 520 CURVE SMOOTH",
"301 520 OFFCURVE",
"323 498 OFFCURVE"
);
},
{
closed = 1;
nodes = (
"248 382 CURVE SMOOTH",
"248 355 OFFCURVE",
"226 333 OFFCURVE",
"199 333 CURVE SMOOTH",
"172 333 OFFCURVE",
"150 355 OFFCURVE",
"150 382 CURVE SMOOTH",
"150 409 OFFCURVE",
"172 431 OFFCURVE",
"199 431 CURVE SMOOTH",
"226 431 OFFCURVE",
"248 409 OFFCURVE"
);
},
{
closed = 1;
nodes = (
"248 204 CURVE SMOOTH",
"248 177 OFFCURVE",
"226 156 OFFCURVE",
"199 156 CURVE SMOOTH",
"172 156 OFFCURVE",
"150 177 OFFCURVE",
"150 204 CURVE SMOOTH",
"150 231 OFFCURVE",
"172 253 OFFCURVE",
"199 253 CURVE SMOOTH",
"226 253 OFFCURVE",
"248 231 OFFCURVE"
);
},
{
closed = 1;
nodes = (
"323 116 CURVE SMOOTH",
"323 89 OFFCURVE",
"301 67 OFFCURVE",
"274 67 CURVE SMOOTH",
"247 67 OFFCURVE",
"225 89 OFFCURVE",
"225 116 CURVE SMOOTH",
"225 143 OFFCURVE",
"247 164 OFFCURVE",
"274 164 CURVE SMOOTH",
"301 164 OFFCURVE",
"323 143 OFFCURVE"
);
},
{
closed = 1;
nodes = (
"398 27 CURVE SMOOTH",
"398 0 OFFCURVE",
"376 -22 OFFCURVE",
"349 -22 CURVE SMOOTH",
"322 -22 OFFCURVE",
"300 0 OFFCURVE",
"300 27 CURVE SMOOTH",
"300 54 OFFCURVE",
"322 76 OFFCURVE",
"349 76 CURVE SMOOTH",
"376 76 OFFCURVE",
"398 54 OFFCURVE"
);
}
);
width = 450;
}
);
unicode = 004B;
userData = {
com.fontlab.hintData = {
hhints = (
{
position = -22;
width = 98;
},
{
position = -22;
width = 21;
},
{
position = 67;
width = 97;
},
{
position = 156;
width = 97;
},
{
position = 244;
width = 98;
},
{
position = 333;
width = 98;
},
{
position = 422;
width = 98;
},
{
position = 511;
width = 98;
}
);
vhints = (
{
position = 0;
width = 98;
},
{
position = 150;
width = 98;
},
{
position = 225;
width = 98;
},
{
position = 300;
width = 98;
}
);
};
};
},
{
glyphname = L;
lastChange = "2017-08-06 04:45:23 +0000";
layers = (
{
layerId = "50D14539-243D-4DFB-80D4-A58473C3BD4B";
paths = (
{
closed = 1;
nodes = (
"98 560 CURVE SMOOTH",
"98 540 OFFCURVE",
"86 524 OFFCURVE",
"69 516 CURVE",
"86 508 OFFCURVE",
"98 491 OFFCURVE",
"98 471 CURVE SMOOTH",
"98 451 OFFCURVE",
"86 435 OFFCURVE",
"69 427 CURVE",
"86 419 OFFCURVE",
"98 402 OFFCURVE",
"98 382 CURVE SMOOTH",
"98 362 OFFCURVE",
"86 346 OFFCURVE",
"69 338 CURVE",
"86 330 OFFCURVE",
"98 313 OFFCURVE",
"98 293 CURVE SMOOTH",
"98 273 OFFCURVE",
"86 257 OFFCURVE",
"69 249 CURVE",
"86 241 OFFCURVE",
"98 224 OFFCURVE",
"98 204 CURVE SMOOTH",
"98 184 OFFCURVE",
"86 168 OFFCURVE",
"69 160 CURVE",
"86 152 OFFCURVE",
"98 136 OFFCURVE",
"98 116 CURVE SMOOTH",
"98 96 OFFCURVE",
"86 79 OFFCURVE",
"69 71 CURVE",
"76 68 OFFCURVE",
"81 64 OFFCURVE",
"86 58 CURVE",
"95 69 OFFCURVE",
"109 76 OFFCURVE",
"124 76 CURVE SMOOTH",
"139 76 OFFCURVE",
"152 69 OFFCURVE",
"161 58 CURVE",
"170 69 OFFCURVE",
"184 76 OFFCURVE",
"199 76 CURVE SMOOTH",
"214 76 OFFCURVE",
"227 69 OFFCURVE",
"236 58 CURVE",
"245 69 OFFCURVE",
"259 76 OFFCURVE",
"274 76 CURVE SMOOTH",
"289 76 OFFCURVE",
"302 69 OFFCURVE",
"311 58 CURVE",
"320 69 OFFCURVE",
"334 76 OFFCURVE",
"349 76 CURVE SMOOTH",
"376 76 OFFCURVE",
"398 54 OFFCURVE",
"398 27 CURVE SMOOTH",
"398 0 OFFCURVE",
"376 -22 OFFCURVE",
"349 -22 CURVE SMOOTH",
"334 -22 OFFCURVE",
"320 -16 OFFCURVE",
"311 -5 CURVE",
"302 -16 OFFCURVE",
"289 -22 OFFCURVE",
"274 -22 CURVE SMOOTH",
"259 -22 OFFCURVE",
"245 -16 OFFCURVE",
"236 -5 CURVE",
"227 -16 OFFCURVE",
"214 -22 OFFCURVE",
"199 -22 CURVE SMOOTH",
"184 -22 OFFCURVE",
"170 -16 OFFCURVE",
"161 -5 CURVE",
"152 -16 OFFCURVE",
"139 -22 OFFCURVE",
"124 -22 CURVE SMOOTH",
"109 -22 OFFCURVE",
"95 -16 OFFCURVE",
"86 -5 CURVE",
"77 -16 OFFCURVE",
"64 -22 OFFCURVE",
"49 -22 CURVE SMOOTH",
"22 -22 OFFCURVE",
"0 0 OFFCURVE",
"0 27 CURVE SMOOTH",
"0 47 OFFCURVE",
"12 63 OFFCURVE",
"29 71 CURVE",
"12 79 OFFCURVE",
"0 96 OFFCURVE",
"0 116 CURVE SMOOTH",
"0 136 OFFCURVE",
"12 152 OFFCURVE",
"29 160 CURVE",
"12 168 OFFCURVE",
"0 184 OFFCURVE",
"0 204 CURVE SMOOTH",
"0 224 OFFCURVE",
"12 241 OFFCURVE",
"29 249 CURVE",
"12 257 OFFCURVE",
"0 273 OFFCURVE",
"0 293 CURVE SMOOTH",
"0 313 OFFCURVE",
"12 330 OFFCURVE",
"29 338 CURVE",
"12 346 OFFCURVE",
"0 362 OFFCURVE",
"0 382 CURVE SMOOTH",
"0 402 OFFCURVE",
"12 419 OFFCURVE",
"29 427 CURVE",
"12 435 OFFCURVE",
"0 451 OFFCURVE",
"0 471 CURVE SMOOTH",
"0 491 OFFCURVE",
"12 508 OFFCURVE",
"29 516 CURVE",
"12 524 OFFCURVE",
"0 540 OFFCURVE",
"0 560 CURVE SMOOTH",
"0 587 OFFCURVE",
"22 609 OFFCURVE",
"49 609 CURVE SMOOTH",
"76 609 OFFCURVE",
"98 587 OFFCURVE"
);
}
);
width = 450;
}
);
unicode = 004C;
userData = {
com.fontlab.hintData = {
hhints = (
{
position = -22;
width = 98;
},
{
position = 589;
width = 20;
}
);
vhints = (
{
position = 0;
width = 98;
}
);
};
};
},
{
glyphname = M;
lastChange = "2017-08-06 04:45:23 +0000";
layers = (
{
layerId = "50D14539-243D-4DFB-80D4-A58473C3BD4B";
paths = (
{
closed = 1;
nodes = (
"98 560 CURVE SMOOTH",
"98 540 OFFCURVE",
"86 524 OFFCURVE",
"69 516 CURVE",
"76 513 OFFCURVE",
"81 508 OFFCURVE",
"86 502 CURVE",
"95 513 OFFCURVE",
"109 520 OFFCURVE",
"124 520 CURVE SMOOTH",
"151 520 OFFCURVE",
"173 498 OFFCURVE",
"173 471 CURVE SMOOTH",
"173 454 OFFCURVE",
"164 439 OFFCURVE",
"150 430 CURVE",
"154 431 OFFCURVE",
"157 431 OFFCURVE",
"161 431 CURVE SMOOTH",
"176 431 OFFCURVE",
"190 425 OFFCURVE",
"199 414 CURVE",
"208 425 OFFCURVE",
"221 431 OFFCURVE",
"236 431 CURVE SMOOTH",
"240 431 OFFCURVE",
"244 431 OFFCURVE",
"248 430 CURVE",
"234 439 OFFCURVE",
"225 454 OFFCURVE",
"225 471 CURVE SMOOTH",
"225 498 OFFCURVE",
"247 520 OFFCURVE",
"274 520 CURVE SMOOTH",
"289 520 OFFCURVE",
"302 513 OFFCURVE",
"311 502 CURVE",
"316 508 OFFCURVE",
"322 513 OFFCURVE",
"329 516 CURVE",
"312 524 OFFCURVE",
"300 540 OFFCURVE",
"300 560 CURVE SMOOTH",
"300 587 OFFCURVE",
"322 609 OFFCURVE",
"349 609 CURVE SMOOTH",
"376 609 OFFCURVE",
"398 587 OFFCURVE",
"398 560 CURVE SMOOTH",
"398 540 OFFCURVE",
"386 524 OFFCURVE",
"369 516 CURVE",
"386 508 OFFCURVE",
"398 491 OFFCURVE",
"398 471 CURVE SMOOTH",
"398 451 OFFCURVE",
"386 435 OFFCURVE",
"369 427 CURVE",
"386 419 OFFCURVE",
"398 402 OFFCURVE",
"398 382 CURVE SMOOTH",
"398 362 OFFCURVE",
"386 346 OFFCURVE",
"369 338 CURVE",
"386 330 OFFCURVE",
"398 313 OFFCURVE",
"398 293 CURVE SMOOTH",
"398 273 OFFCURVE",
"386 257 OFFCURVE",
"369 249 CURVE",
"386 241 OFFCURVE",
"398 224 OFFCURVE",
"398 204 CURVE SMOOTH",
"398 184 OFFCURVE",
"386 168 OFFCURVE",
"369 160 CURVE",
"386 152 OFFCURVE",
"398 136 OFFCURVE",
"398 116 CURVE SMOOTH",
"398 96 OFFCURVE",
"386 79 OFFCURVE",
"369 71 CURVE",
"386 63 OFFCURVE",
"398 47 OFFCURVE",
"398 27 CURVE SMOOTH",
"398 0 OFFCURVE",
"376 -22 OFFCURVE",
"349 -22 CURVE SMOOTH",
"322 -22 OFFCURVE",
"300 0 OFFCURVE",
"300 27 CURVE SMOOTH",
"300 47 OFFCURVE",
"312 63 OFFCURVE",
"329 71 CURVE",
"312 79 OFFCURVE",
"300 96 OFFCURVE",
"300 116 CURVE SMOOTH",
"300 136 OFFCURVE",
"312 152 OFFCURVE",
"329 160 CURVE",
"312 168 OFFCURVE",
"300 184 OFFCURVE",
"300 204 CURVE SMOOTH",
"300 224 OFFCURVE",
"312 241 OFFCURVE",
"329 249 CURVE",
"312 257 OFFCURVE",
"300 273 OFFCURVE",
"300 293 CURVE SMOOTH",
"300 313 OFFCURVE",
"312 330 OFFCURVE",
"329 338 CURVE",
"312 346 OFFCURVE",
"300 362 OFFCURVE",
"300 382 CURVE SMOOTH",
"300 402 OFFCURVE",
"312 419 OFFCURVE",
"329 427 CURVE",
"322 430 OFFCURVE",
"316 434 OFFCURVE",
"311 440 CURVE",
"302 429 OFFCURVE",
"289 422 OFFCURVE",
"274 422 CURVE SMOOTH",
"270 422 OFFCURVE",
"266 423 OFFCURVE",
"262 424 CURVE",
"276 415 OFFCURVE",
"285 399 OFFCURVE",
"285 382 CURVE SMOOTH",
"285 355 OFFCURVE",
"263 333 OFFCURVE",
"236 333 CURVE SMOOTH",
"232 333 OFFCURVE",
"229 334 OFFCURVE",
"225 335 CURVE",
"239 326 OFFCURVE",
"248 310 OFFCURVE",
"248 293 CURVE SMOOTH",
"248 266 OFFCURVE",
"226 244 OFFCURVE",
"199 244 CURVE SMOOTH",
"172 244 OFFCURVE",
"150 266 OFFCURVE",
"150 293 CURVE SMOOTH",
"150 310 OFFCURVE",
"159 326 OFFCURVE",
"173 335 CURVE",
"169 334 OFFCURVE",
"165 333 OFFCURVE",
"161 333 CURVE SMOOTH",
"134 333 OFFCURVE",
"112 355 OFFCURVE",
"112 382 CURVE SMOOTH",
"112 399 OFFCURVE",
"121 415 OFFCURVE",
"135 424 CURVE",
"131 423 OFFCURVE",
"128 422 OFFCURVE",
"124 422 CURVE SMOOTH",
"109 422 OFFCURVE",
"95 429 OFFCURVE",
"86 440 CURVE",
"81 434 OFFCURVE",
"76 430 OFFCURVE",
"69 427 CURVE",
"86 419 OFFCURVE",
"98 402 OFFCURVE",
"98 382 CURVE SMOOTH",
"98 362 OFFCURVE",
"86 346 OFFCURVE",
"69 338 CURVE",
"86 330 OFFCURVE",
"98 313 OFFCURVE",
"98 293 CURVE SMOOTH",
"98 273 OFFCURVE",
"86 257 OFFCURVE",
"69 249 CURVE",
"86 241 OFFCURVE",
"98 224 OFFCURVE",
"98 204 CURVE SMOOTH",
"98 184 OFFCURVE",
"86 168 OFFCURVE",
"69 160 CURVE",
"86 152 OFFCURVE",
"98 136 OFFCURVE",
"98 116 CURVE SMOOTH",
"98 96 OFFCURVE",
"86 79 OFFCURVE",
"69 71 CURVE",
"86 63 OFFCURVE",
"98 47 OFFCURVE",
"98 27 CURVE SMOOTH",
"98 0 OFFCURVE",
"76 -22 OFFCURVE",
"49 -22 CURVE SMOOTH",
"22 -22 OFFCURVE",
"0 0 OFFCURVE",
"0 27 CURVE SMOOTH",
"0 47 OFFCURVE",
"12 63 OFFCURVE",
"29 71 CURVE",
"12 79 OFFCURVE",
"0 96 OFFCURVE",
"0 116 CURVE SMOOTH",
"0 136 OFFCURVE",
"12 152 OFFCURVE",
"29 160 CURVE",
"12 168 OFFCURVE",
"0 184 OFFCURVE",
"0 204 CURVE SMOOTH",
"0 224 OFFCURVE",
"12 241 OFFCURVE",
"29 249 CURVE",
"12 257 OFFCURVE",
"0 273 OFFCURVE",
"0 293 CURVE SMOOTH",
"0 313 OFFCURVE",
"12 330 OFFCURVE",
"29 338 CURVE",
"12 346 OFFCURVE",
"0 362 OFFCURVE",
"0 382 CURVE SMOOTH",
"0 402 OFFCURVE",
"12 419 OFFCURVE",
"29 427 CURVE",
"12 435 OFFCURVE",
"0 451 OFFCURVE",
"0 471 CURVE SMOOTH",
"0 491 OFFCURVE",
"12 508 OFFCURVE",
"29 516 CURVE",
"12 524 OFFCURVE",
"0 540 OFFCURVE",
"0 560 CURVE SMOOTH",
"0 587 OFFCURVE",
"22 609 OFFCURVE",
"49 609 CURVE SMOOTH",
"76 609 OFFCURVE",
"98 587 OFFCURVE"
);
},
{
closed = 1;
nodes = (
"199 351 CURVE",
"196 347 OFFCURVE",
"191 344 OFFCURVE",
"187 341 CURVE",
"191 342 OFFCURVE",
"195 342 OFFCURVE",
"199 342 CURVE SMOOTH",
"203 342 OFFCURVE",
"206 342 OFFCURVE",
"210 341 CURVE",
"206 344 OFFCURVE",
"202 347 OFFCURVE"
);
}
);
width = 450;
}
);
unicode = 004D;
userData = {
com.fontlab.hintData = {
hhints = (
{
position = -22;
width = 21;
},
{
position = -22;
width = 21;
},
{
position = 333;
width = 98;
},
{
position = 422;
width = 98;
},
{
position = 589;
width = 20;
}
);
vhints = (
{
position = 0;
width = 98;
},
{
position = 112;
width = 173;
},
{
position = 150;
width = 98;
},
{
position = 300;
width = 98;
}
);
};
};
},
{
glyphname = N;
lastChange = "2017-08-06 04:45:23 +0000";
layers = (
{
layerId = "50D14539-243D-4DFB-80D4-A58473C3BD4B";
paths = (
{
closed = 1;
nodes = (
"98 560 CURVE SMOOTH",
"98 540 OFFCURVE",
"86 524 OFFCURVE",
"69 516 CURVE",
"76 513 OFFCURVE",
"81 508 OFFCURVE",
"86 502 CURVE",
"95 513 OFFCURVE",
"109 520 OFFCURVE",
"124 520 CURVE SMOOTH",
"151 520 OFFCURVE",
"173 498 OFFCURVE",
"173 471 CURVE SMOOTH",
"173 454 OFFCURVE",
"164 439 OFFCURVE",
"150 430 CURVE",
"154 431 OFFCURVE",
"157 431 OFFCURVE",
"161 431 CURVE SMOOTH",
"188 431 OFFCURVE",
"210 409 OFFCURVE",
"210 382 CURVE SMOOTH",
"210 365 OFFCURVE",
"201 350 OFFCURVE",
"187 341 CURVE",
"191 342 OFFCURVE",
"195 342 OFFCURVE",
"199 342 CURVE SMOOTH",
"226 342 OFFCURVE",
"248 320 OFFCURVE",
"248 293 CURVE SMOOTH",
"248 276 OFFCURVE",
"239 261 OFFCURVE",
"225 252 CURVE",
"229 253 OFFCURVE",
"232 253 OFFCURVE",
"236 253 CURVE SMOOTH",
"263 253 OFFCURVE",
"285 231 OFFCURVE",
"285 204 CURVE SMOOTH",
"285 187 OFFCURVE",
"276 172 OFFCURVE",
"262 163 CURVE",
"266 164 OFFCURVE",
"270 164 OFFCURVE",
"274 164 CURVE SMOOTH",
"289 164 OFFCURVE",
"302 158 OFFCURVE",
"311 147 CURVE",
"316 153 OFFCURVE",
"322 157 OFFCURVE",
"329 160 CURVE",
"312 168 OFFCURVE",
"300 184 OFFCURVE",
"300 204 CURVE SMOOTH",
"300 224 OFFCURVE",
"312 241 OFFCURVE",
"329 249 CURVE",
"312 257 OFFCURVE",
"300 273 OFFCURVE",
"300 293 CURVE SMOOTH",
"300 313 OFFCURVE",
"312 330 OFFCURVE",
"329 338 CURVE",
"312 346 OFFCURVE",
"300 362 OFFCURVE",
"300 382 CURVE SMOOTH",
"300 402 OFFCURVE",
"312 419 OFFCURVE",
"329 427 CURVE",
"312 435 OFFCURVE",
"300 451 OFFCURVE",
"300 471 CURVE SMOOTH",
"300 491 OFFCURVE",
"312 508 OFFCURVE",
"329 516 CURVE",
"312 524 OFFCURVE",
"300 540 OFFCURVE",
"300 560 CURVE SMOOTH",
"300 587 OFFCURVE",
"322 609 OFFCURVE",
"349 609 CURVE SMOOTH",
"376 609 OFFCURVE",
"398 587 OFFCURVE",
"398 560 CURVE SMOOTH",
"398 540 OFFCURVE",
"386 524 OFFCURVE",
"369 516 CURVE",
"386 508 OFFCURVE",
"398 491 OFFCURVE",
"398 471 CURVE SMOOTH",
"398 451 OFFCURVE",
"386 435 OFFCURVE",
"369 427 CURVE",
"386 419 OFFCURVE",
"398 402 OFFCURVE",
"398 382 CURVE SMOOTH",
"398 362 OFFCURVE",
"386 346 OFFCURVE",
"369 338 CURVE",
"386 330 OFFCURVE",
"398 313 OFFCURVE",
"398 293 CURVE SMOOTH",
"398 273 OFFCURVE",
"386 257 OFFCURVE",
"369 249 CURVE",
"386 241 OFFCURVE",
"398 224 OFFCURVE",
"398 204 CURVE SMOOTH",
"398 184 OFFCURVE",
"386 168 OFFCURVE",
"369 160 CURVE",
"386 152 OFFCURVE",
"398 136 OFFCURVE",
"398 116 CURVE SMOOTH",
"398 96 OFFCURVE",
"386 79 OFFCURVE",
"369 71 CURVE",
"386 63 OFFCURVE",
"398 47 OFFCURVE",
"398 27 CURVE SMOOTH",
"398 0 OFFCURVE",
"376 -22 OFFCURVE",
"349 -22 CURVE SMOOTH",
"322 -22 OFFCURVE",
"300 0 OFFCURVE",
"300 27 CURVE SMOOTH",
"300 47 OFFCURVE",
"312 63 OFFCURVE",
"329 71 CURVE",
"322 74 OFFCURVE",
"316 78 OFFCURVE",
"311 84 CURVE",
"302 73 OFFCURVE",
"289 67 OFFCURVE",
"274 67 CURVE SMOOTH",
"247 67 OFFCURVE",
"225 89 OFFCURVE",
"225 116 CURVE SMOOTH",
"225 133 OFFCURVE",
"234 148 OFFCURVE",
"248 157 CURVE",
"244 156 OFFCURVE",
"240 156 OFFCURVE",
"236 156 CURVE SMOOTH",
"209 156 OFFCURVE",
"188 177 OFFCURVE",
"188 204 CURVE SMOOTH",
"188 221 OFFCURVE",
"196 237 OFFCURVE",
"210 246 CURVE",
"206 245 OFFCURVE",
"203 244 OFFCURVE",
"199 244 CURVE SMOOTH",
"172 244 OFFCURVE",
"150 266 OFFCURVE",
"150 293 CURVE SMOOTH",
"150 310 OFFCURVE",
"159 326 OFFCURVE",
"173 335 CURVE",
"169 334 OFFCURVE",
"165 333 OFFCURVE",
"161 333 CURVE SMOOTH",
"134 333 OFFCURVE",
"112 355 OFFCURVE",
"112 382 CURVE SMOOTH",
"112 399 OFFCURVE",
"121 415 OFFCURVE",
"135 424 CURVE",
"131 423 OFFCURVE",
"128 422 OFFCURVE",
"124 422 CURVE SMOOTH",
"109 422 OFFCURVE",
"95 429 OFFCURVE",
"86 440 CURVE",
"81 434 OFFCURVE",
"76 430 OFFCURVE",
"69 427 CURVE",
"86 419 OFFCURVE",
"98 402 OFFCURVE",
"98 382 CURVE SMOOTH",
"98 362 OFFCURVE",
"86 346 OFFCURVE",
"69 338 CURVE",
"86 330 OFFCURVE",
"98 313 OFFCURVE",
"98 293 CURVE SMOOTH",
"98 273 OFFCURVE",
"86 257 OFFCURVE",
"69 249 CURVE",
"86 241 OFFCURVE",
"98 224 OFFCURVE",
"98 204 CURVE SMOOTH",
"98 184 OFFCURVE",
"86 168 OFFCURVE",
"69 160 CURVE",
"86 152 OFFCURVE",
"98 136 OFFCURVE",
"98 116 CURVE SMOOTH",
"98 96 OFFCURVE",
"86 79 OFFCURVE",
"69 71 CURVE",
"86 63 OFFCURVE",
"98 47 OFFCURVE",
"98 27 CURVE SMOOTH",
"98 0 OFFCURVE",
"76 -22 OFFCURVE",
"49 -22 CURVE SMOOTH",
"22 -22 OFFCURVE",
"0 0 OFFCURVE",
"0 27 CURVE SMOOTH",
"0 47 OFFCURVE",
"12 63 OFFCURVE",
"29 71 CURVE",
"12 79 OFFCURVE",
"0 96 OFFCURVE",
"0 116 CURVE SMOOTH",
"0 136 OFFCURVE",
"12 152 OFFCURVE",
"29 160 CURVE",
"12 168 OFFCURVE",
"0 184 OFFCURVE",
"0 204 CURVE SMOOTH",
"0 224 OFFCURVE",
"12 241 OFFCURVE",
"29 249 CURVE",
"12 257 OFFCURVE",
"0 273 OFFCURVE",
"0 293 CURVE SMOOTH",
"0 313 OFFCURVE",
"12 330 OFFCURVE",
"29 338 CURVE",
"12 346 OFFCURVE",
"0 362 OFFCURVE",
"0 382 CURVE SMOOTH",
"0 402 OFFCURVE",
"12 419 OFFCURVE",
"29 427 CURVE",
"12 435 OFFCURVE",
"0 451 OFFCURVE",
"0 471 CURVE SMOOTH",
"0 491 OFFCURVE",
"12 508 OFFCURVE",
"29 516 CURVE",
"12 524 OFFCURVE",
"0 540 OFFCURVE",
"0 560 CURVE SMOOTH",
"0 587 OFFCURVE",
"22 609 OFFCURVE",
"49 609 CURVE SMOOTH",
"76 609 OFFCURVE",
"98 587 OFFCURVE"
);
}
);
width = 450;
}
);
unicode = 004E;
userData = {
com.fontlab.hintData = {
hhints = (
{
position = -22;
width = 21;
},
{
position = -22;
width = 21;
},
{
position = 67;
width = 97;
},
{
position = 411;
width = 20;
},
{
position = 422;
width = 98;
},
{
position = 589;
width = 20;
}
);
vhints = (
{
position = 0;
width = 98;
},
{
position = 112;
width = 98;
},
{
position = 150;
width = 98;
},
{
position = 188;
width = 97;
},
{
position = 300;
width = 98;
}
);
};
};
},
{
glyphname = O;
lastChange = "2017-08-06 04:45:23 +0000";
layers = (
{
layerId = "50D14539-243D-4DFB-80D4-A58473C3BD4B";
paths = (
{
closed = 1;
nodes = (
"360 560 CURVE SMOOTH",
"360 543 OFFCURVE",
"351 528 OFFCURVE",
"337 519 CURVE",
"341 520 OFFCURVE",
"345 520 OFFCURVE",
"349 520 CURVE SMOOTH",
"376 520 OFFCURVE",
"398 498 OFFCURVE",
"398 471 CURVE SMOOTH",
"398 451 OFFCURVE",
"386 435 OFFCURVE",
"369 427 CURVE",
"386 419 OFFCURVE",
"398 402 OFFCURVE",
"398 382 CURVE SMOOTH",
"398 362 OFFCURVE",
"386 346 OFFCURVE",
"369 338 CURVE",
"386 330 OFFCURVE",
"398 313 OFFCURVE",
"398 293 CURVE SMOOTH",
"398 273 OFFCURVE",
"386 257 OFFCURVE",
"369 249 CURVE",
"386 241 OFFCURVE",
"398 224 OFFCURVE",
"398 204 CURVE SMOOTH",
"398 184 OFFCURVE",
"386 168 OFFCURVE",
"369 160 CURVE",
"386 152 OFFCURVE",
"398 136 OFFCURVE",
"398 116 CURVE SMOOTH",
"398 89 OFFCURVE",
"376 67 OFFCURVE",
"349 67 CURVE SMOOTH",
"345 67 OFFCURVE",
"341 67 OFFCURVE",
"337 68 CURVE",
"351 59 OFFCURVE",
"360 44 OFFCURVE",
"360 27 CURVE SMOOTH",
"360 0 OFFCURVE",
"338 -22 OFFCURVE",
"311 -22 CURVE SMOOTH",
"296 -22 OFFCURVE",
"283 -16 OFFCURVE",
"274 -5 CURVE",
"265 -16 OFFCURVE",
"251 -22 OFFCURVE",
"236 -22 CURVE SMOOTH",
"221 -22 OFFCURVE",
"208 -16 OFFCURVE",
"199 -5 CURVE",
"190 -16 OFFCURVE",
"176 -22 OFFCURVE",
"161 -22 CURVE SMOOTH",
"146 -22 OFFCURVE",
"133 -16 OFFCURVE",
"124 -5 CURVE",
"115 -16 OFFCURVE",
"101 -22 OFFCURVE",
"86 -22 CURVE SMOOTH",
"59 -22 OFFCURVE",
"37 0 OFFCURVE",
"37 27 CURVE SMOOTH",
"37 44 OFFCURVE",
"46 59 OFFCURVE",
"60 68 CURVE",
"56 67 OFFCURVE",
"53 67 OFFCURVE",
"49 67 CURVE SMOOTH",
"22 67 OFFCURVE",
"0 89 OFFCURVE",
"0 116 CURVE SMOOTH",
"0 136 OFFCURVE",
"12 152 OFFCURVE",
"29 160 CURVE",
"12 168 OFFCURVE",
"0 184 OFFCURVE",
"0 204 CURVE SMOOTH",
"0 224 OFFCURVE",
"12 241 OFFCURVE",
"29 249 CURVE",
"12 257 OFFCURVE",
"0 273 OFFCURVE",
"0 293 CURVE SMOOTH",
"0 313 OFFCURVE",
"12 330 OFFCURVE",
"29 338 CURVE",
"12 346 OFFCURVE",
"0 362 OFFCURVE",
"0 382 CURVE SMOOTH",
"0 402 OFFCURVE",
"12 419 OFFCURVE",
"29 427 CURVE",
"12 435 OFFCURVE",
"0 451 OFFCURVE",
"0 471 CURVE SMOOTH",
"0 498 OFFCURVE",
"22 520 OFFCURVE",
"49 520 CURVE SMOOTH",
"53 520 OFFCURVE",
"56 520 OFFCURVE",
"60 519 CURVE",
"46 528 OFFCURVE",
"37 543 OFFCURVE",
"37 560 CURVE SMOOTH",
"37 587 OFFCURVE",
"59 609 OFFCURVE",
"86 609 CURVE SMOOTH",
"101 609 OFFCURVE",
"115 602 OFFCURVE",
"124 591 CURVE",
"133 602 OFFCURVE",
"146 609 OFFCURVE",
"161 609 CURVE SMOOTH",
"176 609 OFFCURVE",
"190 602 OFFCURVE",
"199 591 CURVE",
"208 602 OFFCURVE",
"221 609 OFFCURVE",
"236 609 CURVE SMOOTH",
"251 609 OFFCURVE",
"265 602 OFFCURVE",
"274 591 CURVE",
"283 602 OFFCURVE",
"296 609 OFFCURVE",
"311 609 CURVE SMOOTH",
"338 609 OFFCURVE",
"360 587 OFFCURVE"
);
},
{
closed = 1;
nodes = (
"124 529 CURVE",
"115 518 OFFCURVE",
"101 511 OFFCURVE",
"86 511 CURVE SMOOTH",
"82 511 OFFCURVE",
"79 511 OFFCURVE",
"75 512 CURVE",
"89 503 OFFCURVE",
"98 488 OFFCURVE",
"98 471 CURVE SMOOTH",
"98 451 OFFCURVE",
"86 435 OFFCURVE",
"69 427 CURVE",
"86 419 OFFCURVE",
"98 402 OFFCURVE",
"98 382 CURVE SMOOTH",
"98 362 OFFCURVE",
"86 346 OFFCURVE",
"69 338 CURVE",
"86 330 OFFCURVE",
"98 313 OFFCURVE",
"98 293 CURVE SMOOTH",
"98 273 OFFCURVE",
"86 257 OFFCURVE",
"69 249 CURVE",
"86 241 OFFCURVE",
"98 224 OFFCURVE",
"98 204 CURVE SMOOTH",
"98 184 OFFCURVE",
"86 168 OFFCURVE",
"69 160 CURVE",
"86 152 OFFCURVE",
"98 136 OFFCURVE",
"98 116 CURVE SMOOTH",
"98 99 OFFCURVE",
"89 83 OFFCURVE",
"75 74 CURVE",
"79 75 OFFCURVE",
"82 76 OFFCURVE",
"86 76 CURVE SMOOTH",
"101 76 OFFCURVE",
"115 69 OFFCURVE",
"124 58 CURVE",
"133 69 OFFCURVE",
"146 76 OFFCURVE",
"161 76 CURVE SMOOTH",
"176 76 OFFCURVE",
"190 69 OFFCURVE",
"199 58 CURVE",
"208 69 OFFCURVE",
"221 76 OFFCURVE",
"236 76 CURVE SMOOTH",
"251 76 OFFCURVE",
"265 69 OFFCURVE",
"274 58 CURVE",
"283 69 OFFCURVE",
"296 76 OFFCURVE",
"311 76 CURVE SMOOTH",
"315 76 OFFCURVE",
"319 75 OFFCURVE",
"323 74 CURVE",
"309 83 OFFCURVE",
"300 99 OFFCURVE",
"300 116 CURVE SMOOTH",
"300 136 OFFCURVE",
"312 152 OFFCURVE",
"329 160 CURVE",
"312 168 OFFCURVE",
"300 184 OFFCURVE",
"300 204 CURVE SMOOTH",
"300 224 OFFCURVE",
"312 241 OFFCURVE",
"329 249 CURVE",
"312 257 OFFCURVE",
"300 273 OFFCURVE",
"300 293 CURVE SMOOTH",
"300 313 OFFCURVE",
"312 330 OFFCURVE",
"329 338 CURVE",
"312 346 OFFCURVE",
"300 362 OFFCURVE",
"300 382 CURVE SMOOTH",
"300 402 OFFCURVE",
"312 419 OFFCURVE",
"329 427 CURVE",
"312 435 OFFCURVE",
"300 451 OFFCURVE",
"300 471 CURVE SMOOTH",
"300 488 OFFCURVE",
"309 503 OFFCURVE",
"323 512 CURVE",
"319 511 OFFCURVE",
"315 511 OFFCURVE",
"311 511 CURVE SMOOTH",
"296 511 OFFCURVE",
"283 518 OFFCURVE",
"274 529 CURVE",
"265 518 OFFCURVE",
"251 511 OFFCURVE",
"236 511 CURVE SMOOTH",
"221 511 OFFCURVE",
"208 518 OFFCURVE",
"199 529 CURVE",
"190 518 OFFCURVE",
"176 511 OFFCURVE",
"161 511 CURVE SMOOTH",
"146 511 OFFCURVE",
"133 518 OFFCURVE"
);
}
);
width = 450;
}
);
unicode = 004F;
userData = {
com.fontlab.hintData = {
hhints = (
{
position = -22;
width = 98;
},
{
position = 511;
width = 98;
}
);
vhints = (
{
position = 0;
width = 98;
},
{
position = 300;
width = 98;
}
);
};
};
},
{
glyphname = P;
lastChange = "2017-08-06 04:45:23 +0000";
layers = (
{
layerId = "50D14539-243D-4DFB-80D4-A58473C3BD4B";
paths = (
{
closed = 1;
nodes = (
"323 560 CURVE SMOOTH",
"323 533 OFFCURVE",
"301 511 OFFCURVE",
"274 511 CURVE SMOOTH",
"259 511 OFFCURVE",
"245 518 OFFCURVE",
"236 529 CURVE",
"227 518 OFFCURVE",
"214 511 OFFCURVE",
"199 511 CURVE SMOOTH",
"184 511 OFFCURVE",
"170 518 OFFCURVE",
"161 529 CURVE",
"152 518 OFFCURVE",
"139 511 OFFCURVE",
"124 511 CURVE SMOOTH",
"109 511 OFFCURVE",
"95 518 OFFCURVE",
"86 529 CURVE",
"81 523 OFFCURVE",
"76 519 OFFCURVE",
"69 516 CURVE",
"86 508 OFFCURVE",
"98 491 OFFCURVE",
"98 471 CURVE SMOOTH",
"98 451 OFFCURVE",
"86 435 OFFCURVE",
"69 427 CURVE",
"86 419 OFFCURVE",
"98 402 OFFCURVE",
"98 382 CURVE SMOOTH",
"98 362 OFFCURVE",
"86 346 OFFCURVE",
"69 338 CURVE",
"76 335 OFFCURVE",
"81 331 OFFCURVE",
"86 325 CURVE",
"95 336 OFFCURVE",
"109 342 OFFCURVE",
"124 342 CURVE SMOOTH",
"139 342 OFFCURVE",
"152 336 OFFCURVE",
"161 325 CURVE",
"170 336 OFFCURVE",
"184 342 OFFCURVE",
"199 342 CURVE SMOOTH",
"214 342 OFFCURVE",
"227 336 OFFCURVE",
"236 325 CURVE",
"245 336 OFFCURVE",
"259 342 OFFCURVE",
"274 342 CURVE SMOOTH",
"301 342 OFFCURVE",
"323 320 OFFCURVE",
"323 293 CURVE SMOOTH",
"323 266 OFFCURVE",
"301 244 OFFCURVE",
"274 244 CURVE SMOOTH",
"259 244 OFFCURVE",
"245 251 OFFCURVE",
"236 262 CURVE",
"227 251 OFFCURVE",
"214 244 OFFCURVE",
"199 244 CURVE SMOOTH",
"184 244 OFFCURVE",
"170 251 OFFCURVE",
"161 262 CURVE",
"152 251 OFFCURVE",
"139 244 OFFCURVE",
"124 244 CURVE SMOOTH",
"109 244 OFFCURVE",
"95 251 OFFCURVE",
"86 262 CURVE",
"81 256 OFFCURVE",
"76 252 OFFCURVE",
"69 249 CURVE",
"86 241 OFFCURVE",
"98 224 OFFCURVE",
"98 204 CURVE SMOOTH",
"98 184 OFFCURVE",
"86 168 OFFCURVE",
"69 160 CURVE",
"86 152 OFFCURVE",
"98 136 OFFCURVE",
"98 116 CURVE SMOOTH",
"98 96 OFFCURVE",
"86 79 OFFCURVE",
"69 71 CURVE",
"86 63 OFFCURVE",
"98 47 OFFCURVE",
"98 27 CURVE SMOOTH",
"98 0 OFFCURVE",
"76 -22 OFFCURVE",
"49 -22 CURVE SMOOTH",
"22 -22 OFFCURVE",
"0 0 OFFCURVE",
"0 27 CURVE SMOOTH",
"0 47 OFFCURVE",
"12 63 OFFCURVE",
"29 71 CURVE",
"12 79 OFFCURVE",
"0 96 OFFCURVE",
"0 116 CURVE SMOOTH",
"0 136 OFFCURVE",
"12 152 OFFCURVE",
"29 160 CURVE",
"12 168 OFFCURVE",
"0 184 OFFCURVE",
"0 204 CURVE SMOOTH",
"0 224 OFFCURVE",
"12 241 OFFCURVE",
"29 249 CURVE",
"12 257 OFFCURVE",
"0 273 OFFCURVE",
"0 293 CURVE SMOOTH",
"0 313 OFFCURVE",
"12 330 OFFCURVE",
"29 338 CURVE",
"12 346 OFFCURVE",
"0 362 OFFCURVE",
"0 382 CURVE SMOOTH",
"0 402 OFFCURVE",
"12 419 OFFCURVE",
"29 427 CURVE",
"12 435 OFFCURVE",
"0 451 OFFCURVE",
"0 471 CURVE SMOOTH",
"0 491 OFFCURVE",
"12 508 OFFCURVE",
"29 516 CURVE",
"12 524 OFFCURVE",
"0 540 OFFCURVE",
"0 560 CURVE SMOOTH",
"0 587 OFFCURVE",
"22 609 OFFCURVE",
"49 609 CURVE SMOOTH",
"64 609 OFFCURVE",
"77 602 OFFCURVE",
"86 591 CURVE",
"95 602 OFFCURVE",
"109 609 OFFCURVE",
"124 609 CURVE SMOOTH",
"139 609 OFFCURVE",
"152 602 OFFCURVE",
"161 591 CURVE",
"170 602 OFFCURVE",
"184 609 OFFCURVE",
"199 609 CURVE SMOOTH",
"214 609 OFFCURVE",
"227 602 OFFCURVE",
"236 591 CURVE",
"245 602 OFFCURVE",
"259 609 OFFCURVE",
"274 609 CURVE SMOOTH",
"301 609 OFFCURVE",
"323 587 OFFCURVE"
);
},
{
closed = 1;
nodes = (
"398 471 CURVE SMOOTH",
"398 451 OFFCURVE",
"386 435 OFFCURVE",
"369 427 CURVE",
"386 419 OFFCURVE",
"398 402 OFFCURVE",
"398 382 CURVE SMOOTH",
"398 355 OFFCURVE",
"376 333 OFFCURVE",
"349 333 CURVE SMOOTH",
"322 333 OFFCURVE",
"300 355 OFFCURVE",
"300 382 CURVE SMOOTH",
"300 402 OFFCURVE",
"312 419 OFFCURVE",
"329 427 CURVE",
"312 435 OFFCURVE",
"300 451 OFFCURVE",
"300 471 CURVE SMOOTH",
"300 498 OFFCURVE",
"322 520 OFFCURVE",
"349 520 CURVE SMOOTH",
"376 520 OFFCURVE",
"398 498 OFFCURVE"
);
}
);
width = 450;
}
);
unicode = 0050;
userData = {
com.fontlab.hintData = {
hhints = (
{
position = -22;
width = 21;
},
{
position = -22;
width = 21;
},
{
position = 244;
width = 98;
},
{
position = 511;
width = 98;
}
);
vhints = (
{
position = 0;
width = 98;
},
{
position = 300;
width = 98;
}
);
};
};
},
{
glyphname = Q;
lastChange = "2017-08-06 04:45:23 +0000";
layers = (
{
layerId = "50D14539-243D-4DFB-80D4-A58473C3BD4B";
paths = (
{
closed = 1;
nodes = (
"360 560 CURVE SMOOTH",
"360 543 OFFCURVE",
"351 528 OFFCURVE",
"337 519 CURVE",
"341 520 OFFCURVE",
"345 520 OFFCURVE",
"349 520 CURVE SMOOTH",
"376 520 OFFCURVE",
"398 498 OFFCURVE",
"398 471 CURVE SMOOTH",
"398 451 OFFCURVE",
"386 435 OFFCURVE",
"369 427 CURVE",
"386 419 OFFCURVE",
"398 402 OFFCURVE",
"398 382 CURVE SMOOTH",
"398 362 OFFCURVE",
"386 346 OFFCURVE",
"369 338 CURVE",
"386 330 OFFCURVE",
"398 313 OFFCURVE",
"398 293 CURVE SMOOTH",
"398 273 OFFCURVE",
"386 257 OFFCURVE",
"369 249 CURVE",
"386 241 OFFCURVE",
"398 224 OFFCURVE",
"398 204 CURVE SMOOTH",
"398 177 OFFCURVE",
"376 156 OFFCURVE",
"349 156 CURVE SMOOTH",
"322 156 OFFCURVE",
"300 177 OFFCURVE",
"300 204 CURVE SMOOTH",
"300 224 OFFCURVE",
"312 241 OFFCURVE",
"329 249 CURVE",
"312 257 OFFCURVE",
"300 273 OFFCURVE",
"300 293 CURVE SMOOTH",
"300 313 OFFCURVE",
"312 330 OFFCURVE",
"329 338 CURVE",
"312 346 OFFCURVE",
"300 362 OFFCURVE",
"300 382 CURVE SMOOTH",
"300 402 OFFCURVE",
"312 419 OFFCURVE",
"329 427 CURVE",
"312 435 OFFCURVE",
"300 451 OFFCURVE",
"300 471 CURVE SMOOTH",
"300 488 OFFCURVE",
"309 503 OFFCURVE",
"323 512 CURVE",
"319 511 OFFCURVE",
"315 511 OFFCURVE",
"311 511 CURVE SMOOTH",
"296 511 OFFCURVE",
"283 518 OFFCURVE",
"274 529 CURVE",
"265 518 OFFCURVE",
"251 511 OFFCURVE",
"236 511 CURVE SMOOTH",
"221 511 OFFCURVE",
"208 518 OFFCURVE",
"199 529 CURVE",
"190 518 OFFCURVE",
"176 511 OFFCURVE",
"161 511 CURVE SMOOTH",
"146 511 OFFCURVE",
"133 518 OFFCURVE",
"124 529 CURVE",
"115 518 OFFCURVE",
"101 511 OFFCURVE",
"86 511 CURVE SMOOTH",
"82 511 OFFCURVE",
"79 511 OFFCURVE",
"75 512 CURVE",
"89 503 OFFCURVE",
"98 488 OFFCURVE",
"98 471 CURVE SMOOTH",
"98 451 OFFCURVE",
"86 435 OFFCURVE",
"69 427 CURVE",
"86 419 OFFCURVE",
"98 402 OFFCURVE",
"98 382 CURVE SMOOTH",
"98 362 OFFCURVE",
"86 346 OFFCURVE",
"69 338 CURVE",
"86 330 OFFCURVE",
"98 313 OFFCURVE",
"98 293 CURVE SMOOTH",
"98 273 OFFCURVE",
"86 257 OFFCURVE",
"69 249 CURVE",
"86 241 OFFCURVE",
"98 224 OFFCURVE",
"98 204 CURVE SMOOTH",
"98 184 OFFCURVE",
"86 168 OFFCURVE",
"69 160 CURVE",
"86 152 OFFCURVE",
"98 136 OFFCURVE",
"98 116 CURVE SMOOTH",
"98 99 OFFCURVE",
"89 83 OFFCURVE",
"75 74 CURVE",
"79 75 OFFCURVE",
"82 76 OFFCURVE",
"86 76 CURVE SMOOTH",
"101 76 OFFCURVE",
"115 69 OFFCURVE",
"124 58 CURVE",
"133 69 OFFCURVE",
"146 76 OFFCURVE",
"161 76 CURVE SMOOTH",
"176 76 OFFCURVE",
"190 69 OFFCURVE",
"199 58 CURVE",
"208 69 OFFCURVE",
"221 76 OFFCURVE",
"236 76 CURVE SMOOTH",
"240 76 OFFCURVE",
"244 75 OFFCURVE",
"248 74 CURVE",
"234 83 OFFCURVE",
"225 99 OFFCURVE",
"225 116 CURVE SMOOTH",
"225 143 OFFCURVE",
"247 164 OFFCURVE",
"274 164 CURVE SMOOTH",
"301 164 OFFCURVE",
"323 143 OFFCURVE",
"323 116 CURVE SMOOTH",
"323 89 OFFCURVE",
"301 67 OFFCURVE",
"274 67 CURVE SMOOTH",
"270 67 OFFCURVE",
"266 67 OFFCURVE",
"262 68 CURVE",
"276 59 OFFCURVE",
"285 44 OFFCURVE",
"285 27 CURVE SMOOTH",
"285 0 OFFCURVE",
"263 -22 OFFCURVE",
"236 -22 CURVE SMOOTH",
"221 -22 OFFCURVE",
"208 -16 OFFCURVE",
"199 -5 CURVE",
"190 -16 OFFCURVE",
"176 -22 OFFCURVE",
"161 -22 CURVE SMOOTH",
"146 -22 OFFCURVE",
"133 -16 OFFCURVE",
"124 -5 CURVE",
"115 -16 OFFCURVE",
"101 -22 OFFCURVE",
"86 -22 CURVE SMOOTH",
"59 -22 OFFCURVE",
"37 0 OFFCURVE",
"37 27 CURVE SMOOTH",
"37 44 OFFCURVE",
"46 59 OFFCURVE",
"60 68 CURVE",
"56 67 OFFCURVE",
"53 67 OFFCURVE",
"49 67 CURVE SMOOTH",
"22 67 OFFCURVE",
"0 89 OFFCURVE",
"0 116 CURVE SMOOTH",
"0 136 OFFCURVE",
"12 152 OFFCURVE",
"29 160 CURVE",
"12 168 OFFCURVE",
"0 184 OFFCURVE",
"0 204 CURVE SMOOTH",
"0 224 OFFCURVE",
"12 241 OFFCURVE",
"29 249 CURVE",
"12 257 OFFCURVE",
"0 273 OFFCURVE",
"0 293 CURVE SMOOTH",
"0 313 OFFCURVE",
"12 330 OFFCURVE",
"29 338 CURVE",
"12 346 OFFCURVE",
"0 362 OFFCURVE",
"0 382 CURVE SMOOTH",
"0 402 OFFCURVE",
"12 419 OFFCURVE",
"29 427 CURVE",
"12 435 OFFCURVE",
"0 451 OFFCURVE",
"0 471 CURVE SMOOTH",
"0 498 OFFCURVE",
"22 520 OFFCURVE",
"49 520 CURVE SMOOTH",
"53 520 OFFCURVE",
"56 520 OFFCURVE",
"60 519 CURVE",
"46 528 OFFCURVE",
"37 543 OFFCURVE",
"37 560 CURVE SMOOTH",
"37 587 OFFCURVE",
"59 609 OFFCURVE",
"86 609 CURVE SMOOTH",
"101 609 OFFCURVE",
"115 602 OFFCURVE",
"124 591 CURVE",
"133 602 OFFCURVE",
"146 609 OFFCURVE",
"161 609 CURVE SMOOTH",
"176 609 OFFCURVE",
"190 602 OFFCURVE",
"199 591 CURVE",
"208 602 OFFCURVE",
"221 609 OFFCURVE",
"236 609 CURVE SMOOTH",
"251 609 OFFCURVE",
"265 602 OFFCURVE",
"274 591 CURVE",
"283 602 OFFCURVE",
"296 609 OFFCURVE",
"311 609 CURVE SMOOTH",
"338 609 OFFCURVE",
"360 587 OFFCURVE"
);
},
{
closed = 1;
nodes = (
"248 204 CURVE SMOOTH",
"248 177 OFFCURVE",
"226 156 OFFCURVE",
"199 156 CURVE SMOOTH",
"172 156 OFFCURVE",
"150 177 OFFCURVE",
"150 204 CURVE SMOOTH",
"150 231 OFFCURVE",
"172 253 OFFCURVE",
"199 253 CURVE SMOOTH",
"226 253 OFFCURVE",
"248 231 OFFCURVE"
);
},
{
closed = 1;
nodes = (
"398 27 CURVE SMOOTH",
"398 0 OFFCURVE",
"376 -22 OFFCURVE",
"349 -22 CURVE SMOOTH",
"322 -22 OFFCURVE",
"300 0 OFFCURVE",
"300 27 CURVE SMOOTH",
"300 54 OFFCURVE",
"322 76 OFFCURVE",
"349 76 CURVE SMOOTH",
"376 76 OFFCURVE",
"398 54 OFFCURVE"
);
}
);
width = 450;
}
);
unicode = 0051;
userData = {
com.fontlab.hintData = {
hhints = (
{
position = -22;
width = 98;
},
{
position = 67;
width = 97;
},
{
position = 156;
width = 97;
},
{
position = 511;
width = 98;
}
);
vhints = (
{
position = 0;
width = 98;
},
{
position = 150;
width = 98;
},
{
position = 225;
width = 98;
},
{
position = 300;
width = 98;
}
);
};
};
},
{
glyphname = R;
lastChange = "2017-08-06 04:45:23 +0000";
layers = (
{
layerId = "50D14539-243D-4DFB-80D4-A58473C3BD4B";
paths = (
{
closed = 1;
nodes = (
"323 560 CURVE SMOOTH",
"323 533 OFFCURVE",
"301 511 OFFCURVE",
"274 511 CURVE SMOOTH",
"259 511 OFFCURVE",
"245 518 OFFCURVE",
"236 529 CURVE",
"227 518 OFFCURVE",
"214 511 OFFCURVE",
"199 511 CURVE SMOOTH",
"184 511 OFFCURVE",
"170 518 OFFCURVE",
"161 529 CURVE",
"152 518 OFFCURVE",
"139 511 OFFCURVE",
"124 511 CURVE SMOOTH",
"109 511 OFFCURVE",
"95 518 OFFCURVE",
"86 529 CURVE",
"81 523 OFFCURVE",
"76 519 OFFCURVE",
"69 516 CURVE",
"86 508 OFFCURVE",
"98 491 OFFCURVE",
"98 471 CURVE SMOOTH",
"98 451 OFFCURVE",
"86 435 OFFCURVE",
"69 427 CURVE",
"86 419 OFFCURVE",
"98 402 OFFCURVE",
"98 382 CURVE SMOOTH",
"98 362 OFFCURVE",
"86 346 OFFCURVE",
"69 338 CURVE",
"76 335 OFFCURVE",
"81 331 OFFCURVE",
"86 325 CURVE",
"95 336 OFFCURVE",
"109 342 OFFCURVE",
"124 342 CURVE SMOOTH",
"139 342 OFFCURVE",
"152 336 OFFCURVE",
"161 325 CURVE",
"170 336 OFFCURVE",
"184 342 OFFCURVE",
"199 342 CURVE SMOOTH",
"214 342 OFFCURVE",
"227 336 OFFCURVE",
"236 325 CURVE",
"245 336 OFFCURVE",
"259 342 OFFCURVE",
"274 342 CURVE SMOOTH",
"301 342 OFFCURVE",
"323 320 OFFCURVE",
"323 293 CURVE SMOOTH",
"323 273 OFFCURVE",
"311 257 OFFCURVE",
"294 249 CURVE",
"311 241 OFFCURVE",
"323 224 OFFCURVE",
"323 204 CURVE SMOOTH",
"323 187 OFFCURVE",
"314 172 OFFCURVE",
"300 163 CURVE",
"304 164 OFFCURVE",
"307 164 OFFCURVE",
"311 164 CURVE SMOOTH",
"338 164 OFFCURVE",
"360 143 OFFCURVE",
"360 116 CURVE SMOOTH",
"360 99 OFFCURVE",
"351 83 OFFCURVE",
"337 74 CURVE",
"341 75 OFFCURVE",
"345 76 OFFCURVE",
"349 76 CURVE SMOOTH",
"376 76 OFFCURVE",
"398 54 OFFCURVE",
"398 27 CURVE SMOOTH",
"398 0 OFFCURVE",
"376 -22 OFFCURVE",
"349 -22 CURVE SMOOTH",
"322 -22 OFFCURVE",
"300 0 OFFCURVE",
"300 27 CURVE SMOOTH",
"300 44 OFFCURVE",
"309 59 OFFCURVE",
"323 68 CURVE",
"319 67 OFFCURVE",
"315 67 OFFCURVE",
"311 67 CURVE SMOOTH",
"284 67 OFFCURVE",
"262 89 OFFCURVE",
"262 116 CURVE SMOOTH",
"262 133 OFFCURVE",
"271 148 OFFCURVE",
"285 157 CURVE",
"281 156 OFFCURVE",
"278 156 OFFCURVE",
"274 156 CURVE SMOOTH",
"247 156 OFFCURVE",
"225 177 OFFCURVE",
"225 204 CURVE SMOOTH",
"225 224 OFFCURVE",
"237 241 OFFCURVE",
"254 249 CURVE",
"247 252 OFFCURVE",
"241 256 OFFCURVE",
"236 262 CURVE",
"227 251 OFFCURVE",
"214 244 OFFCURVE",
"199 244 CURVE SMOOTH",
"184 244 OFFCURVE",
"170 251 OFFCURVE",
"161 262 CURVE",
"152 251 OFFCURVE",
"139 244 OFFCURVE",
"124 244 CURVE SMOOTH",
"109 244 OFFCURVE",
"95 251 OFFCURVE",
"86 262 CURVE",
"81 256 OFFCURVE",
"76 252 OFFCURVE",
"69 249 CURVE",
"86 241 OFFCURVE",
"98 224 OFFCURVE",
"98 204 CURVE SMOOTH",
"98 184 OFFCURVE",
"86 168 OFFCURVE",
"69 160 CURVE",
"86 152 OFFCURVE",
"98 136 OFFCURVE",
"98 116 CURVE SMOOTH",
"98 96 OFFCURVE",
"86 79 OFFCURVE",
"69 71 CURVE",
"86 63 OFFCURVE",
"98 47 OFFCURVE",
"98 27 CURVE SMOOTH",
"98 0 OFFCURVE",
"76 -22 OFFCURVE",
"49 -22 CURVE SMOOTH",
"22 -22 OFFCURVE",
"0 0 OFFCURVE",
"0 27 CURVE SMOOTH",
"0 47 OFFCURVE",
"12 63 OFFCURVE",
"29 71 CURVE",
"12 79 OFFCURVE",
"0 96 OFFCURVE",
"0 116 CURVE SMOOTH",
"0 136 OFFCURVE",
"12 152 OFFCURVE",
"29 160 CURVE",
"12 168 OFFCURVE",
"0 184 OFFCURVE",
"0 204 CURVE SMOOTH",
"0 224 OFFCURVE",
"12 241 OFFCURVE",
"29 249 CURVE",
"12 257 OFFCURVE",
"0 273 OFFCURVE",
"0 293 CURVE SMOOTH",
"0 313 OFFCURVE",
"12 330 OFFCURVE",
"29 338 CURVE",
"12 346 OFFCURVE",
"0 362 OFFCURVE",
"0 382 CURVE SMOOTH",
"0 402 OFFCURVE",
"12 419 OFFCURVE",
"29 427 CURVE",
"12 435 OFFCURVE",
"0 451 OFFCURVE",
"0 471 CURVE SMOOTH",
"0 491 OFFCURVE",
"12 508 OFFCURVE",
"29 516 CURVE",
"12 524 OFFCURVE",
"0 540 OFFCURVE",
"0 560 CURVE SMOOTH",
"0 587 OFFCURVE",
"22 609 OFFCURVE",
"49 609 CURVE SMOOTH",
"64 609 OFFCURVE",
"77 602 OFFCURVE",
"86 591 CURVE",
"95 602 OFFCURVE",
"109 609 OFFCURVE",
"124 609 CURVE SMOOTH",
"139 609 OFFCURVE",
"152 602 OFFCURVE",
"161 591 CURVE",
"170 602 OFFCURVE",
"184 609 OFFCURVE",
"199 609 CURVE SMOOTH",
"214 609 OFFCURVE",
"227 602 OFFCURVE",
"236 591 CURVE",
"245 602 OFFCURVE",
"259 609 OFFCURVE",
"274 609 CURVE SMOOTH",
"301 609 OFFCURVE",
"323 587 OFFCURVE"
);
},
{
closed = 1;
nodes = (
"398 471 CURVE SMOOTH",
"398 451 OFFCURVE",
"386 435 OFFCURVE",
"369 427 CURVE",
"386 419 OFFCURVE",
"398 402 OFFCURVE",
"398 382 CURVE SMOOTH",
"398 355 OFFCURVE",
"376 333 OFFCURVE",
"349 333 CURVE SMOOTH",
"322 333 OFFCURVE",
"300 355 OFFCURVE",
"300 382 CURVE SMOOTH",
"300 402 OFFCURVE",
"312 419 OFFCURVE",
"329 427 CURVE",
"312 435 OFFCURVE",
"300 451 OFFCURVE",
"300 471 CURVE SMOOTH",
"300 498 OFFCURVE",
"322 520 OFFCURVE",
"349 520 CURVE SMOOTH",
"376 520 OFFCURVE",
"398 498 OFFCURVE"
);
}
);
width = 450;
}
);
unicode = 0052;
userData = {
com.fontlab.hintData = {
hhints = (
{
position = -22;
width = 98;
},
{
position = -22;
width = 21;
},
{
position = 244;
width = 98;
},
{
position = 511;
width = 98;
}
);
vhints = (
{
position = 0;
width = 98;
},
{
position = 225;
width = 98;
},
{
position = 262;
width = 98;
},
{
position = 300;
width = 98;
}
);
};
};
},
{
glyphname = S;
lastChange = "2017-08-06 04:45:23 +0000";
layers = (
{
layerId = "50D14539-243D-4DFB-80D4-A58473C3BD4B";
paths = (
{
closed = 1;
nodes = (
"360 560 CURVE SMOOTH",
"360 543 OFFCURVE",
"351 528 OFFCURVE",
"337 519 CURVE",
"341 520 OFFCURVE",
"345 520 OFFCURVE",
"349 520 CURVE SMOOTH",
"376 520 OFFCURVE",
"398 498 OFFCURVE",
"398 471 CURVE SMOOTH",
"398 444 OFFCURVE",
"376 422 OFFCURVE",
"349 422 CURVE SMOOTH",
"322 422 OFFCURVE",
"300 444 OFFCURVE",
"300 471 CURVE SMOOTH",
"300 488 OFFCURVE",
"309 503 OFFCURVE",
"323 512 CURVE",
"319 511 OFFCURVE",
"315 511 OFFCURVE",
"311 511 CURVE SMOOTH",
"296 511 OFFCURVE",
"283 518 OFFCURVE",
"274 529 CURVE",
"265 518 OFFCURVE",
"251 511 OFFCURVE",
"236 511 CURVE SMOOTH",
"221 511 OFFCURVE",
"208 518 OFFCURVE",
"199 529 CURVE",
"190 518 OFFCURVE",
"176 511 OFFCURVE",
"161 511 CURVE SMOOTH",
"146 511 OFFCURVE",
"133 518 OFFCURVE",
"124 529 CURVE",
"115 518 OFFCURVE",
"101 511 OFFCURVE",
"86 511 CURVE SMOOTH",
"82 511 OFFCURVE",
"79 511 OFFCURVE",
"75 512 CURVE",
"89 503 OFFCURVE",
"98 488 OFFCURVE",
"98 471 CURVE SMOOTH",
"98 451 OFFCURVE",
"86 435 OFFCURVE",
"69 427 CURVE",
"86 419 OFFCURVE",
"98 402 OFFCURVE",
"98 382 CURVE SMOOTH",
"98 365 OFFCURVE",
"89 350 OFFCURVE",
"75 341 CURVE",
"79 342 OFFCURVE",
"82 342 OFFCURVE",
"86 342 CURVE SMOOTH",
"101 342 OFFCURVE",
"115 336 OFFCURVE",
"124 325 CURVE",
"133 336 OFFCURVE",
"146 342 OFFCURVE",
"161 342 CURVE SMOOTH",
"176 342 OFFCURVE",
"190 336 OFFCURVE",
"199 325 CURVE",
"208 336 OFFCURVE",
"221 342 OFFCURVE",
"236 342 CURVE SMOOTH",
"251 342 OFFCURVE",
"265 336 OFFCURVE",
"274 325 CURVE",
"283 336 OFFCURVE",
"296 342 OFFCURVE",
"311 342 CURVE SMOOTH",
"338 342 OFFCURVE",
"360 320 OFFCURVE",
"360 293 CURVE SMOOTH",
"360 276 OFFCURVE",
"351 261 OFFCURVE",
"337 252 CURVE",
"341 253 OFFCURVE",
"345 253 OFFCURVE",
"349 253 CURVE SMOOTH",
"376 253 OFFCURVE",
"398 231 OFFCURVE",
"398 204 CURVE SMOOTH",
"398 184 OFFCURVE",
"386 168 OFFCURVE",
"369 160 CURVE",
"386 152 OFFCURVE",
"398 136 OFFCURVE",
"398 116 CURVE SMOOTH",
"398 89 OFFCURVE",
"376 67 OFFCURVE",
"349 67 CURVE SMOOTH",
"345 67 OFFCURVE",
"341 67 OFFCURVE",
"337 68 CURVE",
"351 59 OFFCURVE",
"360 44 OFFCURVE",
"360 27 CURVE SMOOTH",
"360 0 OFFCURVE",
"338 -22 OFFCURVE",
"311 -22 CURVE SMOOTH",
"296 -22 OFFCURVE",
"283 -16 OFFCURVE",
"274 -5 CURVE",
"265 -16 OFFCURVE",
"251 -22 OFFCURVE",
"236 -22 CURVE SMOOTH",
"221 -22 OFFCURVE",
"208 -16 OFFCURVE",
"199 -5 CURVE",
"190 -16 OFFCURVE",
"176 -22 OFFCURVE",
"161 -22 CURVE SMOOTH",
"146 -22 OFFCURVE",
"133 -16 OFFCURVE",
"124 -5 CURVE",
"115 -16 OFFCURVE",
"101 -22 OFFCURVE",
"86 -22 CURVE SMOOTH",
"59 -22 OFFCURVE",
"37 0 OFFCURVE",
"37 27 CURVE SMOOTH",
"37 44 OFFCURVE",
"46 59 OFFCURVE",
"60 68 CURVE",
"56 67 OFFCURVE",
"53 67 OFFCURVE",
"49 67 CURVE SMOOTH",
"22 67 OFFCURVE",
"0 89 OFFCURVE",
"0 116 CURVE SMOOTH",
"0 143 OFFCURVE",
"22 164 OFFCURVE",
"49 164 CURVE SMOOTH",
"76 164 OFFCURVE",
"98 143 OFFCURVE",
"98 116 CURVE SMOOTH",
"98 99 OFFCURVE",
"89 83 OFFCURVE",
"75 74 CURVE",
"79 75 OFFCURVE",
"82 76 OFFCURVE",
"86 76 CURVE SMOOTH",
"101 76 OFFCURVE",
"115 69 OFFCURVE",
"124 58 CURVE",
"133 69 OFFCURVE",
"146 76 OFFCURVE",
"161 76 CURVE SMOOTH",
"176 76 OFFCURVE",
"190 69 OFFCURVE",
"199 58 CURVE",
"208 69 OFFCURVE",
"221 76 OFFCURVE",
"236 76 CURVE SMOOTH",
"251 76 OFFCURVE",
"265 69 OFFCURVE",
"274 58 CURVE",
"283 69 OFFCURVE",
"296 76 OFFCURVE",
"311 76 CURVE SMOOTH",
"315 76 OFFCURVE",
"319 75 OFFCURVE",
"323 74 CURVE",
"309 83 OFFCURVE",
"300 99 OFFCURVE",
"300 116 CURVE SMOOTH",
"300 136 OFFCURVE",
"312 152 OFFCURVE",
"329 160 CURVE",
"312 168 OFFCURVE",
"300 184 OFFCURVE",
"300 204 CURVE SMOOTH",
"300 221 OFFCURVE",
"309 237 OFFCURVE",
"323 246 CURVE",
"319 245 OFFCURVE",
"315 244 OFFCURVE",
"311 244 CURVE SMOOTH",
"296 244 OFFCURVE",
"283 251 OFFCURVE",
"274 262 CURVE",
"265 251 OFFCURVE",
"251 244 OFFCURVE",
"236 244 CURVE SMOOTH",
"221 244 OFFCURVE",
"208 251 OFFCURVE",
"199 262 CURVE",
"190 251 OFFCURVE",
"176 244 OFFCURVE",
"161 244 CURVE SMOOTH",
"146 244 OFFCURVE",
"133 251 OFFCURVE",
"124 262 CURVE",
"115 251 OFFCURVE",
"101 244 OFFCURVE",
"86 244 CURVE SMOOTH",
"59 244 OFFCURVE",
"37 266 OFFCURVE",
"37 293 CURVE SMOOTH",
"37 310 OFFCURVE",
"46 326 OFFCURVE",
"60 335 CURVE",
"56 334 OFFCURVE",
"53 333 OFFCURVE",
"49 333 CURVE SMOOTH",
"22 333 OFFCURVE",
"0 355 OFFCURVE",
"0 382 CURVE SMOOTH",
"0 402 OFFCURVE",
"12 419 OFFCURVE",
"29 427 CURVE",
"12 435 OFFCURVE",
"0 451 OFFCURVE",
"0 471 CURVE SMOOTH",
"0 498 OFFCURVE",
"22 520 OFFCURVE",
"49 520 CURVE SMOOTH",
"53 520 OFFCURVE",
"56 520 OFFCURVE",
"60 519 CURVE",
"46 528 OFFCURVE",
"37 543 OFFCURVE",
"37 560 CURVE SMOOTH",
"37 587 OFFCURVE",
"59 609 OFFCURVE",
"86 609 CURVE SMOOTH",
"101 609 OFFCURVE",
"115 602 OFFCURVE",
"124 591 CURVE",
"133 602 OFFCURVE",
"146 609 OFFCURVE",
"161 609 CURVE SMOOTH",
"176 609 OFFCURVE",
"190 602 OFFCURVE",
"199 591 CURVE",
"208 602 OFFCURVE",
"221 609 OFFCURVE",
"236 609 CURVE SMOOTH",
"251 609 OFFCURVE",
"265 602 OFFCURVE",
"274 591 CURVE",
"283 602 OFFCURVE",
"296 609 OFFCURVE",
"311 609 CURVE SMOOTH",
"338 609 OFFCURVE",
"360 587 OFFCURVE"
);
}
);
width = 450;
}
);
unicode = 0053;
userData = {
com.fontlab.hintData = {
hhints = (
{
position = -22;
width = 98;
},
{
position = 67;
width = 97;
},
{
position = 244;
width = 98;
},
{
position = 422;
width = 98;
},
{
position = 511;
width = 98;
}
);
vhints = (
{
position = 0;
width = 98;
},
{
position = 300;
width = 98;
}
);
};
};
},
{
glyphname = T;
lastChange = "2017-08-06 04:45:23 +0000";
layers = (
{
layerId = "50D14539-243D-4DFB-80D4-A58473C3BD4B";
paths = (
{
closed = 1;
nodes = (
"398 560 CURVE SMOOTH",
"398 533 OFFCURVE",
"376 511 OFFCURVE",
"349 511 CURVE SMOOTH",
"334 511 OFFCURVE",
"320 518 OFFCURVE",
"311 529 CURVE",
"302 518 OFFCURVE",
"289 511 OFFCURVE",
"274 511 CURVE SMOOTH",
"259 511 OFFCURVE",
"245 518 OFFCURVE",
"236 529 CURVE",
"231 523 OFFCURVE",
"226 519 OFFCURVE",
"219 516 CURVE",
"236 508 OFFCURVE",
"248 491 OFFCURVE",
"248 471 CURVE SMOOTH",
"248 451 OFFCURVE",
"236 435 OFFCURVE",
"219 427 CURVE",
"236 419 OFFCURVE",
"248 402 OFFCURVE",
"248 382 CURVE SMOOTH",
"248 362 OFFCURVE",
"236 346 OFFCURVE",
"219 338 CURVE",
"236 330 OFFCURVE",
"248 313 OFFCURVE",
"248 293 CURVE SMOOTH",
"248 273 OFFCURVE",
"236 257 OFFCURVE",
"219 249 CURVE",
"236 241 OFFCURVE",
"248 224 OFFCURVE",
"248 204 CURVE SMOOTH",
"248 184 OFFCURVE",
"236 168 OFFCURVE",
"219 160 CURVE",
"236 152 OFFCURVE",
"248 136 OFFCURVE",
"248 116 CURVE SMOOTH",
"248 96 OFFCURVE",
"236 79 OFFCURVE",
"219 71 CURVE",
"236 63 OFFCURVE",
"248 47 OFFCURVE",
"248 27 CURVE SMOOTH",
"248 0 OFFCURVE",
"226 -22 OFFCURVE",
"199 -22 CURVE SMOOTH",
"172 -22 OFFCURVE",
"150 0 OFFCURVE",
"150 27 CURVE SMOOTH",
"150 47 OFFCURVE",
"162 63 OFFCURVE",
"179 71 CURVE",
"162 79 OFFCURVE",
"150 96 OFFCURVE",
"150 116 CURVE SMOOTH",
"150 136 OFFCURVE",
"162 152 OFFCURVE",
"179 160 CURVE",
"162 168 OFFCURVE",
"150 184 OFFCURVE",
"150 204 CURVE SMOOTH",
"150 224 OFFCURVE",
"162 241 OFFCURVE",
"179 249 CURVE",
"162 257 OFFCURVE",
"150 273 OFFCURVE",
"150 293 CURVE SMOOTH",
"150 313 OFFCURVE",
"162 330 OFFCURVE",
"179 338 CURVE",
"162 346 OFFCURVE",
"150 362 OFFCURVE",
"150 382 CURVE SMOOTH",
"150 402 OFFCURVE",
"162 419 OFFCURVE",
"179 427 CURVE",
"162 435 OFFCURVE",
"150 451 OFFCURVE",
"150 471 CURVE SMOOTH",
"150 491 OFFCURVE",
"162 508 OFFCURVE",
"179 516 CURVE",
"172 519 OFFCURVE",
"166 523 OFFCURVE",
"161 529 CURVE",
"152 518 OFFCURVE",
"139 511 OFFCURVE",
"124 511 CURVE SMOOTH",
"109 511 OFFCURVE",
"95 518 OFFCURVE",
"86 529 CURVE",
"77 518 OFFCURVE",
"64 511 OFFCURVE",
"49 511 CURVE SMOOTH",
"22 511 OFFCURVE",
"0 533 OFFCURVE",
"0 560 CURVE SMOOTH",
"0 587 OFFCURVE",
"22 609 OFFCURVE",
"49 609 CURVE SMOOTH",
"64 609 OFFCURVE",
"77 602 OFFCURVE",
"86 591 CURVE",
"95 602 OFFCURVE",
"109 609 OFFCURVE",
"124 609 CURVE SMOOTH",
"139 609 OFFCURVE",
"152 602 OFFCURVE",
"161 591 CURVE",
"170 602 OFFCURVE",
"184 609 OFFCURVE",
"199 609 CURVE SMOOTH",
"214 609 OFFCURVE",
"227 602 OFFCURVE",
"236 591 CURVE",
"245 602 OFFCURVE",
"259 609 OFFCURVE",
"274 609 CURVE SMOOTH",
"289 609 OFFCURVE",
"302 602 OFFCURVE",
"311 591 CURVE",
"320 602 OFFCURVE",
"334 609 OFFCURVE",
"349 609 CURVE SMOOTH",
"376 609 OFFCURVE",
"398 587 OFFCURVE"
);
}
);
width = 450;
}
);
unicode = 0054;
userData = {
com.fontlab.hintData = {
hhints = (
{
position = -22;
width = 21;
},
{
position = -22;
width = 21;
},
{
position = 511;
width = 98;
}
);
vhints = (
{
position = 150;
width = 98;
}
);
};
};
},
{
glyphname = U;
lastChange = "2017-08-06 04:45:23 +0000";
layers = (
{
layerId = "50D14539-243D-4DFB-80D4-A58473C3BD4B";
paths = (
{
closed = 1;
nodes = (
"98 560 CURVE SMOOTH",
"98 540 OFFCURVE",
"86 524 OFFCURVE",
"69 516 CURVE",
"86 508 OFFCURVE",
"98 491 OFFCURVE",
"98 471 CURVE SMOOTH",
"98 451 OFFCURVE",
"86 435 OFFCURVE",
"69 427 CURVE",
"86 419 OFFCURVE",
"98 402 OFFCURVE",
"98 382 CURVE SMOOTH",
"98 362 OFFCURVE",
"86 346 OFFCURVE",
"69 338 CURVE",
"86 330 OFFCURVE",
"98 313 OFFCURVE",
"98 293 CURVE SMOOTH",
"98 273 OFFCURVE",
"86 257 OFFCURVE",
"69 249 CURVE",
"86 241 OFFCURVE",
"98 224 OFFCURVE",
"98 204 CURVE SMOOTH",
"98 184 OFFCURVE",
"86 168 OFFCURVE",
"69 160 CURVE",
"86 152 OFFCURVE",
"98 136 OFFCURVE",
"98 116 CURVE SMOOTH",
"98 99 OFFCURVE",
"89 83 OFFCURVE",
"75 74 CURVE",
"79 75 OFFCURVE",
"82 76 OFFCURVE",
"86 76 CURVE SMOOTH",
"101 76 OFFCURVE",
"115 69 OFFCURVE",
"124 58 CURVE",
"133 69 OFFCURVE",
"146 76 OFFCURVE",
"161 76 CURVE SMOOTH",
"176 76 OFFCURVE",
"190 69 OFFCURVE",
"199 58 CURVE",
"208 69 OFFCURVE",
"221 76 OFFCURVE",
"236 76 CURVE SMOOTH",
"251 76 OFFCURVE",
"265 69 OFFCURVE",
"274 58 CURVE",
"283 69 OFFCURVE",
"296 76 OFFCURVE",
"311 76 CURVE SMOOTH",
"315 76 OFFCURVE",
"319 75 OFFCURVE",
"323 74 CURVE",
"309 83 OFFCURVE",
"300 99 OFFCURVE",
"300 116 CURVE SMOOTH",
"300 136 OFFCURVE",
"312 152 OFFCURVE",
"329 160 CURVE",
"312 168 OFFCURVE",
"300 184 OFFCURVE",
"300 204 CURVE SMOOTH",
"300 224 OFFCURVE",
"312 241 OFFCURVE",
"329 249 CURVE",
"312 257 OFFCURVE",
"300 273 OFFCURVE",
"300 293 CURVE SMOOTH",
"300 313 OFFCURVE",
"312 330 OFFCURVE",
"329 338 CURVE",
"312 346 OFFCURVE",
"300 362 OFFCURVE",
"300 382 CURVE SMOOTH",
"300 402 OFFCURVE",
"312 419 OFFCURVE",
"329 427 CURVE",
"312 435 OFFCURVE",
"300 451 OFFCURVE",
"300 471 CURVE SMOOTH",
"300 491 OFFCURVE",
"312 508 OFFCURVE",
"329 516 CURVE",
"312 524 OFFCURVE",
"300 540 OFFCURVE",
"300 560 CURVE SMOOTH",
"300 587 OFFCURVE",
"322 609 OFFCURVE",
"349 609 CURVE SMOOTH",
"376 609 OFFCURVE",
"398 587 OFFCURVE",
"398 560 CURVE SMOOTH",
"398 540 OFFCURVE",
"386 524 OFFCURVE",
"369 516 CURVE",
"386 508 OFFCURVE",
"398 491 OFFCURVE",
"398 471 CURVE SMOOTH",
"398 451 OFFCURVE",
"386 435 OFFCURVE",
"369 427 CURVE",
"386 419 OFFCURVE",
"398 402 OFFCURVE",
"398 382 CURVE SMOOTH",
"398 362 OFFCURVE",
"386 346 OFFCURVE",
"369 338 CURVE",
"386 330 OFFCURVE",
"398 313 OFFCURVE",
"398 293 CURVE SMOOTH",
"398 273 OFFCURVE",
"386 257 OFFCURVE",
"369 249 CURVE",
"386 241 OFFCURVE",
"398 224 OFFCURVE",
"398 204 CURVE SMOOTH",
"398 184 OFFCURVE",
"386 168 OFFCURVE",
"369 160 CURVE",
"386 152 OFFCURVE",
"398 136 OFFCURVE",
"398 116 CURVE SMOOTH",
"398 89 OFFCURVE",
"376 67 OFFCURVE",
"349 67 CURVE SMOOTH",
"345 67 OFFCURVE",
"341 67 OFFCURVE",
"337 68 CURVE",
"351 59 OFFCURVE",
"360 44 OFFCURVE",
"360 27 CURVE SMOOTH",
"360 0 OFFCURVE",
"338 -22 OFFCURVE",
"311 -22 CURVE SMOOTH",
"296 -22 OFFCURVE",
"283 -16 OFFCURVE",
"274 -5 CURVE",
"265 -16 OFFCURVE",
"251 -22 OFFCURVE",
"236 -22 CURVE SMOOTH",
"221 -22 OFFCURVE",
"208 -16 OFFCURVE",
"199 -5 CURVE",
"190 -16 OFFCURVE",
"176 -22 OFFCURVE",
"161 -22 CURVE SMOOTH",
"146 -22 OFFCURVE",
"133 -16 OFFCURVE",
"124 -5 CURVE",
"115 -16 OFFCURVE",
"101 -22 OFFCURVE",
"86 -22 CURVE SMOOTH",
"59 -22 OFFCURVE",
"37 0 OFFCURVE",
"37 27 CURVE SMOOTH",
"37 44 OFFCURVE",
"46 59 OFFCURVE",
"60 68 CURVE",
"56 67 OFFCURVE",
"53 67 OFFCURVE",
"49 67 CURVE SMOOTH",
"22 67 OFFCURVE",
"0 89 OFFCURVE",
"0 116 CURVE SMOOTH",
"0 136 OFFCURVE",
"12 152 OFFCURVE",
"29 160 CURVE",
"12 168 OFFCURVE",
"0 184 OFFCURVE",
"0 204 CURVE SMOOTH",
"0 224 OFFCURVE",
"12 241 OFFCURVE",
"29 249 CURVE",
"12 257 OFFCURVE",
"0 273 OFFCURVE",
"0 293 CURVE SMOOTH",
"0 313 OFFCURVE",
"12 330 OFFCURVE",
"29 338 CURVE",
"12 346 OFFCURVE",
"0 362 OFFCURVE",
"0 382 CURVE SMOOTH",
"0 402 OFFCURVE",
"12 419 OFFCURVE",
"29 427 CURVE",
"12 435 OFFCURVE",
"0 451 OFFCURVE",
"0 471 CURVE SMOOTH",
"0 491 OFFCURVE",
"12 508 OFFCURVE",
"29 516 CURVE",
"12 524 OFFCURVE",
"0 540 OFFCURVE",
"0 560 CURVE SMOOTH",
"0 587 OFFCURVE",
"22 609 OFFCURVE",
"49 609 CURVE SMOOTH",
"76 609 OFFCURVE",
"98 587 OFFCURVE"
);
}
);
width = 450;
}
);
unicode = 0055;
userData = {
com.fontlab.hintData = {
hhints = (
{
position = -22;
width = 98;
},
{
position = 589;
width = 20;
}
);
vhints = (
{
position = 0;
width = 98;
},
{
position = 300;
width = 98;
}
);
};
};
},
{
glyphname = V;
lastChange = "2017-08-06 04:45:23 +0000";
layers = (
{
layerId = "50D14539-243D-4DFB-80D4-A58473C3BD4B";
paths = (
{
closed = 1;
nodes = (
"98 560 CURVE SMOOTH",
"98 540 OFFCURVE",
"86 524 OFFCURVE",
"69 516 CURVE",
"86 508 OFFCURVE",
"98 491 OFFCURVE",
"98 471 CURVE SMOOTH",
"98 451 OFFCURVE",
"86 435 OFFCURVE",
"69 427 CURVE",
"86 419 OFFCURVE",
"98 402 OFFCURVE",
"98 382 CURVE SMOOTH",
"98 365 OFFCURVE",
"89 350 OFFCURVE",
"75 341 CURVE",
"79 342 OFFCURVE",
"82 342 OFFCURVE",
"86 342 CURVE SMOOTH",
"113 342 OFFCURVE",
"135 320 OFFCURVE",
"135 293 CURVE SMOOTH",
"135 276 OFFCURVE",
"126 261 OFFCURVE",
"112 252 CURVE",
"116 253 OFFCURVE",
"120 253 OFFCURVE",
"124 253 CURVE SMOOTH",
"151 253 OFFCURVE",
"173 231 OFFCURVE",
"173 204 CURVE SMOOTH",
"173 187 OFFCURVE",
"164 172 OFFCURVE",
"150 163 CURVE",
"154 164 OFFCURVE",
"157 164 OFFCURVE",
"161 164 CURVE SMOOTH",
"176 164 OFFCURVE",
"190 158 OFFCURVE",
"199 147 CURVE",
"208 158 OFFCURVE",
"221 164 OFFCURVE",
"236 164 CURVE SMOOTH",
"240 164 OFFCURVE",
"244 164 OFFCURVE",
"248 163 CURVE",
"234 172 OFFCURVE",
"225 187 OFFCURVE",
"225 204 CURVE SMOOTH",
"225 231 OFFCURVE",
"247 253 OFFCURVE",
"274 253 CURVE SMOOTH",
"278 253 OFFCURVE",
"281 253 OFFCURVE",
"285 252 CURVE",
"271 261 OFFCURVE",
"262 276 OFFCURVE",
"262 293 CURVE SMOOTH",
"262 320 OFFCURVE",
"284 342 OFFCURVE",
"311 342 CURVE SMOOTH",
"315 342 OFFCURVE",
"319 342 OFFCURVE",
"323 341 CURVE",
"309 350 OFFCURVE",
"300 365 OFFCURVE",
"300 382 CURVE SMOOTH",
"300 402 OFFCURVE",
"312 419 OFFCURVE",
"329 427 CURVE",
"312 435 OFFCURVE",
"300 451 OFFCURVE",
"300 471 CURVE SMOOTH",
"300 491 OFFCURVE",
"312 508 OFFCURVE",
"329 516 CURVE",
"312 524 OFFCURVE",
"300 540 OFFCURVE",
"300 560 CURVE SMOOTH",
"300 587 OFFCURVE",
"322 609 OFFCURVE",
"349 609 CURVE SMOOTH",
"376 609 OFFCURVE",
"398 587 OFFCURVE",
"398 560 CURVE SMOOTH",
"398 540 OFFCURVE",
"386 524 OFFCURVE",
"369 516 CURVE",
"386 508 OFFCURVE",
"398 491 OFFCURVE",
"398 471 CURVE SMOOTH",
"398 451 OFFCURVE",
"386 435 OFFCURVE",
"369 427 CURVE",
"386 419 OFFCURVE",
"398 402 OFFCURVE",
"398 382 CURVE SMOOTH",
"398 355 OFFCURVE",
"376 333 OFFCURVE",
"349 333 CURVE SMOOTH",
"345 333 OFFCURVE",
"341 334 OFFCURVE",
"337 335 CURVE",
"351 326 OFFCURVE",
"360 310 OFFCURVE",
"360 293 CURVE SMOOTH",
"360 266 OFFCURVE",
"338 244 OFFCURVE",
"311 244 CURVE SMOOTH",
"307 244 OFFCURVE",
"304 245 OFFCURVE",
"300 246 CURVE",
"314 237 OFFCURVE",
"323 221 OFFCURVE",
"323 204 CURVE SMOOTH",
"323 177 OFFCURVE",
"301 156 OFFCURVE",
"274 156 CURVE SMOOTH",
"270 156 OFFCURVE",
"266 156 OFFCURVE",
"262 157 CURVE",
"276 148 OFFCURVE",
"285 133 OFFCURVE",
"285 116 CURVE SMOOTH",
"285 89 OFFCURVE",
"263 67 OFFCURVE",
"236 67 CURVE SMOOTH",
"232 67 OFFCURVE",
"229 67 OFFCURVE",
"225 68 CURVE",
"239 59 OFFCURVE",
"248 44 OFFCURVE",
"248 27 CURVE SMOOTH",
"248 0 OFFCURVE",
"226 -22 OFFCURVE",
"199 -22 CURVE SMOOTH",
"172 -22 OFFCURVE",
"150 0 OFFCURVE",
"150 27 CURVE SMOOTH",
"150 44 OFFCURVE",
"159 59 OFFCURVE",
"173 68 CURVE",
"169 67 OFFCURVE",
"165 67 OFFCURVE",
"161 67 CURVE SMOOTH",
"134 67 OFFCURVE",
"112 89 OFFCURVE",
"112 116 CURVE SMOOTH",
"112 133 OFFCURVE",
"121 148 OFFCURVE",
"135 157 CURVE",
"131 156 OFFCURVE",
"128 156 OFFCURVE",
"124 156 CURVE SMOOTH",
"97 156 OFFCURVE",
"75 177 OFFCURVE",
"75 204 CURVE SMOOTH",
"75 221 OFFCURVE",
"84 237 OFFCURVE",
"98 246 CURVE",
"94 245 OFFCURVE",
"90 244 OFFCURVE",
"86 244 CURVE SMOOTH",
"59 244 OFFCURVE",
"37 266 OFFCURVE",
"37 293 CURVE SMOOTH",
"37 310 OFFCURVE",
"46 326 OFFCURVE",
"60 335 CURVE",
"56 334 OFFCURVE",
"53 333 OFFCURVE",
"49 333 CURVE SMOOTH",
"22 333 OFFCURVE",
"0 355 OFFCURVE",
"0 382 CURVE SMOOTH",
"0 402 OFFCURVE",
"12 419 OFFCURVE",
"29 427 CURVE",
"12 435 OFFCURVE",
"0 451 OFFCURVE",
"0 471 CURVE SMOOTH",
"0 491 OFFCURVE",
"12 508 OFFCURVE",
"29 516 CURVE",
"12 524 OFFCURVE",
"0 540 OFFCURVE",
"0 560 CURVE SMOOTH",
"0 587 OFFCURVE",
"22 609 OFFCURVE",
"49 609 CURVE SMOOTH",
"76 609 OFFCURVE",
"98 587 OFFCURVE"
);
},
{
closed = 1;
nodes = (
"199 84 CURVE",
"196 80 OFFCURVE",
"191 77 OFFCURVE",
"187 74 CURVE",
"191 75 OFFCURVE",
"195 76 OFFCURVE",
"199 76 CURVE SMOOTH",
"203 76 OFFCURVE",
"206 75 OFFCURVE",
"210 74 CURVE",
"206 77 OFFCURVE",
"202 80 OFFCURVE"
);
}
);
width = 450;
}
);
unicode = 0056;
userData = {
com.fontlab.hintData = {
hhints = (
{
position = -22;
width = 21;
},
{
position = -22;
width = 21;
},
{
position = 67;
width = 97;
},
{
position = 156;
width = 97;
},
{
position = 244;
width = 98;
},
{
position = 589;
width = 20;
}
);
vhints = (
{
position = 0;
width = 98;
},
{
position = 37;
width = 98;
},
{
position = 75;
width = 98;
},
{
position = 112;
width = 173;
},
{
position = 150;
width = 98;
},
{
position = 225;
width = 98;
},
{
position = 262;
width = 98;
},
{
position = 300;
width = 98;
}
);
};
};
},
{
glyphname = W;
lastChange = "2017-08-06 04:45:23 +0000";
layers = (
{
layerId = "50D14539-243D-4DFB-80D4-A58473C3BD4B";
paths = (
{
closed = 1;
nodes = (
"98 560 CURVE SMOOTH",
"98 540 OFFCURVE",
"86 524 OFFCURVE",
"69 516 CURVE",
"86 508 OFFCURVE",
"98 491 OFFCURVE",
"98 471 CURVE SMOOTH",
"98 451 OFFCURVE",
"86 435 OFFCURVE",
"69 427 CURVE",
"86 419 OFFCURVE",
"98 402 OFFCURVE",
"98 382 CURVE SMOOTH",
"98 362 OFFCURVE",
"86 346 OFFCURVE",
"69 338 CURVE",
"86 330 OFFCURVE",
"98 313 OFFCURVE",
"98 293 CURVE SMOOTH",
"98 273 OFFCURVE",
"86 257 OFFCURVE",
"69 249 CURVE",
"86 241 OFFCURVE",
"98 224 OFFCURVE",
"98 204 CURVE SMOOTH",
"98 184 OFFCURVE",
"86 168 OFFCURVE",
"69 160 CURVE",
"76 157 OFFCURVE",
"81 153 OFFCURVE",
"86 147 CURVE",
"95 158 OFFCURVE",
"109 164 OFFCURVE",
"124 164 CURVE SMOOTH",
"128 164 OFFCURVE",
"131 164 OFFCURVE",
"135 163 CURVE",
"121 172 OFFCURVE",
"112 187 OFFCURVE",
"112 204 CURVE SMOOTH",
"112 231 OFFCURVE",
"134 253 OFFCURVE",
"161 253 CURVE SMOOTH",
"165 253 OFFCURVE",
"169 253 OFFCURVE",
"173 252 CURVE",
"159 261 OFFCURVE",
"150 276 OFFCURVE",
"150 293 CURVE SMOOTH",
"150 313 OFFCURVE",
"162 330 OFFCURVE",
"179 338 CURVE",
"162 346 OFFCURVE",
"150 362 OFFCURVE",
"150 382 CURVE SMOOTH",
"150 409 OFFCURVE",
"172 431 OFFCURVE",
"199 431 CURVE SMOOTH",
"226 431 OFFCURVE",
"248 409 OFFCURVE",
"248 382 CURVE SMOOTH",
"248 362 OFFCURVE",
"236 346 OFFCURVE",
"219 338 CURVE",
"236 330 OFFCURVE",
"248 313 OFFCURVE",
"248 293 CURVE SMOOTH",
"248 276 OFFCURVE",
"239 261 OFFCURVE",
"225 252 CURVE",
"229 253 OFFCURVE",
"232 253 OFFCURVE",
"236 253 CURVE SMOOTH",
"263 253 OFFCURVE",
"285 231 OFFCURVE",
"285 204 CURVE SMOOTH",
"285 187 OFFCURVE",
"276 172 OFFCURVE",
"262 163 CURVE",
"266 164 OFFCURVE",
"270 164 OFFCURVE",
"274 164 CURVE SMOOTH",
"289 164 OFFCURVE",
"302 158 OFFCURVE",
"311 147 CURVE",
"316 153 OFFCURVE",
"322 157 OFFCURVE",
"329 160 CURVE",
"312 168 OFFCURVE",
"300 184 OFFCURVE",
"300 204 CURVE SMOOTH",
"300 224 OFFCURVE",
"312 241 OFFCURVE",
"329 249 CURVE",
"312 257 OFFCURVE",
"300 273 OFFCURVE",
"300 293 CURVE SMOOTH",
"300 313 OFFCURVE",
"312 330 OFFCURVE",
"329 338 CURVE",
"312 346 OFFCURVE",
"300 362 OFFCURVE",
"300 382 CURVE SMOOTH",
"300 402 OFFCURVE",
"312 419 OFFCURVE",
"329 427 CURVE",
"312 435 OFFCURVE",
"300 451 OFFCURVE",
"300 471 CURVE SMOOTH",
"300 491 OFFCURVE",
"312 508 OFFCURVE",
"329 516 CURVE",
"312 524 OFFCURVE",
"300 540 OFFCURVE",
"300 560 CURVE SMOOTH",
"300 587 OFFCURVE",
"322 609 OFFCURVE",
"349 609 CURVE SMOOTH",
"376 609 OFFCURVE",
"398 587 OFFCURVE",
"398 560 CURVE SMOOTH",
"398 540 OFFCURVE",
"386 524 OFFCURVE",
"369 516 CURVE",
"386 508 OFFCURVE",
"398 491 OFFCURVE",
"398 471 CURVE SMOOTH",
"398 451 OFFCURVE",
"386 435 OFFCURVE",
"369 427 CURVE",
"386 419 OFFCURVE",
"398 402 OFFCURVE",
"398 382 CURVE SMOOTH",
"398 362 OFFCURVE",
"386 346 OFFCURVE",
"369 338 CURVE",
"386 330 OFFCURVE",
"398 313 OFFCURVE",
"398 293 CURVE SMOOTH",
"398 273 OFFCURVE",
"386 257 OFFCURVE",
"369 249 CURVE",
"386 241 OFFCURVE",
"398 224 OFFCURVE",
"398 204 CURVE SMOOTH",
"398 184 OFFCURVE",
"386 168 OFFCURVE",
"369 160 CURVE",
"386 152 OFFCURVE",
"398 136 OFFCURVE",
"398 116 CURVE SMOOTH",
"398 89 OFFCURVE",
"376 67 OFFCURVE",
"349 67 CURVE SMOOTH",
"345 67 OFFCURVE",
"341 67 OFFCURVE",
"337 68 CURVE",
"351 59 OFFCURVE",
"360 44 OFFCURVE",
"360 27 CURVE SMOOTH",
"360 0 OFFCURVE",
"338 -22 OFFCURVE",
"311 -22 CURVE SMOOTH",
"284 -22 OFFCURVE",
"262 0 OFFCURVE",
"262 27 CURVE SMOOTH",
"262 44 OFFCURVE",
"271 59 OFFCURVE",
"285 68 CURVE",
"281 67 OFFCURVE",
"278 67 OFFCURVE",
"274 67 CURVE SMOOTH",
"247 67 OFFCURVE",
"225 89 OFFCURVE",
"225 116 CURVE SMOOTH",
"225 133 OFFCURVE",
"234 148 OFFCURVE",
"248 157 CURVE",
"244 156 OFFCURVE",
"240 156 OFFCURVE",
"236 156 CURVE SMOOTH",
"221 156 OFFCURVE",
"208 162 OFFCURVE",
"199 173 CURVE",
"190 162 OFFCURVE",
"176 156 OFFCURVE",
"161 156 CURVE SMOOTH",
"157 156 OFFCURVE",
"154 156 OFFCURVE",
"150 157 CURVE",
"164 148 OFFCURVE",
"173 133 OFFCURVE",
"173 116 CURVE SMOOTH",
"173 89 OFFCURVE",
"151 67 OFFCURVE",
"124 67 CURVE SMOOTH",
"120 67 OFFCURVE",
"116 67 OFFCURVE",
"112 68 CURVE",
"126 59 OFFCURVE",
"135 44 OFFCURVE",
"135 27 CURVE SMOOTH",
"135 0 OFFCURVE",
"113 -22 OFFCURVE",
"86 -22 CURVE SMOOTH",
"59 -22 OFFCURVE",
"37 0 OFFCURVE",
"37 27 CURVE SMOOTH",
"37 44 OFFCURVE",
"46 59 OFFCURVE",
"60 68 CURVE",
"56 67 OFFCURVE",
"53 67 OFFCURVE",
"49 67 CURVE SMOOTH",
"22 67 OFFCURVE",
"0 89 OFFCURVE",
"0 116 CURVE SMOOTH",
"0 136 OFFCURVE",
"12 152 OFFCURVE",
"29 160 CURVE",
"12 168 OFFCURVE",
"0 184 OFFCURVE",
"0 204 CURVE SMOOTH",
"0 224 OFFCURVE",
"12 241 OFFCURVE",
"29 249 CURVE",
"12 257 OFFCURVE",
"0 273 OFFCURVE",
"0 293 CURVE SMOOTH",
"0 313 OFFCURVE",
"12 330 OFFCURVE",
"29 338 CURVE",
"12 346 OFFCURVE",
"0 362 OFFCURVE",
"0 382 CURVE SMOOTH",
"0 402 OFFCURVE",
"12 419 OFFCURVE",
"29 427 CURVE",
"12 435 OFFCURVE",
"0 451 OFFCURVE",
"0 471 CURVE SMOOTH",
"0 491 OFFCURVE",
"12 508 OFFCURVE",
"29 516 CURVE",
"12 524 OFFCURVE",
"0 540 OFFCURVE",
"0 560 CURVE SMOOTH",
"0 587 OFFCURVE",
"22 609 OFFCURVE",
"49 609 CURVE SMOOTH",
"76 609 OFFCURVE",
"98 587 OFFCURVE"
);
},
{
closed = 1;
nodes = (
"187 246 CURVE",
"191 243 OFFCURVE",
"196 240 OFFCURVE",
"199 236 CURVE",
"202 240 OFFCURVE",
"206 243 OFFCURVE",
"210 246 CURVE",
"206 245 OFFCURVE",
"203 244 OFFCURVE",
"199 244 CURVE SMOOTH",
"195 244 OFFCURVE",
"191 245 OFFCURVE"
);
},
{
closed = 1;
nodes = (
"86 84 CURVE",
"83 80 OFFCURVE",
"79 77 OFFCURVE",
"75 74 CURVE",
"79 75 OFFCURVE",
"82 76 OFFCURVE",
"86 76 CURVE SMOOTH",
"90 76 OFFCURVE",
"94 75 OFFCURVE",
"98 74 CURVE",
"94 77 OFFCURVE",
"89 80 OFFCURVE"
);
},
{
closed = 1;
nodes = (
"311 84 CURVE",
"308 80 OFFCURVE",
"304 77 OFFCURVE",
"300 74 CURVE",
"304 75 OFFCURVE",
"307 76 OFFCURVE",
"311 76 CURVE SMOOTH",
"315 76 OFFCURVE",
"319 75 OFFCURVE",
"323 74 CURVE",
"319 77 OFFCURVE",
"314 80 OFFCURVE"
);
}
);
width = 450;
}
);
unicode = 0057;
userData = {
com.fontlab.hintData = {
hhints = (
{
position = -22;
width = 98;
},
{
position = 67;
width = 97;
},
{
position = 156;
width = 97;
},
{
position = 411;
width = 20;
},
{
position = 589;
width = 20;
}
);
vhints = (
{
position = 0;
width = 173;
},
{
position = 0;
width = 98;
},
{
position = 37;
width = 98;
},
{
position = 112;
width = 173;
},
{
position = 150;
width = 98;
},
{
position = 225;
width = 173;
},
{
position = 262;
width = 98;
},
{
position = 300;
width = 98;
}
);
};
};
},
{
glyphname = X;
lastChange = "2017-08-06 04:45:23 +0000";
layers = (
{
layerId = "50D14539-243D-4DFB-80D4-A58473C3BD4B";
paths = (
{
closed = 1;
nodes = (
"135 560 CURVE SMOOTH",
"135 543 OFFCURVE",
"126 528 OFFCURVE",
"112 519 CURVE",
"116 520 OFFCURVE",
"120 520 OFFCURVE",
"124 520 CURVE SMOOTH",
"151 520 OFFCURVE",
"173 498 OFFCURVE",
"173 471 CURVE SMOOTH",
"173 454 OFFCURVE",
"164 439 OFFCURVE",
"150 430 CURVE",
"154 431 OFFCURVE",
"157 431 OFFCURVE",
"161 431 CURVE SMOOTH",
"176 431 OFFCURVE",
"190 425 OFFCURVE",
"199 414 CURVE",
"208 425 OFFCURVE",
"221 431 OFFCURVE",
"236 431 CURVE SMOOTH",
"240 431 OFFCURVE",
"244 431 OFFCURVE",
"248 430 CURVE",
"234 439 OFFCURVE",
"225 454 OFFCURVE",
"225 471 CURVE SMOOTH",
"225 498 OFFCURVE",
"247 520 OFFCURVE",
"274 520 CURVE SMOOTH",
"278 520 OFFCURVE",
"281 520 OFFCURVE",
"285 519 CURVE",
"271 528 OFFCURVE",
"262 543 OFFCURVE",
"262 560 CURVE SMOOTH",
"262 587 OFFCURVE",
"284 609 OFFCURVE",
"311 609 CURVE SMOOTH",
"338 609 OFFCURVE",
"360 587 OFFCURVE",
"360 560 CURVE SMOOTH",
"360 533 OFFCURVE",
"338 511 OFFCURVE",
"311 511 CURVE SMOOTH",
"307 511 OFFCURVE",
"304 511 OFFCURVE",
"300 512 CURVE",
"314 503 OFFCURVE",
"323 488 OFFCURVE",
"323 471 CURVE SMOOTH",
"323 444 OFFCURVE",
"301 422 OFFCURVE",
"274 422 CURVE SMOOTH",
"270 422 OFFCURVE",
"266 423 OFFCURVE",
"262 424 CURVE",
"276 415 OFFCURVE",
"285 399 OFFCURVE",
"285 382 CURVE SMOOTH",
"285 355 OFFCURVE",
"263 333 OFFCURVE",
"236 333 CURVE SMOOTH",
"232 333 OFFCURVE",
"229 334 OFFCURVE",
"225 335 CURVE",
"239 326 OFFCURVE",
"248 310 OFFCURVE",
"248 293 CURVE SMOOTH",
"248 276 OFFCURVE",
"239 261 OFFCURVE",
"225 252 CURVE",
"229 253 OFFCURVE",
"232 253 OFFCURVE",
"236 253 CURVE SMOOTH",
"263 253 OFFCURVE",
"285 231 OFFCURVE",
"285 204 CURVE SMOOTH",
"285 187 OFFCURVE",
"276 172 OFFCURVE",
"262 163 CURVE",
"266 164 OFFCURVE",
"270 164 OFFCURVE",
"274 164 CURVE SMOOTH",
"301 164 OFFCURVE",
"323 143 OFFCURVE",
"323 116 CURVE SMOOTH",
"323 99 OFFCURVE",
"314 83 OFFCURVE",
"300 74 CURVE",
"304 75 OFFCURVE",
"307 76 OFFCURVE",
"311 76 CURVE SMOOTH",
"338 76 OFFCURVE",
"360 54 OFFCURVE",
"360 27 CURVE SMOOTH",
"360 0 OFFCURVE",
"338 -22 OFFCURVE",
"311 -22 CURVE SMOOTH",
"284 -22 OFFCURVE",
"262 0 OFFCURVE",
"262 27 CURVE SMOOTH",
"262 44 OFFCURVE",
"271 59 OFFCURVE",
"285 68 CURVE",
"281 67 OFFCURVE",
"278 67 OFFCURVE",
"274 67 CURVE SMOOTH",
"247 67 OFFCURVE",
"225 89 OFFCURVE",
"225 116 CURVE SMOOTH",
"225 133 OFFCURVE",
"234 148 OFFCURVE",
"248 157 CURVE",
"244 156 OFFCURVE",
"240 156 OFFCURVE",
"236 156 CURVE SMOOTH",
"221 156 OFFCURVE",
"208 162 OFFCURVE",
"199 173 CURVE",
"190 162 OFFCURVE",
"176 156 OFFCURVE",
"161 156 CURVE SMOOTH",
"157 156 OFFCURVE",
"154 156 OFFCURVE",
"150 157 CURVE",
"164 148 OFFCURVE",
"173 133 OFFCURVE",
"173 116 CURVE SMOOTH",
"173 89 OFFCURVE",
"151 67 OFFCURVE",
"124 67 CURVE SMOOTH",
"120 67 OFFCURVE",
"116 67 OFFCURVE",
"112 68 CURVE",
"126 59 OFFCURVE",
"135 44 OFFCURVE",
"135 27 CURVE SMOOTH",
"135 0 OFFCURVE",
"113 -22 OFFCURVE",
"86 -22 CURVE SMOOTH",
"59 -22 OFFCURVE",
"37 0 OFFCURVE",
"37 27 CURVE SMOOTH",
"37 54 OFFCURVE",
"59 76 OFFCURVE",
"86 76 CURVE SMOOTH",
"90 76 OFFCURVE",
"94 75 OFFCURVE",
"98 74 CURVE",
"84 83 OFFCURVE",
"75 99 OFFCURVE",
"75 116 CURVE SMOOTH",
"75 143 OFFCURVE",
"97 164 OFFCURVE",
"124 164 CURVE SMOOTH",
"128 164 OFFCURVE",
"131 164 OFFCURVE",
"135 163 CURVE",
"121 172 OFFCURVE",
"112 187 OFFCURVE",
"112 204 CURVE SMOOTH",
"112 231 OFFCURVE",
"134 253 OFFCURVE",
"161 253 CURVE SMOOTH",
"165 253 OFFCURVE",
"169 253 OFFCURVE",
"173 252 CURVE",
"159 261 OFFCURVE",
"150 276 OFFCURVE",
"150 293 CURVE SMOOTH",
"150 310 OFFCURVE",
"159 326 OFFCURVE",
"173 335 CURVE",
"169 334 OFFCURVE",
"165 333 OFFCURVE",
"161 333 CURVE SMOOTH",
"134 333 OFFCURVE",
"112 355 OFFCURVE",
"112 382 CURVE SMOOTH",
"112 399 OFFCURVE",
"121 415 OFFCURVE",
"135 424 CURVE",
"131 423 OFFCURVE",
"128 422 OFFCURVE",
"124 422 CURVE SMOOTH",
"97 422 OFFCURVE",
"75 444 OFFCURVE",
"75 471 CURVE SMOOTH",
"75 488 OFFCURVE",
"84 503 OFFCURVE",
"98 512 CURVE",
"94 511 OFFCURVE",
"90 511 OFFCURVE",
"86 511 CURVE SMOOTH",
"59 511 OFFCURVE",
"37 533 OFFCURVE",
"37 560 CURVE SMOOTH",
"37 587 OFFCURVE",
"59 609 OFFCURVE",
"86 609 CURVE SMOOTH",
"113 609 OFFCURVE",
"135 587 OFFCURVE"
);
},
{
closed = 1;
nodes = (
"199 351 CURVE",
"196 347 OFFCURVE",
"191 344 OFFCURVE",
"187 341 CURVE",
"191 342 OFFCURVE",
"195 342 OFFCURVE",
"199 342 CURVE SMOOTH",
"203 342 OFFCURVE",
"206 342 OFFCURVE",
"210 341 CURVE",
"206 344 OFFCURVE",
"202 347 OFFCURVE"
);
},
{
closed = 1;
nodes = (
"187 246 CURVE",
"191 243 OFFCURVE",
"196 240 OFFCURVE",
"199 236 CURVE",
"202 240 OFFCURVE",
"206 243 OFFCURVE",
"210 246 CURVE",
"206 245 OFFCURVE",
"203 244 OFFCURVE",
"199 244 CURVE SMOOTH",
"195 244 OFFCURVE",
"191 245 OFFCURVE"
);
}
);
width = 450;
}
);
unicode = 0058;
userData = {
com.fontlab.hintData = {
hhints = (
{
position = -22;
width = 98;
},
{
position = 67;
width = 97;
},
{
position = 156;
width = 97;
},
{
position = 333;
width = 98;
},
{
position = 422;
width = 98;
},
{
position = 511;
width = 98;
}
);
vhints = (
{
position = 37;
width = 98;
},
{
position = 75;
width = 98;
},
{
position = 112;
width = 173;
},
{
position = 150;
width = 98;
},
{
position = 225;
width = 98;
},
{
position = 262;
width = 98;
}
);
};
};
},
{
glyphname = Y;
lastChange = "2017-08-06 04:45:23 +0000";
layers = (
{
layerId = "50D14539-243D-4DFB-80D4-A58473C3BD4B";
paths = (
{
closed = 1;
nodes = (
"98 560 CURVE SMOOTH",
"98 543 OFFCURVE",
"89 528 OFFCURVE",
"75 519 CURVE",
"79 520 OFFCURVE",
"82 520 OFFCURVE",
"86 520 CURVE SMOOTH",
"113 520 OFFCURVE",
"135 498 OFFCURVE",
"135 471 CURVE SMOOTH",
"135 454 OFFCURVE",
"126 439 OFFCURVE",
"112 430 CURVE",
"116 431 OFFCURVE",
"120 431 OFFCURVE",
"124 431 CURVE SMOOTH",
"151 431 OFFCURVE",
"173 409 OFFCURVE",
"173 382 CURVE SMOOTH",
"173 365 OFFCURVE",
"164 350 OFFCURVE",
"150 341 CURVE",
"154 342 OFFCURVE",
"157 342 OFFCURVE",
"161 342 CURVE SMOOTH",
"176 342 OFFCURVE",
"190 336 OFFCURVE",
"199 325 CURVE",
"208 336 OFFCURVE",
"221 342 OFFCURVE",
"236 342 CURVE SMOOTH",
"240 342 OFFCURVE",
"244 342 OFFCURVE",
"248 341 CURVE",
"234 350 OFFCURVE",
"225 365 OFFCURVE",
"225 382 CURVE SMOOTH",
"225 409 OFFCURVE",
"247 431 OFFCURVE",
"274 431 CURVE SMOOTH",
"278 431 OFFCURVE",
"281 431 OFFCURVE",
"285 430 CURVE",
"271 439 OFFCURVE",
"262 454 OFFCURVE",
"262 471 CURVE SMOOTH",
"262 498 OFFCURVE",
"284 520 OFFCURVE",
"311 520 CURVE SMOOTH",
"315 520 OFFCURVE",
"319 520 OFFCURVE",
"323 519 CURVE",
"309 528 OFFCURVE",
"300 543 OFFCURVE",
"300 560 CURVE SMOOTH",
"300 587 OFFCURVE",
"322 609 OFFCURVE",
"349 609 CURVE SMOOTH",
"376 609 OFFCURVE",
"398 587 OFFCURVE",
"398 560 CURVE SMOOTH",
"398 533 OFFCURVE",
"376 511 OFFCURVE",
"349 511 CURVE SMOOTH",
"345 511 OFFCURVE",
"341 511 OFFCURVE",
"337 512 CURVE",
"351 503 OFFCURVE",
"360 488 OFFCURVE",
"360 471 CURVE SMOOTH",
"360 444 OFFCURVE",
"338 422 OFFCURVE",
"311 422 CURVE SMOOTH",
"307 422 OFFCURVE",
"304 423 OFFCURVE",
"300 424 CURVE",
"314 415 OFFCURVE",
"323 399 OFFCURVE",
"323 382 CURVE SMOOTH",
"323 355 OFFCURVE",
"301 333 OFFCURVE",
"274 333 CURVE SMOOTH",
"270 333 OFFCURVE",
"266 334 OFFCURVE",
"262 335 CURVE",
"276 326 OFFCURVE",
"285 310 OFFCURVE",
"285 293 CURVE SMOOTH",
"285 266 OFFCURVE",
"263 244 OFFCURVE",
"236 244 CURVE SMOOTH",
"232 244 OFFCURVE",
"229 245 OFFCURVE",
"225 246 CURVE",
"239 237 OFFCURVE",
"248 221 OFFCURVE",
"248 204 CURVE SMOOTH",
"248 184 OFFCURVE",
"236 168 OFFCURVE",
"219 160 CURVE",
"236 152 OFFCURVE",
"248 136 OFFCURVE",
"248 116 CURVE SMOOTH",
"248 96 OFFCURVE",
"236 79 OFFCURVE",
"219 71 CURVE",
"236 63 OFFCURVE",
"248 47 OFFCURVE",
"248 27 CURVE SMOOTH",
"248 0 OFFCURVE",
"226 -22 OFFCURVE",
"199 -22 CURVE SMOOTH",
"172 -22 OFFCURVE",
"150 0 OFFCURVE",
"150 27 CURVE SMOOTH",
"150 47 OFFCURVE",
"162 63 OFFCURVE",
"179 71 CURVE",
"162 79 OFFCURVE",
"150 96 OFFCURVE",
"150 116 CURVE SMOOTH",
"150 136 OFFCURVE",
"162 152 OFFCURVE",
"179 160 CURVE",
"162 168 OFFCURVE",
"150 184 OFFCURVE",
"150 204 CURVE SMOOTH",
"150 221 OFFCURVE",
"159 237 OFFCURVE",
"173 246 CURVE",
"169 245 OFFCURVE",
"165 244 OFFCURVE",
"161 244 CURVE SMOOTH",
"134 244 OFFCURVE",
"112 266 OFFCURVE",
"112 293 CURVE SMOOTH",
"112 310 OFFCURVE",
"121 326 OFFCURVE",
"135 335 CURVE",
"131 334 OFFCURVE",
"128 333 OFFCURVE",
"124 333 CURVE SMOOTH",
"97 333 OFFCURVE",
"75 355 OFFCURVE",
"75 382 CURVE SMOOTH",
"75 399 OFFCURVE",
"84 415 OFFCURVE",
"98 424 CURVE",
"94 423 OFFCURVE",
"90 422 OFFCURVE",
"86 422 CURVE SMOOTH",
"59 422 OFFCURVE",
"37 444 OFFCURVE",
"37 471 CURVE SMOOTH",
"37 488 OFFCURVE",
"46 503 OFFCURVE",
"60 512 CURVE",
"56 511 OFFCURVE",
"53 511 OFFCURVE",
"49 511 CURVE SMOOTH",
"22 511 OFFCURVE",
"0 533 OFFCURVE",
"0 560 CURVE SMOOTH",
"0 587 OFFCURVE",
"22 609 OFFCURVE",
"49 609 CURVE SMOOTH",
"76 609 OFFCURVE",
"98 587 OFFCURVE"
);
},
{
closed = 1;
nodes = (
"199 262 CURVE",
"196 258 OFFCURVE",
"191 255 OFFCURVE",
"187 252 CURVE",
"191 253 OFFCURVE",
"195 253 OFFCURVE",
"199 253 CURVE SMOOTH",
"203 253 OFFCURVE",
"206 253 OFFCURVE",
"210 252 CURVE",
"206 255 OFFCURVE",
"202 258 OFFCURVE"
);
}
);
width = 450;
}
);
unicode = 0059;
userData = {
com.fontlab.hintData = {
hhints = (
{
position = -22;
width = 21;
},
{
position = -22;
width = 21;
},
{
position = 244;
width = 98;
},
{
position = 333;
width = 98;
},
{
position = 422;
width = 98;
},
{
position = 511;
width = 98;
}
);
vhints = (
{
position = 0;
width = 98;
},
{
position = 37;
width = 98;
},
{
position = 75;
width = 98;
},
{
position = 112;
width = 173;
},
{
position = 150;
width = 98;
},
{
position = 225;
width = 98;
},
{
position = 262;
width = 98;
},
{
position = 300;
width = 98;
}
);
};
};
},
{
glyphname = Z;
lastChange = "2017-08-06 04:45:23 +0000";
layers = (
{
layerId = "50D14539-243D-4DFB-80D4-A58473C3BD4B";
paths = (
{
closed = 1;
nodes = (
"360 560 CURVE SMOOTH",
"360 533 OFFCURVE",
"338 511 OFFCURVE",
"311 511 CURVE SMOOTH",
"307 511 OFFCURVE",
"304 511 OFFCURVE",
"300 512 CURVE",
"314 503 OFFCURVE",
"323 488 OFFCURVE",
"323 471 CURVE SMOOTH",
"323 444 OFFCURVE",
"301 422 OFFCURVE",
"274 422 CURVE SMOOTH",
"270 422 OFFCURVE",
"266 423 OFFCURVE",
"262 424 CURVE",
"276 415 OFFCURVE",
"285 399 OFFCURVE",
"285 382 CURVE SMOOTH",
"285 355 OFFCURVE",
"263 333 OFFCURVE",
"236 333 CURVE SMOOTH",
"232 333 OFFCURVE",
"229 334 OFFCURVE",
"225 335 CURVE",
"239 326 OFFCURVE",
"248 310 OFFCURVE",
"248 293 CURVE SMOOTH",
"248 266 OFFCURVE",
"226 244 OFFCURVE",
"199 244 CURVE SMOOTH",
"195 244 OFFCURVE",
"191 245 OFFCURVE",
"187 246 CURVE",
"201 237 OFFCURVE",
"210 221 OFFCURVE",
"210 204 CURVE SMOOTH",
"210 177 OFFCURVE",
"188 156 OFFCURVE",
"161 156 CURVE SMOOTH",
"157 156 OFFCURVE",
"154 156 OFFCURVE",
"150 157 CURVE",
"164 148 OFFCURVE",
"173 133 OFFCURVE",
"173 116 CURVE SMOOTH",
"173 99 OFFCURVE",
"164 83 OFFCURVE",
"150 74 CURVE",
"154 75 OFFCURVE",
"157 76 OFFCURVE",
"161 76 CURVE SMOOTH",
"176 76 OFFCURVE",
"190 69 OFFCURVE",
"199 58 CURVE",
"208 69 OFFCURVE",
"221 76 OFFCURVE",
"236 76 CURVE SMOOTH",
"251 76 OFFCURVE",
"265 69 OFFCURVE",
"274 58 CURVE",
"283 69 OFFCURVE",
"296 76 OFFCURVE",
"311 76 CURVE SMOOTH",
"338 76 OFFCURVE",
"360 54 OFFCURVE",
"360 27 CURVE SMOOTH",
"360 0 OFFCURVE",
"338 -22 OFFCURVE",
"311 -22 CURVE SMOOTH",
"296 -22 OFFCURVE",
"283 -16 OFFCURVE",
"274 -5 CURVE",
"265 -16 OFFCURVE",
"251 -22 OFFCURVE",
"236 -22 CURVE SMOOTH",
"221 -22 OFFCURVE",
"208 -16 OFFCURVE",
"199 -5 CURVE",
"190 -16 OFFCURVE",
"176 -22 OFFCURVE",
"161 -22 CURVE SMOOTH",
"146 -22 OFFCURVE",
"133 -16 OFFCURVE",
"124 -5 CURVE",
"115 -16 OFFCURVE",
"101 -22 OFFCURVE",
"86 -22 CURVE SMOOTH",
"59 -22 OFFCURVE",
"37 0 OFFCURVE",
"37 27 CURVE SMOOTH",
"37 54 OFFCURVE",
"59 76 OFFCURVE",
"86 76 CURVE SMOOTH",
"90 76 OFFCURVE",
"94 75 OFFCURVE",
"98 74 CURVE",
"84 83 OFFCURVE",
"75 99 OFFCURVE",
"75 116 CURVE SMOOTH",
"75 143 OFFCURVE",
"97 164 OFFCURVE",
"124 164 CURVE SMOOTH",
"128 164 OFFCURVE",
"131 164 OFFCURVE",
"135 163 CURVE",
"121 172 OFFCURVE",
"112 187 OFFCURVE",
"112 204 CURVE SMOOTH",
"112 231 OFFCURVE",
"134 253 OFFCURVE",
"161 253 CURVE SMOOTH",
"165 253 OFFCURVE",
"169 253 OFFCURVE",
"173 252 CURVE",
"159 261 OFFCURVE",
"150 276 OFFCURVE",
"150 293 CURVE SMOOTH",
"150 320 OFFCURVE",
"172 342 OFFCURVE",
"199 342 CURVE SMOOTH",
"203 342 OFFCURVE",
"206 342 OFFCURVE",
"210 341 CURVE",
"196 350 OFFCURVE",
"188 365 OFFCURVE",
"188 382 CURVE SMOOTH",
"188 409 OFFCURVE",
"209 431 OFFCURVE",
"236 431 CURVE SMOOTH",
"240 431 OFFCURVE",
"244 431 OFFCURVE",
"248 430 CURVE",
"234 439 OFFCURVE",
"225 454 OFFCURVE",
"225 471 CURVE SMOOTH",
"225 488 OFFCURVE",
"234 503 OFFCURVE",
"248 512 CURVE",
"244 511 OFFCURVE",
"240 511 OFFCURVE",
"236 511 CURVE SMOOTH",
"221 511 OFFCURVE",
"208 518 OFFCURVE",
"199 529 CURVE",
"190 518 OFFCURVE",
"176 511 OFFCURVE",
"161 511 CURVE SMOOTH",
"146 511 OFFCURVE",
"133 518 OFFCURVE",
"124 529 CURVE",
"115 518 OFFCURVE",
"101 511 OFFCURVE",
"86 511 CURVE SMOOTH",
"59 511 OFFCURVE",
"37 533 OFFCURVE",
"37 560 CURVE SMOOTH",
"37 587 OFFCURVE",
"59 609 OFFCURVE",
"86 609 CURVE SMOOTH",
"101 609 OFFCURVE",
"115 602 OFFCURVE",
"124 591 CURVE",
"133 602 OFFCURVE",
"146 609 OFFCURVE",
"161 609 CURVE SMOOTH",
"176 609 OFFCURVE",
"190 602 OFFCURVE",
"199 591 CURVE",
"208 602 OFFCURVE",
"221 609 OFFCURVE",
"236 609 CURVE SMOOTH",
"251 609 OFFCURVE",
"265 602 OFFCURVE",
"274 591 CURVE",
"283 602 OFFCURVE",
"296 609 OFFCURVE",
"311 609 CURVE SMOOTH",
"338 609 OFFCURVE",
"360 587 OFFCURVE"
);
},
{
closed = 1;
nodes = (
"274 529 CURVE",
"271 525 OFFCURVE",
"266 522 OFFCURVE",
"262 519 CURVE",
"266 520 OFFCURVE",
"270 520 OFFCURVE",
"274 520 CURVE SMOOTH",
"278 520 OFFCURVE",
"281 520 OFFCURVE",
"285 519 CURVE",
"281 522 OFFCURVE",
"277 525 OFFCURVE"
);
},
{
closed = 1;
nodes = (
"112 68 CURVE",
"116 65 OFFCURVE",
"121 62 OFFCURVE",
"124 58 CURVE",
"127 62 OFFCURVE",
"131 65 OFFCURVE",
"135 68 CURVE",
"131 67 OFFCURVE",
"128 67 OFFCURVE",
"124 67 CURVE SMOOTH",
"120 67 OFFCURVE",
"116 67 OFFCURVE"
);
}
);
width = 450;
}
);
unicode = 005A;
userData = {
com.fontlab.hintData = {
hhints = (
{
position = -22;
width = 98;
},
{
position = 67;
width = 97;
},
{
position = 156;
width = 97;
},
{
position = 411;
width = 20;
},
{
position = 511;
width = 98;
}
);
vhints = (
{
position = 75;
width = 98;
},
{
position = 112;
width = 98;
},
{
position = 150;
width = 98;
},
{
position = 188;
width = 97;
},
{
position = 225;
width = 98;
}
);
};
};
},
{
glyphname = a;
lastChange = "2017-08-06 04:45:23 +0000";
layers = (
{
layerId = "50D14539-243D-4DFB-80D4-A58473C3BD4B";
paths = (
{
closed = 1;
nodes = (
"323 382 CURVE SMOOTH",
"323 365 OFFCURVE",
"314 350 OFFCURVE",
"300 341 CURVE",
"304 342 OFFCURVE",
"307 342 OFFCURVE",
"311 342 CURVE SMOOTH",
"338 342 OFFCURVE",
"360 320 OFFCURVE",
"360 293 CURVE SMOOTH",
"360 273 OFFCURVE",
"349 257 OFFCURVE",
"332 249 CURVE",
"349 241 OFFCURVE",
"360 224 OFFCURVE",
"360 204 CURVE SMOOTH",
"360 184 OFFCURVE",
"349 168 OFFCURVE",
"332 160 CURVE",
"349 152 OFFCURVE",
"360 136 OFFCURVE",
"360 116 CURVE SMOOTH",
"360 99 OFFCURVE",
"351 83 OFFCURVE",
"337 74 CURVE",
"341 75 OFFCURVE",
"345 76 OFFCURVE",
"349 76 CURVE SMOOTH",
"376 76 OFFCURVE",
"398 54 OFFCURVE",
"398 27 CURVE SMOOTH",
"398 0 OFFCURVE",
"376 -22 OFFCURVE",
"349 -22 CURVE SMOOTH",
"322 -22 OFFCURVE",
"300 0 OFFCURVE",
"300 27 CURVE SMOOTH",
"300 44 OFFCURVE",
"309 59 OFFCURVE",
"323 68 CURVE",
"319 67 OFFCURVE",
"315 67 OFFCURVE",
"311 67 CURVE SMOOTH",
"284 67 OFFCURVE",
"262 89 OFFCURVE",
"262 116 CURVE SMOOTH",
"262 136 OFFCURVE",
"274 152 OFFCURVE",
"291 160 CURVE",
"284 163 OFFCURVE",
"279 167 OFFCURVE",
"274 173 CURVE",
"265 162 OFFCURVE",
"251 156 OFFCURVE",
"236 156 CURVE SMOOTH",
"221 156 OFFCURVE",
"208 162 OFFCURVE",
"199 173 CURVE",
"190 162 OFFCURVE",
"176 156 OFFCURVE",
"161 156 CURVE SMOOTH",
"146 156 OFFCURVE",
"133 162 OFFCURVE",
"124 173 CURVE",
"115 162 OFFCURVE",
"101 156 OFFCURVE",
"86 156 CURVE SMOOTH",
"82 156 OFFCURVE",
"79 156 OFFCURVE",
"75 157 CURVE",
"89 148 OFFCURVE",
"98 133 OFFCURVE",
"98 116 CURVE SMOOTH",
"98 99 OFFCURVE",
"89 83 OFFCURVE",
"75 74 CURVE",
"79 75 OFFCURVE",
"82 76 OFFCURVE",
"86 76 CURVE SMOOTH",
"101 76 OFFCURVE",
"115 69 OFFCURVE",
"124 58 CURVE",
"133 69 OFFCURVE",
"146 76 OFFCURVE",
"161 76 CURVE SMOOTH",
"176 76 OFFCURVE",
"190 69 OFFCURVE",
"199 58 CURVE",
"208 69 OFFCURVE",
"221 76 OFFCURVE",
"236 76 CURVE SMOOTH",
"263 76 OFFCURVE",
"285 54 OFFCURVE",
"285 27 CURVE SMOOTH",
"285 0 OFFCURVE",
"263 -22 OFFCURVE",
"236 -22 CURVE SMOOTH",
"221 -22 OFFCURVE",
"208 -16 OFFCURVE",
"199 -5 CURVE",
"190 -16 OFFCURVE",
"176 -22 OFFCURVE",
"161 -22 CURVE SMOOTH",
"146 -22 OFFCURVE",
"133 -16 OFFCURVE",
"124 -5 CURVE",
"115 -16 OFFCURVE",
"101 -22 OFFCURVE",
"86 -22 CURVE SMOOTH",
"59 -22 OFFCURVE",
"37 0 OFFCURVE",
"37 27 CURVE SMOOTH",
"37 44 OFFCURVE",
"46 59 OFFCURVE",
"60 68 CURVE",
"56 67 OFFCURVE",
"53 67 OFFCURVE",
"49 67 CURVE SMOOTH",
"22 67 OFFCURVE",
"0 89 OFFCURVE",
"0 116 CURVE SMOOTH",
"0 143 OFFCURVE",
"22 164 OFFCURVE",
"49 164 CURVE SMOOTH",
"53 164 OFFCURVE",
"56 164 OFFCURVE",
"60 163 CURVE",
"46 172 OFFCURVE",
"37 187 OFFCURVE",
"37 204 CURVE SMOOTH",
"37 231 OFFCURVE",
"59 253 OFFCURVE",
"86 253 CURVE SMOOTH",
"101 253 OFFCURVE",
"115 247 OFFCURVE",
"124 236 CURVE",
"133 247 OFFCURVE",
"146 253 OFFCURVE",
"161 253 CURVE SMOOTH",
"176 253 OFFCURVE",
"190 247 OFFCURVE",
"199 236 CURVE",
"208 247 OFFCURVE",
"221 253 OFFCURVE",
"236 253 CURVE SMOOTH",
"251 253 OFFCURVE",
"265 247 OFFCURVE",
"274 236 CURVE",
"279 242 OFFCURVE",
"284 246 OFFCURVE",
"291 249 CURVE",
"274 257 OFFCURVE",
"262 273 OFFCURVE",
"262 293 CURVE SMOOTH",
"262 310 OFFCURVE",
"271 326 OFFCURVE",
"285 335 CURVE",
"281 334 OFFCURVE",
"278 333 OFFCURVE",
"274 333 CURVE SMOOTH",
"259 333 OFFCURVE",
"245 340 OFFCURVE",
"236 351 CURVE",
"227 340 OFFCURVE",
"214 333 OFFCURVE",
"199 333 CURVE SMOOTH",
"184 333 OFFCURVE",
"170 340 OFFCURVE",
"161 351 CURVE",
"152 340 OFFCURVE",
"139 333 OFFCURVE",
"124 333 CURVE SMOOTH",
"97 333 OFFCURVE",
"75 355 OFFCURVE",
"75 382 CURVE SMOOTH",
"75 409 OFFCURVE",
"97 431 OFFCURVE",
"124 431 CURVE SMOOTH",
"139 431 OFFCURVE",
"152 425 OFFCURVE",
"161 414 CURVE",
"170 425 OFFCURVE",
"184 431 OFFCURVE",
"199 431 CURVE SMOOTH",
"214 431 OFFCURVE",
"227 425 OFFCURVE",
"236 414 CURVE",
"245 425 OFFCURVE",
"259 431 OFFCURVE",
"274 431 CURVE SMOOTH",
"301 431 OFFCURVE",
"323 409 OFFCURVE"
);
}
);
width = 450;
}
);
unicode = 0061;
userData = {
com.fontlab.hintData = {
hhints = (
{
position = -22;
width = 98;
},
{
position = 67;
width = 97;
},
{
position = 156;
width = 97;
},
{
position = 333;
width = 98;
}
);
vhints = (
{
position = 0;
width = 98;
},
{
position = 262;
width = 98;
},
{
position = 300;
width = 98;
}
);
};
};
},
{
glyphname = b;
lastChange = "2017-08-06 04:45:23 +0000";
layers = (
{
layerId = "50D14539-243D-4DFB-80D4-A58473C3BD4B";
paths = (
{
closed = 1;
nodes = (
"98 560 CURVE SMOOTH",
"98 540 OFFCURVE",
"86 524 OFFCURVE",
"69 516 CURVE",
"86 508 OFFCURVE",
"98 491 OFFCURVE",
"98 471 CURVE SMOOTH",
"98 451 OFFCURVE",
"86 435 OFFCURVE",
"69 427 CURVE",
"76 424 OFFCURVE",
"81 420 OFFCURVE",
"86 414 CURVE",
"95 425 OFFCURVE",
"109 431 OFFCURVE",
"124 431 CURVE SMOOTH",
"139 431 OFFCURVE",
"152 425 OFFCURVE",
"161 414 CURVE",
"170 425 OFFCURVE",
"184 431 OFFCURVE",
"199 431 CURVE SMOOTH",
"214 431 OFFCURVE",
"227 425 OFFCURVE",
"236 414 CURVE",
"245 425 OFFCURVE",
"259 431 OFFCURVE",
"274 431 CURVE SMOOTH",
"301 431 OFFCURVE",
"323 409 OFFCURVE",
"323 382 CURVE SMOOTH",
"323 365 OFFCURVE",
"314 350 OFFCURVE",
"300 341 CURVE",
"304 342 OFFCURVE",
"307 342 OFFCURVE",
"311 342 CURVE SMOOTH",
"338 342 OFFCURVE",
"360 320 OFFCURVE",
"360 293 CURVE SMOOTH",
"360 273 OFFCURVE",
"349 257 OFFCURVE",
"332 249 CURVE",
"349 241 OFFCURVE",
"360 224 OFFCURVE",
"360 204 CURVE SMOOTH",
"360 184 OFFCURVE",
"349 168 OFFCURVE",
"332 160 CURVE",
"349 152 OFFCURVE",
"360 136 OFFCURVE",
"360 116 CURVE SMOOTH",
"360 89 OFFCURVE",
"338 67 OFFCURVE",
"311 67 CURVE SMOOTH",
"307 67 OFFCURVE",
"304 67 OFFCURVE",
"300 68 CURVE",
"314 59 OFFCURVE",
"323 44 OFFCURVE",
"323 27 CURVE SMOOTH",
"323 0 OFFCURVE",
"301 -22 OFFCURVE",
"274 -22 CURVE SMOOTH",
"259 -22 OFFCURVE",
"245 -16 OFFCURVE",
"236 -5 CURVE",
"227 -16 OFFCURVE",
"214 -22 OFFCURVE",
"199 -22 CURVE SMOOTH",
"184 -22 OFFCURVE",
"170 -16 OFFCURVE",
"161 -5 CURVE",
"152 -16 OFFCURVE",
"139 -22 OFFCURVE",
"124 -22 CURVE SMOOTH",
"109 -22 OFFCURVE",
"95 -16 OFFCURVE",
"86 -5 CURVE",
"77 -16 OFFCURVE",
"64 -22 OFFCURVE",
"49 -22 CURVE SMOOTH",
"22 -22 OFFCURVE",
"0 0 OFFCURVE",
"0 27 CURVE SMOOTH",
"0 47 OFFCURVE",
"12 63 OFFCURVE",
"29 71 CURVE",
"12 79 OFFCURVE",
"0 96 OFFCURVE",
"0 116 CURVE SMOOTH",
"0 136 OFFCURVE",
"12 152 OFFCURVE",
"29 160 CURVE",
"12 168 OFFCURVE",
"0 184 OFFCURVE",
"0 204 CURVE SMOOTH",
"0 224 OFFCURVE",
"12 241 OFFCURVE",
"29 249 CURVE",
"12 257 OFFCURVE",
"0 273 OFFCURVE",
"0 293 CURVE SMOOTH",
"0 313 OFFCURVE",
"12 330 OFFCURVE",
"29 338 CURVE",
"12 346 OFFCURVE",
"0 362 OFFCURVE",
"0 382 CURVE SMOOTH",
"0 402 OFFCURVE",
"12 419 OFFCURVE",
"29 427 CURVE",
"12 435 OFFCURVE",
"0 451 OFFCURVE",
"0 471 CURVE SMOOTH",
"0 491 OFFCURVE",
"12 508 OFFCURVE",
"29 516 CURVE",
"12 524 OFFCURVE",
"0 540 OFFCURVE",
"0 560 CURVE SMOOTH",
"0 587 OFFCURVE",
"22 609 OFFCURVE",
"49 609 CURVE SMOOTH",
"76 609 OFFCURVE",
"98 587 OFFCURVE"
);
},
{
closed = 1;
nodes = (
"86 351 CURVE",
"81 345 OFFCURVE",
"76 341 OFFCURVE",
"69 338 CURVE",
"86 330 OFFCURVE",
"98 313 OFFCURVE",
"98 293 CURVE SMOOTH",
"98 273 OFFCURVE",
"86 257 OFFCURVE",
"69 249 CURVE",
"86 241 OFFCURVE",
"98 224 OFFCURVE",
"98 204 CURVE SMOOTH",
"98 184 OFFCURVE",
"86 168 OFFCURVE",
"69 160 CURVE",
"86 152 OFFCURVE",
"98 136 OFFCURVE",
"98 116 CURVE SMOOTH",
"98 96 OFFCURVE",
"86 79 OFFCURVE",
"69 71 CURVE",
"76 68 OFFCURVE",
"81 64 OFFCURVE",
"86 58 CURVE",
"95 69 OFFCURVE",
"109 76 OFFCURVE",
"124 76 CURVE SMOOTH",
"139 76 OFFCURVE",
"152 69 OFFCURVE",
"161 58 CURVE",
"170 69 OFFCURVE",
"184 76 OFFCURVE",
"199 76 CURVE SMOOTH",
"214 76 OFFCURVE",
"227 69 OFFCURVE",
"236 58 CURVE",
"245 69 OFFCURVE",
"259 76 OFFCURVE",
"274 76 CURVE SMOOTH",
"278 76 OFFCURVE",
"281 75 OFFCURVE",
"285 74 CURVE",
"271 83 OFFCURVE",
"262 99 OFFCURVE",
"262 116 CURVE SMOOTH",
"262 136 OFFCURVE",
"274 152 OFFCURVE",
"291 160 CURVE",
"274 168 OFFCURVE",
"262 184 OFFCURVE",
"262 204 CURVE SMOOTH",
"262 224 OFFCURVE",
"274 241 OFFCURVE",
"291 249 CURVE",
"274 257 OFFCURVE",
"262 273 OFFCURVE",
"262 293 CURVE SMOOTH",
"262 310 OFFCURVE",
"271 326 OFFCURVE",
"285 335 CURVE",
"281 334 OFFCURVE",
"278 333 OFFCURVE",
"274 333 CURVE SMOOTH",
"259 333 OFFCURVE",
"245 340 OFFCURVE",
"236 351 CURVE",
"227 340 OFFCURVE",
"214 333 OFFCURVE",
"199 333 CURVE SMOOTH",
"184 333 OFFCURVE",
"170 340 OFFCURVE",
"161 351 CURVE",
"152 340 OFFCURVE",
"139 333 OFFCURVE",
"124 333 CURVE SMOOTH",
"109 333 OFFCURVE",
"95 340 OFFCURVE"
);
}
);
width = 450;
}
);
unicode = 0062;
userData = {
com.fontlab.hintData = {
hhints = (
{
position = -22;
width = 98;
},
{
position = 333;
width = 98;
},
{
position = 589;
width = 20;
}
);
vhints = (
{
position = 0;
width = 98;
},
{
position = 262;
width = 98;
}
);
};
};
},
{
glyphname = c;
lastChange = "2017-08-06 04:45:23 +0000";
layers = (
{
layerId = "50D14539-243D-4DFB-80D4-A58473C3BD4B";
paths = (
{
closed = 1;
nodes = (
"360 382 CURVE SMOOTH",
"360 355 OFFCURVE",
"338 333 OFFCURVE",
"311 333 CURVE SMOOTH",
"296 333 OFFCURVE",
"283 340 OFFCURVE",
"274 351 CURVE",
"265 340 OFFCURVE",
"251 333 OFFCURVE",
"236 333 CURVE SMOOTH",
"221 333 OFFCURVE",
"208 340 OFFCURVE",
"199 351 CURVE",
"190 340 OFFCURVE",
"176 333 OFFCURVE",
"161 333 CURVE SMOOTH",
"146 333 OFFCURVE",
"133 340 OFFCURVE",
"124 351 CURVE",
"115 340 OFFCURVE",
"101 333 OFFCURVE",
"86 333 CURVE SMOOTH",
"82 333 OFFCURVE",
"79 334 OFFCURVE",
"75 335 CURVE",
"89 326 OFFCURVE",
"98 310 OFFCURVE",
"98 293 CURVE SMOOTH",
"98 273 OFFCURVE",
"86 257 OFFCURVE",
"69 249 CURVE",
"86 241 OFFCURVE",
"98 224 OFFCURVE",
"98 204 CURVE SMOOTH",
"98 184 OFFCURVE",
"86 168 OFFCURVE",
"69 160 CURVE",
"86 152 OFFCURVE",
"98 136 OFFCURVE",
"98 116 CURVE SMOOTH",
"98 99 OFFCURVE",
"89 83 OFFCURVE",
"75 74 CURVE",
"79 75 OFFCURVE",
"82 76 OFFCURVE",
"86 76 CURVE SMOOTH",
"101 76 OFFCURVE",
"115 69 OFFCURVE",
"124 58 CURVE",
"133 69 OFFCURVE",
"146 76 OFFCURVE",
"161 76 CURVE SMOOTH",
"176 76 OFFCURVE",
"190 69 OFFCURVE",
"199 58 CURVE",
"208 69 OFFCURVE",
"221 76 OFFCURVE",
"236 76 CURVE SMOOTH",
"251 76 OFFCURVE",
"265 69 OFFCURVE",
"274 58 CURVE",
"283 69 OFFCURVE",
"296 76 OFFCURVE",
"311 76 CURVE SMOOTH",
"338 76 OFFCURVE",
"360 54 OFFCURVE",
"360 27 CURVE SMOOTH",
"360 0 OFFCURVE",
"338 -22 OFFCURVE",
"311 -22 CURVE SMOOTH",
"296 -22 OFFCURVE",
"283 -16 OFFCURVE",
"274 -5 CURVE",
"265 -16 OFFCURVE",
"251 -22 OFFCURVE",
"236 -22 CURVE SMOOTH",
"221 -22 OFFCURVE",
"208 -16 OFFCURVE",
"199 -5 CURVE",
"190 -16 OFFCURVE",
"176 -22 OFFCURVE",
"161 -22 CURVE SMOOTH",
"146 -22 OFFCURVE",
"133 -16 OFFCURVE",
"124 -5 CURVE",
"115 -16 OFFCURVE",
"101 -22 OFFCURVE",
"86 -22 CURVE SMOOTH",
"59 -22 OFFCURVE",
"37 0 OFFCURVE",
"37 27 CURVE SMOOTH",
"37 44 OFFCURVE",
"46 59 OFFCURVE",
"60 68 CURVE",
"56 67 OFFCURVE",
"53 67 OFFCURVE",
"49 67 CURVE SMOOTH",
"22 67 OFFCURVE",
"0 89 OFFCURVE",
"0 116 CURVE SMOOTH",
"0 136 OFFCURVE",
"12 152 OFFCURVE",
"29 160 CURVE",
"12 168 OFFCURVE",
"0 184 OFFCURVE",
"0 204 CURVE SMOOTH",
"0 224 OFFCURVE",
"12 241 OFFCURVE",
"29 249 CURVE",
"12 257 OFFCURVE",
"0 273 OFFCURVE",
"0 293 CURVE SMOOTH",
"0 320 OFFCURVE",
"22 342 OFFCURVE",
"49 342 CURVE SMOOTH",
"53 342 OFFCURVE",
"56 342 OFFCURVE",
"60 341 CURVE",
"46 350 OFFCURVE",
"37 365 OFFCURVE",
"37 382 CURVE SMOOTH",
"37 409 OFFCURVE",
"59 431 OFFCURVE",
"86 431 CURVE SMOOTH",
"101 431 OFFCURVE",
"115 425 OFFCURVE",
"124 414 CURVE",
"133 425 OFFCURVE",
"146 431 OFFCURVE",
"161 431 CURVE SMOOTH",
"176 431 OFFCURVE",
"190 425 OFFCURVE",
"199 414 CURVE",
"208 425 OFFCURVE",
"221 431 OFFCURVE",
"236 431 CURVE SMOOTH",
"251 431 OFFCURVE",
"265 425 OFFCURVE",
"274 414 CURVE",
"283 425 OFFCURVE",
"296 431 OFFCURVE",
"311 431 CURVE SMOOTH",
"338 431 OFFCURVE",
"360 409 OFFCURVE"
);
}
);
width = 450;
}
);
unicode = 0063;
userData = {
com.fontlab.hintData = {
hhints = (
{
position = -22;
width = 98;
},
{
position = 333;
width = 98;
}
);
vhints = (
{
position = 0;
width = 98;
}
);
};
};
},
{
glyphname = d;
lastChange = "2017-08-06 04:45:23 +0000";
layers = (
{
layerId = "50D14539-243D-4DFB-80D4-A58473C3BD4B";
paths = (
{
closed = 1;
nodes = (
"360 560 CURVE SMOOTH",
"360 540 OFFCURVE",
"349 524 OFFCURVE",
"332 516 CURVE",
"349 508 OFFCURVE",
"360 491 OFFCURVE",
"360 471 CURVE SMOOTH",
"360 451 OFFCURVE",
"349 435 OFFCURVE",
"332 427 CURVE",
"349 419 OFFCURVE",
"360 402 OFFCURVE",
"360 382 CURVE SMOOTH",
"360 362 OFFCURVE",
"349 346 OFFCURVE",
"332 338 CURVE",
"349 330 OFFCURVE",
"360 313 OFFCURVE",
"360 293 CURVE SMOOTH",
"360 273 OFFCURVE",
"349 257 OFFCURVE",
"332 249 CURVE",
"349 241 OFFCURVE",
"360 224 OFFCURVE",
"360 204 CURVE SMOOTH",
"360 184 OFFCURVE",
"349 168 OFFCURVE",
"332 160 CURVE",
"349 152 OFFCURVE",
"360 136 OFFCURVE",
"360 116 CURVE SMOOTH",
"360 96 OFFCURVE",
"349 79 OFFCURVE",
"332 71 CURVE",
"349 63 OFFCURVE",
"360 47 OFFCURVE",
"360 27 CURVE SMOOTH",
"360 0 OFFCURVE",
"338 -22 OFFCURVE",
"311 -22 CURVE SMOOTH",
"296 -22 OFFCURVE",
"283 -16 OFFCURVE",
"274 -5 CURVE",
"265 -16 OFFCURVE",
"251 -22 OFFCURVE",
"236 -22 CURVE SMOOTH",
"221 -22 OFFCURVE",
"208 -16 OFFCURVE",
"199 -5 CURVE",
"190 -16 OFFCURVE",
"176 -22 OFFCURVE",
"161 -22 CURVE SMOOTH",
"146 -22 OFFCURVE",
"133 -16 OFFCURVE",
"124 -5 CURVE",
"115 -16 OFFCURVE",
"101 -22 OFFCURVE",
"86 -22 CURVE SMOOTH",
"59 -22 OFFCURVE",
"37 0 OFFCURVE",
"37 27 CURVE SMOOTH",
"37 44 OFFCURVE",
"46 59 OFFCURVE",
"60 68 CURVE",
"56 67 OFFCURVE",
"53 67 OFFCURVE",
"49 67 CURVE SMOOTH",
"22 67 OFFCURVE",
"0 89 OFFCURVE",
"0 116 CURVE SMOOTH",
"0 136 OFFCURVE",
"12 152 OFFCURVE",
"29 160 CURVE",
"12 168 OFFCURVE",
"0 184 OFFCURVE",
"0 204 CURVE SMOOTH",
"0 224 OFFCURVE",
"12 241 OFFCURVE",
"29 249 CURVE",
"12 257 OFFCURVE",
"0 273 OFFCURVE",
"0 293 CURVE SMOOTH",
"0 320 OFFCURVE",
"22 342 OFFCURVE",
"49 342 CURVE SMOOTH",
"53 342 OFFCURVE",
"56 342 OFFCURVE",
"60 341 CURVE",
"46 350 OFFCURVE",
"37 365 OFFCURVE",
"37 382 CURVE SMOOTH",
"37 409 OFFCURVE",
"59 431 OFFCURVE",
"86 431 CURVE SMOOTH",
"101 431 OFFCURVE",
"115 425 OFFCURVE",
"124 414 CURVE",
"133 425 OFFCURVE",
"146 431 OFFCURVE",
"161 431 CURVE SMOOTH",
"176 431 OFFCURVE",
"190 425 OFFCURVE",
"199 414 CURVE",
"208 425 OFFCURVE",
"221 431 OFFCURVE",
"236 431 CURVE SMOOTH",
"251 431 OFFCURVE",
"265 425 OFFCURVE",
"274 414 CURVE",
"279 420 OFFCURVE",
"284 424 OFFCURVE",
"291 427 CURVE",
"274 435 OFFCURVE",
"262 451 OFFCURVE",
"262 471 CURVE SMOOTH",
"262 491 OFFCURVE",
"274 508 OFFCURVE",
"291 516 CURVE",
"274 524 OFFCURVE",
"262 540 OFFCURVE",
"262 560 CURVE SMOOTH",
"262 587 OFFCURVE",
"284 609 OFFCURVE",
"311 609 CURVE SMOOTH",
"338 609 OFFCURVE",
"360 587 OFFCURVE"
);
},
{
closed = 1;
nodes = (
"124 351 CURVE",
"115 340 OFFCURVE",
"101 333 OFFCURVE",
"86 333 CURVE SMOOTH",
"82 333 OFFCURVE",
"79 334 OFFCURVE",
"75 335 CURVE",
"89 326 OFFCURVE",
"98 310 OFFCURVE",
"98 293 CURVE SMOOTH",
"98 273 OFFCURVE",
"86 257 OFFCURVE",
"69 249 CURVE",
"86 241 OFFCURVE",
"98 224 OFFCURVE",
"98 204 CURVE SMOOTH",
"98 184 OFFCURVE",
"86 168 OFFCURVE",
"69 160 CURVE",
"86 152 OFFCURVE",
"98 136 OFFCURVE",
"98 116 CURVE SMOOTH",
"98 99 OFFCURVE",
"89 83 OFFCURVE",
"75 74 CURVE",
"79 75 OFFCURVE",
"82 76 OFFCURVE",
"86 76 CURVE SMOOTH",
"101 76 OFFCURVE",
"115 69 OFFCURVE",
"124 58 CURVE",
"133 69 OFFCURVE",
"146 76 OFFCURVE",
"161 76 CURVE SMOOTH",
"176 76 OFFCURVE",
"190 69 OFFCURVE",
"199 58 CURVE",
"208 69 OFFCURVE",
"221 76 OFFCURVE",
"236 76 CURVE SMOOTH",
"251 76 OFFCURVE",
"265 69 OFFCURVE",
"274 58 CURVE",
"279 64 OFFCURVE",
"284 68 OFFCURVE",
"291 71 CURVE",
"274 79 OFFCURVE",
"262 96 OFFCURVE",
"262 116 CURVE SMOOTH",
"262 136 OFFCURVE",
"274 152 OFFCURVE",
"291 160 CURVE",
"274 168 OFFCURVE",
"262 184 OFFCURVE",
"262 204 CURVE SMOOTH",
"262 224 OFFCURVE",
"274 241 OFFCURVE",
"291 249 CURVE",
"274 257 OFFCURVE",
"262 273 OFFCURVE",
"262 293 CURVE SMOOTH",
"262 313 OFFCURVE",
"274 330 OFFCURVE",
"291 338 CURVE",
"284 341 OFFCURVE",
"279 345 OFFCURVE",
"274 351 CURVE",
"265 340 OFFCURVE",
"251 333 OFFCURVE",
"236 333 CURVE SMOOTH",
"221 333 OFFCURVE",
"208 340 OFFCURVE",
"199 351 CURVE",
"190 340 OFFCURVE",
"176 333 OFFCURVE",
"161 333 CURVE SMOOTH",
"146 333 OFFCURVE",
"133 340 OFFCURVE"
);
}
);
width = 450;
}
);
unicode = 0064;
userData = {
com.fontlab.hintData = {
hhints = (
{
position = -22;
width = 98;
},
{
position = 333;
width = 98;
},
{
position = 589;
width = 20;
}
);
vhints = (
{
position = 0;
width = 98;
},
{
position = 262;
width = 98;
}
);
};
};
},
{
glyphname = e;
lastChange = "2017-08-06 04:45:23 +0000";
layers = (
{
layerId = "50D14539-243D-4DFB-80D4-A58473C3BD4B";
paths = (
{
closed = 1;
nodes = (
"360 382 CURVE SMOOTH",
"360 365 OFFCURVE",
"351 350 OFFCURVE",
"337 341 CURVE",
"341 342 OFFCURVE",
"345 342 OFFCURVE",
"349 342 CURVE SMOOTH",
"376 342 OFFCURVE",
"398 320 OFFCURVE",
"398 293 CURVE SMOOTH",
"398 273 OFFCURVE",
"386 257 OFFCURVE",
"369 249 CURVE",
"386 241 OFFCURVE",
"398 224 OFFCURVE",
"398 204 CURVE SMOOTH",
"398 177 OFFCURVE",
"376 156 OFFCURVE",
"349 156 CURVE SMOOTH",
"334 156 OFFCURVE",
"320 162 OFFCURVE",
"311 173 CURVE",
"302 162 OFFCURVE",
"289 156 OFFCURVE",
"274 156 CURVE SMOOTH",
"259 156 OFFCURVE",
"245 162 OFFCURVE",
"236 173 CURVE",
"227 162 OFFCURVE",
"214 156 OFFCURVE",
"199 156 CURVE SMOOTH",
"184 156 OFFCURVE",
"170 162 OFFCURVE",
"161 173 CURVE",
"152 162 OFFCURVE",
"139 156 OFFCURVE",
"124 156 CURVE SMOOTH",
"109 156 OFFCURVE",
"95 162 OFFCURVE",
"86 173 CURVE",
"81 167 OFFCURVE",
"76 163 OFFCURVE",
"69 160 CURVE",
"86 152 OFFCURVE",
"98 136 OFFCURVE",
"98 116 CURVE SMOOTH",
"98 99 OFFCURVE",
"89 83 OFFCURVE",
"75 74 CURVE",
"79 75 OFFCURVE",
"82 76 OFFCURVE",
"86 76 CURVE SMOOTH",
"101 76 OFFCURVE",
"115 69 OFFCURVE",
"124 58 CURVE",
"133 69 OFFCURVE",
"146 76 OFFCURVE",
"161 76 CURVE SMOOTH",
"176 76 OFFCURVE",
"190 69 OFFCURVE",
"199 58 CURVE",
"208 69 OFFCURVE",
"221 76 OFFCURVE",
"236 76 CURVE SMOOTH",
"251 76 OFFCURVE",
"265 69 OFFCURVE",
"274 58 CURVE",
"283 69 OFFCURVE",
"296 76 OFFCURVE",
"311 76 CURVE SMOOTH",
"338 76 OFFCURVE",
"360 54 OFFCURVE",
"360 27 CURVE SMOOTH",
"360 0 OFFCURVE",
"338 -22 OFFCURVE",
"311 -22 CURVE SMOOTH",
"296 -22 OFFCURVE",
"283 -16 OFFCURVE",
"274 -5 CURVE",
"265 -16 OFFCURVE",
"251 -22 OFFCURVE",
"236 -22 CURVE SMOOTH",
"221 -22 OFFCURVE",
"208 -16 OFFCURVE",
"199 -5 CURVE",
"190 -16 OFFCURVE",
"176 -22 OFFCURVE",
"161 -22 CURVE SMOOTH",
"146 -22 OFFCURVE",
"133 -16 OFFCURVE",
"124 -5 CURVE",
"115 -16 OFFCURVE",
"101 -22 OFFCURVE",
"86 -22 CURVE SMOOTH",
"59 -22 OFFCURVE",
"37 0 OFFCURVE",
"37 27 CURVE SMOOTH",
"37 44 OFFCURVE",
"46 59 OFFCURVE",
"60 68 CURVE",
"56 67 OFFCURVE",
"53 67 OFFCURVE",
"49 67 CURVE SMOOTH",
"22 67 OFFCURVE",
"0 89 OFFCURVE",
"0 116 CURVE SMOOTH",
"0 136 OFFCURVE",
"12 152 OFFCURVE",
"29 160 CURVE",
"12 168 OFFCURVE",
"0 184 OFFCURVE",
"0 204 CURVE SMOOTH",
"0 224 OFFCURVE",
"12 241 OFFCURVE",
"29 249 CURVE",
"12 257 OFFCURVE",
"0 273 OFFCURVE",
"0 293 CURVE SMOOTH",
"0 320 OFFCURVE",
"22 342 OFFCURVE",
"49 342 CURVE SMOOTH",
"53 342 OFFCURVE",
"56 342 OFFCURVE",
"60 341 CURVE",
"46 350 OFFCURVE",
"37 365 OFFCURVE",
"37 382 CURVE SMOOTH",
"37 409 OFFCURVE",
"59 431 OFFCURVE",
"86 431 CURVE SMOOTH",
"101 431 OFFCURVE",
"115 425 OFFCURVE",
"124 414 CURVE",
"133 425 OFFCURVE",
"146 431 OFFCURVE",
"161 431 CURVE SMOOTH",
"176 431 OFFCURVE",
"190 425 OFFCURVE",
"199 414 CURVE",
"208 425 OFFCURVE",
"221 431 OFFCURVE",
"236 431 CURVE SMOOTH",
"251 431 OFFCURVE",
"265 425 OFFCURVE",
"274 414 CURVE",
"283 425 OFFCURVE",
"296 431 OFFCURVE",
"311 431 CURVE SMOOTH",
"338 431 OFFCURVE",
"360 409 OFFCURVE"
);
},
{
closed = 1;
nodes = (
"124 351 CURVE",
"115 340 OFFCURVE",
"101 333 OFFCURVE",
"86 333 CURVE SMOOTH",
"82 333 OFFCURVE",
"79 334 OFFCURVE",
"75 335 CURVE",
"89 326 OFFCURVE",
"98 310 OFFCURVE",
"98 293 CURVE SMOOTH",
"98 273 OFFCURVE",
"86 257 OFFCURVE",
"69 249 CURVE",
"76 246 OFFCURVE",
"81 242 OFFCURVE",
"86 236 CURVE",
"95 247 OFFCURVE",
"109 253 OFFCURVE",
"124 253 CURVE SMOOTH",
"139 253 OFFCURVE",
"152 247 OFFCURVE",
"161 236 CURVE",
"170 247 OFFCURVE",
"184 253 OFFCURVE",
"199 253 CURVE SMOOTH",
"214 253 OFFCURVE",
"227 247 OFFCURVE",
"236 236 CURVE",
"245 247 OFFCURVE",
"259 253 OFFCURVE",
"274 253 CURVE SMOOTH",
"289 253 OFFCURVE",
"302 247 OFFCURVE",
"311 236 CURVE",
"316 242 OFFCURVE",
"322 246 OFFCURVE",
"329 249 CURVE",
"312 257 OFFCURVE",
"300 273 OFFCURVE",
"300 293 CURVE SMOOTH",
"300 310 OFFCURVE",
"309 326 OFFCURVE",
"323 335 CURVE",
"319 334 OFFCURVE",
"315 333 OFFCURVE",
"311 333 CURVE SMOOTH",
"296 333 OFFCURVE",
"283 340 OFFCURVE",
"274 351 CURVE",
"265 340 OFFCURVE",
"251 333 OFFCURVE",
"236 333 CURVE SMOOTH",
"221 333 OFFCURVE",
"208 340 OFFCURVE",
"199 351 CURVE",
"190 340 OFFCURVE",
"176 333 OFFCURVE",
"161 333 CURVE SMOOTH",
"146 333 OFFCURVE",
"133 340 OFFCURVE"
);
}
);
width = 450;
}
);
unicode = 0065;
userData = {
com.fontlab.hintData = {
hhints = (
{
position = -22;
width = 98;
},
{
position = 156;
width = 97;
},
{
position = 333;
width = 98;
}
);
vhints = (
{
position = 0;
width = 98;
},
{
position = 300;
width = 98;
}
);
};
};
},
{
glyphname = f;
lastChange = "2017-08-06 04:45:23 +0000";
layers = (
{
layerId = "50D14539-243D-4DFB-80D4-A58473C3BD4B";
paths = (
{
closed = 1;
nodes = (
"323 560 CURVE SMOOTH",
"323 533 OFFCURVE",
"301 511 OFFCURVE",
"274 511 CURVE SMOOTH",
"259 511 OFFCURVE",
"245 518 OFFCURVE",
"236 529 CURVE",
"227 518 OFFCURVE",
"214 511 OFFCURVE",
"199 511 CURVE SMOOTH",
"195 511 OFFCURVE",
"191 511 OFFCURVE",
"187 512 CURVE",
"201 503 OFFCURVE",
"210 488 OFFCURVE",
"210 471 CURVE SMOOTH",
"210 451 OFFCURVE",
"199 435 OFFCURVE",
"182 427 CURVE",
"199 419 OFFCURVE",
"210 402 OFFCURVE",
"210 382 CURVE SMOOTH",
"210 365 OFFCURVE",
"201 350 OFFCURVE",
"187 341 CURVE",
"191 342 OFFCURVE",
"195 342 OFFCURVE",
"199 342 CURVE SMOOTH",
"214 342 OFFCURVE",
"227 336 OFFCURVE",
"236 325 CURVE",
"245 336 OFFCURVE",
"259 342 OFFCURVE",
"274 342 CURVE SMOOTH",
"301 342 OFFCURVE",
"323 320 OFFCURVE",
"323 293 CURVE SMOOTH",
"323 266 OFFCURVE",
"301 244 OFFCURVE",
"274 244 CURVE SMOOTH",
"259 244 OFFCURVE",
"245 251 OFFCURVE",
"236 262 CURVE",
"227 251 OFFCURVE",
"214 244 OFFCURVE",
"199 244 CURVE SMOOTH",
"195 244 OFFCURVE",
"191 245 OFFCURVE",
"187 246 CURVE",
"201 237 OFFCURVE",
"210 221 OFFCURVE",
"210 204 CURVE SMOOTH",
"210 184 OFFCURVE",
"199 168 OFFCURVE",
"182 160 CURVE",
"199 152 OFFCURVE",
"210 136 OFFCURVE",
"210 116 CURVE SMOOTH",
"210 96 OFFCURVE",
"199 79 OFFCURVE",
"182 71 CURVE",
"199 63 OFFCURVE",
"210 47 OFFCURVE",
"210 27 CURVE SMOOTH",
"210 0 OFFCURVE",
"188 -22 OFFCURVE",
"161 -22 CURVE SMOOTH",
"134 -22 OFFCURVE",
"112 0 OFFCURVE",
"112 27 CURVE SMOOTH",
"112 47 OFFCURVE",
"124 63 OFFCURVE",
"141 71 CURVE",
"124 79 OFFCURVE",
"112 96 OFFCURVE",
"112 116 CURVE SMOOTH",
"112 136 OFFCURVE",
"124 152 OFFCURVE",
"141 160 CURVE",
"124 168 OFFCURVE",
"112 184 OFFCURVE",
"112 204 CURVE SMOOTH",
"112 221 OFFCURVE",
"121 237 OFFCURVE",
"135 246 CURVE",
"131 245 OFFCURVE",
"128 244 OFFCURVE",
"124 244 CURVE SMOOTH",
"109 244 OFFCURVE",
"95 251 OFFCURVE",
"86 262 CURVE",
"77 251 OFFCURVE",
"64 244 OFFCURVE",
"49 244 CURVE SMOOTH",
"22 244 OFFCURVE",
"0 266 OFFCURVE",
"0 293 CURVE SMOOTH",
"0 320 OFFCURVE",
"22 342 OFFCURVE",
"49 342 CURVE SMOOTH",
"64 342 OFFCURVE",
"77 336 OFFCURVE",
"86 325 CURVE",
"95 336 OFFCURVE",
"109 342 OFFCURVE",
"124 342 CURVE SMOOTH",
"128 342 OFFCURVE",
"131 342 OFFCURVE",
"135 341 CURVE",
"121 350 OFFCURVE",
"112 365 OFFCURVE",
"112 382 CURVE SMOOTH",
"112 402 OFFCURVE",
"124 419 OFFCURVE",
"141 427 CURVE",
"124 435 OFFCURVE",
"112 451 OFFCURVE",
"112 471 CURVE SMOOTH",
"112 498 OFFCURVE",
"134 520 OFFCURVE",
"161 520 CURVE SMOOTH",
"165 520 OFFCURVE",
"169 520 OFFCURVE",
"173 519 CURVE",
"159 528 OFFCURVE",
"150 543 OFFCURVE",
"150 560 CURVE SMOOTH",
"150 587 OFFCURVE",
"172 609 OFFCURVE",
"199 609 CURVE SMOOTH",
"214 609 OFFCURVE",
"227 602 OFFCURVE",
"236 591 CURVE",
"245 602 OFFCURVE",
"259 609 OFFCURVE",
"274 609 CURVE SMOOTH",
"301 609 OFFCURVE",
"323 587 OFFCURVE"
);
},
{
closed = 1;
nodes = (
"150 335 CURVE",
"154 332 OFFCURVE",
"158 329 OFFCURVE",
"161 325 CURVE",
"164 329 OFFCURVE",
"169 332 OFFCURVE",
"173 335 CURVE",
"169 334 OFFCURVE",
"165 333 OFFCURVE",
"161 333 CURVE SMOOTH",
"157 333 OFFCURVE",
"154 334 OFFCURVE"
);
},
{
closed = 1;
nodes = (
"161 262 CURVE",
"158 258 OFFCURVE",
"154 255 OFFCURVE",
"150 252 CURVE",
"154 253 OFFCURVE",
"157 253 OFFCURVE",
"161 253 CURVE SMOOTH",
"165 253 OFFCURVE",
"169 253 OFFCURVE",
"173 252 CURVE",
"169 255 OFFCURVE",
"164 258 OFFCURVE"
);
}
);
width = 450;
}
);
unicode = 0066;
userData = {
com.fontlab.hintData = {
hhints = (
{
position = -22;
width = 21;
},
{
position = -22;
width = 21;
},
{
position = 244;
width = 98;
},
{
position = 511;
width = 98;
}
);
vhints = (
{
position = 112;
width = 98;
},
{
position = 150;
width = 173;
}
);
};
};
},
{
glyphname = g;
lastChange = "2017-08-06 04:45:23 +0000";
layers = (
{
layerId = "50D14539-243D-4DFB-80D4-A58473C3BD4B";
paths = (
{
closed = 1;
nodes = (
"360 382 CURVE SMOOTH",
"360 362 OFFCURVE",
"349 346 OFFCURVE",
"332 338 CURVE",
"349 330 OFFCURVE",
"360 313 OFFCURVE",
"360 293 CURVE SMOOTH",
"360 273 OFFCURVE",
"349 257 OFFCURVE",
"332 249 CURVE",
"349 241 OFFCURVE",
"360 224 OFFCURVE",
"360 204 CURVE SMOOTH",
"360 184 OFFCURVE",
"349 168 OFFCURVE",
"332 160 CURVE",
"349 152 OFFCURVE",
"360 136 OFFCURVE",
"360 116 CURVE SMOOTH",
"360 96 OFFCURVE",
"349 79 OFFCURVE",
"332 71 CURVE",
"349 63 OFFCURVE",
"360 47 OFFCURVE",
"360 27 CURVE SMOOTH",
"360 7 OFFCURVE",
"349 -10 OFFCURVE",
"332 -18 CURVE",
"349 -26 OFFCURVE",
"360 -42 OFFCURVE",
"360 -62 CURVE SMOOTH",
"360 -89 OFFCURVE",
"338 -111 OFFCURVE",
"311 -111 CURVE SMOOTH",
"307 -111 OFFCURVE",
"304 -111 OFFCURVE",
"300 -110 CURVE",
"314 -119 OFFCURVE",
"323 -134 OFFCURVE",
"323 -151 CURVE SMOOTH",
"323 -178 OFFCURVE",
"301 -200 OFFCURVE",
"274 -200 CURVE SMOOTH",
"259 -200 OFFCURVE",
"245 -193 OFFCURVE",
"236 -182 CURVE",
"227 -193 OFFCURVE",
"214 -200 OFFCURVE",
"199 -200 CURVE SMOOTH",
"184 -200 OFFCURVE",
"170 -193 OFFCURVE",
"161 -182 CURVE",
"152 -193 OFFCURVE",
"139 -200 OFFCURVE",
"124 -200 CURVE SMOOTH",
"97 -200 OFFCURVE",
"75 -178 OFFCURVE",
"75 -151 CURVE SMOOTH",
"75 -124 OFFCURVE",
"97 -102 OFFCURVE",
"124 -102 CURVE SMOOTH",
"139 -102 OFFCURVE",
"152 -109 OFFCURVE",
"161 -120 CURVE",
"170 -109 OFFCURVE",
"184 -102 OFFCURVE",
"199 -102 CURVE SMOOTH",
"214 -102 OFFCURVE",
"227 -109 OFFCURVE",
"236 -120 CURVE",
"245 -109 OFFCURVE",
"259 -102 OFFCURVE",
"274 -102 CURVE SMOOTH",
"278 -102 OFFCURVE",
"281 -103 OFFCURVE",
"285 -104 CURVE",
"271 -95 OFFCURVE",
"262 -79 OFFCURVE",
"262 -62 CURVE SMOOTH",
"262 -42 OFFCURVE",
"274 -26 OFFCURVE",
"291 -18 CURVE",
"284 -15 OFFCURVE",
"279 -11 OFFCURVE",
"274 -5 CURVE",
"265 -16 OFFCURVE",
"251 -22 OFFCURVE",
"236 -22 CURVE SMOOTH",
"221 -22 OFFCURVE",
"208 -16 OFFCURVE",
"199 -5 CURVE",
"190 -16 OFFCURVE",
"176 -22 OFFCURVE",
"161 -22 CURVE SMOOTH",
"146 -22 OFFCURVE",
"133 -16 OFFCURVE",
"124 -5 CURVE",
"115 -16 OFFCURVE",
"101 -22 OFFCURVE",
"86 -22 CURVE SMOOTH",
"59 -22 OFFCURVE",
"37 0 OFFCURVE",
"37 27 CURVE SMOOTH",
"37 44 OFFCURVE",
"46 59 OFFCURVE",
"60 68 CURVE",
"56 67 OFFCURVE",
"53 67 OFFCURVE",
"49 67 CURVE SMOOTH",
"22 67 OFFCURVE",
"0 89 OFFCURVE",
"0 116 CURVE SMOOTH",
"0 136 OFFCURVE",
"12 152 OFFCURVE",
"29 160 CURVE",
"12 168 OFFCURVE",
"0 184 OFFCURVE",
"0 204 CURVE SMOOTH",
"0 224 OFFCURVE",
"12 241 OFFCURVE",
"29 249 CURVE",
"12 257 OFFCURVE",
"0 273 OFFCURVE",
"0 293 CURVE SMOOTH",
"0 320 OFFCURVE",
"22 342 OFFCURVE",
"49 342 CURVE SMOOTH",
"53 342 OFFCURVE",
"56 342 OFFCURVE",
"60 341 CURVE",
"46 350 OFFCURVE",
"37 365 OFFCURVE",
"37 382 CURVE SMOOTH",
"37 409 OFFCURVE",
"59 431 OFFCURVE",
"86 431 CURVE SMOOTH",
"101 431 OFFCURVE",
"115 425 OFFCURVE",
"124 414 CURVE",
"133 425 OFFCURVE",
"146 431 OFFCURVE",
"161 431 CURVE SMOOTH",
"176 431 OFFCURVE",
"190 425 OFFCURVE",
"199 414 CURVE",
"208 425 OFFCURVE",
"221 431 OFFCURVE",
"236 431 CURVE SMOOTH",
"251 431 OFFCURVE",
"265 425 OFFCURVE",
"274 414 CURVE",
"283 425 OFFCURVE",
"296 431 OFFCURVE",
"311 431 CURVE SMOOTH",
"338 431 OFFCURVE",
"360 409 OFFCURVE"
);
},
{
closed = 1;
nodes = (
"124 351 CURVE",
"115 340 OFFCURVE",
"101 333 OFFCURVE",
"86 333 CURVE SMOOTH",
"82 333 OFFCURVE",
"79 334 OFFCURVE",
"75 335 CURVE",
"89 326 OFFCURVE",
"98 310 OFFCURVE",
"98 293 CURVE SMOOTH",
"98 273 OFFCURVE",
"86 257 OFFCURVE",
"69 249 CURVE",
"86 241 OFFCURVE",
"98 224 OFFCURVE",
"98 204 CURVE SMOOTH",
"98 184 OFFCURVE",
"86 168 OFFCURVE",
"69 160 CURVE",
"86 152 OFFCURVE",
"98 136 OFFCURVE",
"98 116 CURVE SMOOTH",
"98 99 OFFCURVE",
"89 83 OFFCURVE",
"75 74 CURVE",
"79 75 OFFCURVE",
"82 76 OFFCURVE",
"86 76 CURVE SMOOTH",
"101 76 OFFCURVE",
"115 69 OFFCURVE",
"124 58 CURVE",
"133 69 OFFCURVE",
"146 76 OFFCURVE",
"161 76 CURVE SMOOTH",
"176 76 OFFCURVE",
"190 69 OFFCURVE",
"199 58 CURVE",
"208 69 OFFCURVE",
"221 76 OFFCURVE",
"236 76 CURVE SMOOTH",
"251 76 OFFCURVE",
"265 69 OFFCURVE",
"274 58 CURVE",
"279 64 OFFCURVE",
"284 68 OFFCURVE",
"291 71 CURVE",
"274 79 OFFCURVE",
"262 96 OFFCURVE",
"262 116 CURVE SMOOTH",
"262 136 OFFCURVE",
"274 152 OFFCURVE",
"291 160 CURVE",
"274 168 OFFCURVE",
"262 184 OFFCURVE",
"262 204 CURVE SMOOTH",
"262 224 OFFCURVE",
"274 241 OFFCURVE",
"291 249 CURVE",
"274 257 OFFCURVE",
"262 273 OFFCURVE",
"262 293 CURVE SMOOTH",
"262 313 OFFCURVE",
"274 330 OFFCURVE",
"291 338 CURVE",
"284 341 OFFCURVE",
"279 345 OFFCURVE",
"274 351 CURVE",
"265 340 OFFCURVE",
"251 333 OFFCURVE",
"236 333 CURVE SMOOTH",
"221 333 OFFCURVE",
"208 340 OFFCURVE",
"199 351 CURVE",
"190 340 OFFCURVE",
"176 333 OFFCURVE",
"161 333 CURVE SMOOTH",
"146 333 OFFCURVE",
"133 340 OFFCURVE"
);
}
);
width = 450;
}
);
unicode = 0067;
userData = {
com.fontlab.hintData = {
hhints = (
{
position = -200;
width = 98;
},
{
position = -22;
width = 98;
},
{
position = 333;
width = 98;
}
);
vhints = (
{
position = 0;
width = 98;
},
{
position = 262;
width = 98;
}
);
};
};
},
{
glyphname = h;
lastChange = "2017-08-06 04:45:23 +0000";
layers = (
{
layerId = "50D14539-243D-4DFB-80D4-A58473C3BD4B";
paths = (
{
closed = 1;
nodes = (
"98 560 CURVE SMOOTH",
"98 540 OFFCURVE",
"86 524 OFFCURVE",
"69 516 CURVE",
"86 508 OFFCURVE",
"98 491 OFFCURVE",
"98 471 CURVE SMOOTH",
"98 451 OFFCURVE",
"86 435 OFFCURVE",
"69 427 CURVE",
"76 424 OFFCURVE",
"81 420 OFFCURVE",
"86 414 CURVE",
"95 425 OFFCURVE",
"109 431 OFFCURVE",
"124 431 CURVE SMOOTH",
"139 431 OFFCURVE",
"152 425 OFFCURVE",
"161 414 CURVE",
"170 425 OFFCURVE",
"184 431 OFFCURVE",
"199 431 CURVE SMOOTH",
"214 431 OFFCURVE",
"227 425 OFFCURVE",
"236 414 CURVE",
"245 425 OFFCURVE",
"259 431 OFFCURVE",
"274 431 CURVE SMOOTH",
"301 431 OFFCURVE",
"323 409 OFFCURVE",
"323 382 CURVE SMOOTH",
"323 365 OFFCURVE",
"314 350 OFFCURVE",
"300 341 CURVE",
"304 342 OFFCURVE",
"307 342 OFFCURVE",
"311 342 CURVE SMOOTH",
"338 342 OFFCURVE",
"360 320 OFFCURVE",
"360 293 CURVE SMOOTH",
"360 273 OFFCURVE",
"349 257 OFFCURVE",
"332 249 CURVE",
"349 241 OFFCURVE",
"360 224 OFFCURVE",
"360 204 CURVE SMOOTH",
"360 184 OFFCURVE",
"349 168 OFFCURVE",
"332 160 CURVE",
"349 152 OFFCURVE",
"360 136 OFFCURVE",
"360 116 CURVE SMOOTH",
"360 96 OFFCURVE",
"349 79 OFFCURVE",
"332 71 CURVE",
"349 63 OFFCURVE",
"360 47 OFFCURVE",
"360 27 CURVE SMOOTH",
"360 0 OFFCURVE",
"338 -22 OFFCURVE",
"311 -22 CURVE SMOOTH",
"284 -22 OFFCURVE",
"262 0 OFFCURVE",
"262 27 CURVE SMOOTH",
"262 47 OFFCURVE",
"274 63 OFFCURVE",
"291 71 CURVE",
"274 79 OFFCURVE",
"262 96 OFFCURVE",
"262 116 CURVE SMOOTH",
"262 136 OFFCURVE",
"274 152 OFFCURVE",
"291 160 CURVE",
"274 168 OFFCURVE",
"262 184 OFFCURVE",
"262 204 CURVE SMOOTH",
"262 224 OFFCURVE",
"274 241 OFFCURVE",
"291 249 CURVE",
"274 257 OFFCURVE",
"262 273 OFFCURVE",
"262 293 CURVE SMOOTH",
"262 310 OFFCURVE",
"271 326 OFFCURVE",
"285 335 CURVE",
"281 334 OFFCURVE",
"278 333 OFFCURVE",
"274 333 CURVE SMOOTH",
"259 333 OFFCURVE",
"245 340 OFFCURVE",
"236 351 CURVE",
"227 340 OFFCURVE",
"214 333 OFFCURVE",
"199 333 CURVE SMOOTH",
"184 333 OFFCURVE",
"170 340 OFFCURVE",
"161 351 CURVE",
"152 340 OFFCURVE",
"139 333 OFFCURVE",
"124 333 CURVE SMOOTH",
"109 333 OFFCURVE",
"95 340 OFFCURVE",
"86 351 CURVE",
"81 345 OFFCURVE",
"76 341 OFFCURVE",
"69 338 CURVE",
"86 330 OFFCURVE",
"98 313 OFFCURVE",
"98 293 CURVE SMOOTH",
"98 273 OFFCURVE",
"86 257 OFFCURVE",
"69 249 CURVE",
"86 241 OFFCURVE",
"98 224 OFFCURVE",
"98 204 CURVE SMOOTH",
"98 184 OFFCURVE",
"86 168 OFFCURVE",
"69 160 CURVE",
"86 152 OFFCURVE",
"98 136 OFFCURVE",
"98 116 CURVE SMOOTH",
"98 96 OFFCURVE",
"86 79 OFFCURVE",
"69 71 CURVE",
"86 63 OFFCURVE",
"98 47 OFFCURVE",
"98 27 CURVE SMOOTH",
"98 0 OFFCURVE",
"76 -22 OFFCURVE",
"49 -22 CURVE SMOOTH",
"22 -22 OFFCURVE",
"0 0 OFFCURVE",
"0 27 CURVE SMOOTH",
"0 47 OFFCURVE",
"12 63 OFFCURVE",
"29 71 CURVE",
"12 79 OFFCURVE",
"0 96 OFFCURVE",
"0 116 CURVE SMOOTH",
"0 136 OFFCURVE",
"12 152 OFFCURVE",
"29 160 CURVE",
"12 168 OFFCURVE",
"0 184 OFFCURVE",
"0 204 CURVE SMOOTH",
"0 224 OFFCURVE",
"12 241 OFFCURVE",
"29 249 CURVE",
"12 257 OFFCURVE",
"0 273 OFFCURVE",
"0 293 CURVE SMOOTH",
"0 313 OFFCURVE",
"12 330 OFFCURVE",
"29 338 CURVE",
"12 346 OFFCURVE",
"0 362 OFFCURVE",
"0 382 CURVE SMOOTH",
"0 402 OFFCURVE",
"12 419 OFFCURVE",
"29 427 CURVE",
"12 435 OFFCURVE",
"0 451 OFFCURVE",
"0 471 CURVE SMOOTH",
"0 491 OFFCURVE",
"12 508 OFFCURVE",
"29 516 CURVE",
"12 524 OFFCURVE",
"0 540 OFFCURVE",
"0 560 CURVE SMOOTH",
"0 587 OFFCURVE",
"22 609 OFFCURVE",
"49 609 CURVE SMOOTH",
"76 609 OFFCURVE",
"98 587 OFFCURVE"
);
}
);
width = 450;
}
);
unicode = 0068;
userData = {
com.fontlab.hintData = {
hhints = (
{
position = -22;
width = 21;
},
{
position = -22;
width = 21;
},
{
position = 333;
width = 98;
},
{
position = 589;
width = 20;
}
);
vhints = (
{
position = 0;
width = 98;
},
{
position = 262;
width = 98;
}
);
};
};
},
{
glyphname = i;
lastChange = "2017-08-06 04:45:23 +0000";
layers = (
{
layerId = "50D14539-243D-4DFB-80D4-A58473C3BD4B";
paths = (
{
closed = 1;
nodes = (
"210 560 CURVE SMOOTH",
"210 533 OFFCURVE",
"188 511 OFFCURVE",
"161 511 CURVE SMOOTH",
"134 511 OFFCURVE",
"112 533 OFFCURVE",
"112 560 CURVE SMOOTH",
"112 587 OFFCURVE",
"134 609 OFFCURVE",
"161 609 CURVE SMOOTH",
"188 609 OFFCURVE",
"210 587 OFFCURVE"
);
},
{
closed = 1;
nodes = (
"210 382 CURVE SMOOTH",
"210 362 OFFCURVE",
"199 346 OFFCURVE",
"182 338 CURVE",
"199 330 OFFCURVE",
"210 313 OFFCURVE",
"210 293 CURVE SMOOTH",
"210 273 OFFCURVE",
"199 257 OFFCURVE",
"182 249 CURVE",
"199 241 OFFCURVE",
"210 224 OFFCURVE",
"210 204 CURVE SMOOTH",
"210 184 OFFCURVE",
"199 168 OFFCURVE",
"182 160 CURVE",
"199 152 OFFCURVE",
"210 136 OFFCURVE",
"210 116 CURVE SMOOTH",
"210 96 OFFCURVE",
"199 79 OFFCURVE",
"182 71 CURVE",
"189 68 OFFCURVE",
"194 64 OFFCURVE",
"199 58 CURVE",
"208 69 OFFCURVE",
"221 76 OFFCURVE",
"236 76 CURVE SMOOTH",
"263 76 OFFCURVE",
"285 54 OFFCURVE",
"285 27 CURVE SMOOTH",
"285 0 OFFCURVE",
"263 -22 OFFCURVE",
"236 -22 CURVE SMOOTH",
"221 -22 OFFCURVE",
"208 -16 OFFCURVE",
"199 -5 CURVE",
"190 -16 OFFCURVE",
"176 -22 OFFCURVE",
"161 -22 CURVE SMOOTH",
"146 -22 OFFCURVE",
"133 -16 OFFCURVE",
"124 -5 CURVE",
"115 -16 OFFCURVE",
"101 -22 OFFCURVE",
"86 -22 CURVE SMOOTH",
"59 -22 OFFCURVE",
"37 0 OFFCURVE",
"37 27 CURVE SMOOTH",
"37 54 OFFCURVE",
"59 76 OFFCURVE",
"86 76 CURVE SMOOTH",
"101 76 OFFCURVE",
"115 69 OFFCURVE",
"124 58 CURVE",
"129 64 OFFCURVE",
"134 68 OFFCURVE",
"141 71 CURVE",
"124 79 OFFCURVE",
"112 96 OFFCURVE",
"112 116 CURVE SMOOTH",
"112 136 OFFCURVE",
"124 152 OFFCURVE",
"141 160 CURVE",
"124 168 OFFCURVE",
"112 184 OFFCURVE",
"112 204 CURVE SMOOTH",
"112 224 OFFCURVE",
"124 241 OFFCURVE",
"141 249 CURVE",
"124 257 OFFCURVE",
"112 273 OFFCURVE",
"112 293 CURVE SMOOTH",
"112 313 OFFCURVE",
"124 330 OFFCURVE",
"141 338 CURVE",
"134 341 OFFCURVE",
"129 345 OFFCURVE",
"124 351 CURVE",
"115 340 OFFCURVE",
"101 333 OFFCURVE",
"86 333 CURVE SMOOTH",
"59 333 OFFCURVE",
"37 355 OFFCURVE",
"37 382 CURVE SMOOTH",
"37 409 OFFCURVE",
"59 431 OFFCURVE",
"86 431 CURVE SMOOTH",
"101 431 OFFCURVE",
"115 425 OFFCURVE",
"124 414 CURVE",
"133 425 OFFCURVE",
"146 431 OFFCURVE",
"161 431 CURVE SMOOTH",
"188 431 OFFCURVE",
"210 409 OFFCURVE"
);
}
);
width = 450;
}
);
unicode = 0069;
userData = {
com.fontlab.hintData = {
hhints = (
{
position = -22;
width = 98;
},
{
position = 333;
width = 98;
},
{
position = 511;
width = 98;
}
);
vhints = (
{
position = 112;
width = 98;
}
);
};
};
},
{
glyphname = j;
lastChange = "2017-08-06 04:45:23 +0000";
layers = (
{
layerId = "50D14539-243D-4DFB-80D4-A58473C3BD4B";
paths = (
{
closed = 1;
nodes = (
"323 560 CURVE SMOOTH",
"323 533 OFFCURVE",
"301 511 OFFCURVE",
"274 511 CURVE SMOOTH",
"247 511 OFFCURVE",
"225 533 OFFCURVE",
"225 560 CURVE SMOOTH",
"225 587 OFFCURVE",
"247 609 OFFCURVE",
"274 609 CURVE SMOOTH",
"301 609 OFFCURVE",
"323 587 OFFCURVE"
);
},
{
closed = 1;
nodes = (
"323 382 CURVE SMOOTH",
"323 362 OFFCURVE",
"311 346 OFFCURVE",
"294 338 CURVE",
"311 330 OFFCURVE",
"323 313 OFFCURVE",
"323 293 CURVE SMOOTH",
"323 273 OFFCURVE",
"311 257 OFFCURVE",
"294 249 CURVE",
"311 241 OFFCURVE",
"323 224 OFFCURVE",
"323 204 CURVE SMOOTH",
"323 184 OFFCURVE",
"311 168 OFFCURVE",
"294 160 CURVE",
"311 152 OFFCURVE",
"323 136 OFFCURVE",
"323 116 CURVE SMOOTH",
"323 96 OFFCURVE",
"311 79 OFFCURVE",
"294 71 CURVE",
"311 63 OFFCURVE",
"323 47 OFFCURVE",
"323 27 CURVE SMOOTH",
"323 0 OFFCURVE",
"301 -22 OFFCURVE",
"274 -22 CURVE SMOOTH",
"270 -22 OFFCURVE",
"266 -22 OFFCURVE",
"262 -21 CURVE",
"276 -30 OFFCURVE",
"285 -45 OFFCURVE",
"285 -62 CURVE SMOOTH",
"285 -89 OFFCURVE",
"263 -111 OFFCURVE",
"236 -111 CURVE SMOOTH",
"221 -111 OFFCURVE",
"208 -105 OFFCURVE",
"199 -94 CURVE",
"190 -105 OFFCURVE",
"176 -111 OFFCURVE",
"161 -111 CURVE SMOOTH",
"146 -111 OFFCURVE",
"133 -105 OFFCURVE",
"124 -94 CURVE",
"115 -105 OFFCURVE",
"101 -111 OFFCURVE",
"86 -111 CURVE SMOOTH",
"59 -111 OFFCURVE",
"37 -89 OFFCURVE",
"37 -62 CURVE SMOOTH",
"37 -35 OFFCURVE",
"59 -13 OFFCURVE",
"86 -13 CURVE SMOOTH",
"101 -13 OFFCURVE",
"115 -20 OFFCURVE",
"124 -31 CURVE",
"133 -20 OFFCURVE",
"146 -13 OFFCURVE",
"161 -13 CURVE SMOOTH",
"176 -13 OFFCURVE",
"190 -20 OFFCURVE",
"199 -31 CURVE",
"208 -20 OFFCURVE",
"221 -13 OFFCURVE",
"236 -13 CURVE SMOOTH",
"240 -13 OFFCURVE",
"244 -14 OFFCURVE",
"248 -15 CURVE",
"234 -6 OFFCURVE",
"225 10 OFFCURVE",
"225 27 CURVE SMOOTH",
"225 47 OFFCURVE",
"237 63 OFFCURVE",
"254 71 CURVE",
"237 79 OFFCURVE",
"225 96 OFFCURVE",
"225 116 CURVE SMOOTH",
"225 136 OFFCURVE",
"237 152 OFFCURVE",
"254 160 CURVE",
"237 168 OFFCURVE",
"225 184 OFFCURVE",
"225 204 CURVE SMOOTH",
"225 224 OFFCURVE",
"237 241 OFFCURVE",
"254 249 CURVE",
"237 257 OFFCURVE",
"225 273 OFFCURVE",
"225 293 CURVE SMOOTH",
"225 313 OFFCURVE",
"237 330 OFFCURVE",
"254 338 CURVE",
"237 346 OFFCURVE",
"225 362 OFFCURVE",
"225 382 CURVE SMOOTH",
"225 409 OFFCURVE",
"247 431 OFFCURVE",
"274 431 CURVE SMOOTH",
"301 431 OFFCURVE",
"323 409 OFFCURVE"
);
}
);
width = 450;
}
);
unicode = 006A;
userData = {
com.fontlab.hintData = {
hhints = (
{
position = -111;
width = 98;
},
{
position = -22;
width = 21;
},
{
position = -22;
width = 21;
},
{
position = 411;
width = 20;
},
{
position = 511;
width = 98;
}
);
vhints = (
{
position = 225;
width = 98;
}
);
};
};
},
{
glyphname = k;
lastChange = "2017-08-06 04:45:23 +0000";
layers = (
{
layerId = "50D14539-243D-4DFB-80D4-A58473C3BD4B";
paths = (
{
closed = 1;
nodes = (
"135 560 CURVE SMOOTH",
"135 540 OFFCURVE",
"124 524 OFFCURVE",
"107 516 CURVE",
"124 508 OFFCURVE",
"135 491 OFFCURVE",
"135 471 CURVE SMOOTH",
"135 451 OFFCURVE",
"124 435 OFFCURVE",
"107 427 CURVE",
"124 419 OFFCURVE",
"135 402 OFFCURVE",
"135 382 CURVE SMOOTH",
"135 362 OFFCURVE",
"124 346 OFFCURVE",
"107 338 CURVE",
"124 330 OFFCURVE",
"135 313 OFFCURVE",
"135 293 CURVE SMOOTH",
"135 273 OFFCURVE",
"124 257 OFFCURVE",
"107 249 CURVE",
"114 246 OFFCURVE",
"119 242 OFFCURVE",
"124 236 CURVE",
"133 247 OFFCURVE",
"146 253 OFFCURVE",
"161 253 CURVE SMOOTH",
"188 253 OFFCURVE",
"210 231 OFFCURVE",
"210 204 CURVE SMOOTH",
"210 177 OFFCURVE",
"188 156 OFFCURVE",
"161 156 CURVE SMOOTH",
"146 156 OFFCURVE",
"133 162 OFFCURVE",
"124 173 CURVE",
"119 167 OFFCURVE",
"114 163 OFFCURVE",
"107 160 CURVE",
"124 152 OFFCURVE",
"135 136 OFFCURVE",
"135 116 CURVE SMOOTH",
"135 96 OFFCURVE",
"124 79 OFFCURVE",
"107 71 CURVE",
"124 63 OFFCURVE",
"135 47 OFFCURVE",
"135 27 CURVE SMOOTH",
"135 0 OFFCURVE",
"113 -22 OFFCURVE",
"86 -22 CURVE SMOOTH",
"59 -22 OFFCURVE",
"37 0 OFFCURVE",
"37 27 CURVE SMOOTH",
"37 47 OFFCURVE",
"49 63 OFFCURVE",
"66 71 CURVE",
"49 79 OFFCURVE",
"37 96 OFFCURVE",
"37 116 CURVE SMOOTH",
"37 136 OFFCURVE",
"49 152 OFFCURVE",
"66 160 CURVE",
"49 168 OFFCURVE",
"37 184 OFFCURVE",
"37 204 CURVE SMOOTH",
"37 224 OFFCURVE",
"49 241 OFFCURVE",
"66 249 CURVE",
"49 257 OFFCURVE",
"37 273 OFFCURVE",
"37 293 CURVE SMOOTH",
"37 313 OFFCURVE",
"49 330 OFFCURVE",
"66 338 CURVE",
"49 346 OFFCURVE",
"37 362 OFFCURVE",
"37 382 CURVE SMOOTH",
"37 402 OFFCURVE",
"49 419 OFFCURVE",
"66 427 CURVE",
"49 435 OFFCURVE",
"37 451 OFFCURVE",
"37 471 CURVE SMOOTH",
"37 491 OFFCURVE",
"49 508 OFFCURVE",
"66 516 CURVE",
"49 524 OFFCURVE",
"37 540 OFFCURVE",
"37 560 CURVE SMOOTH",
"37 587 OFFCURVE",
"59 609 OFFCURVE",
"86 609 CURVE SMOOTH",
"113 609 OFFCURVE",
"135 587 OFFCURVE"
);
},
{
closed = 1;
nodes = (
"360 382 CURVE SMOOTH",
"360 355 OFFCURVE",
"338 333 OFFCURVE",
"311 333 CURVE SMOOTH",
"284 333 OFFCURVE",
"262 355 OFFCURVE",
"262 382 CURVE SMOOTH",
"262 409 OFFCURVE",
"284 431 OFFCURVE",
"311 431 CURVE SMOOTH",
"338 431 OFFCURVE",
"360 409 OFFCURVE"
);
},
{
closed = 1;
nodes = (
"285 293 CURVE SMOOTH",
"285 266 OFFCURVE",
"263 244 OFFCURVE",
"236 244 CURVE SMOOTH",
"209 244 OFFCURVE",
"188 266 OFFCURVE",
"188 293 CURVE SMOOTH",
"188 320 OFFCURVE",
"209 342 OFFCURVE",
"236 342 CURVE SMOOTH",
"263 342 OFFCURVE",
"285 320 OFFCURVE"
);
},
{
closed = 1;
nodes = (
"285 116 CURVE SMOOTH",
"285 89 OFFCURVE",
"263 67 OFFCURVE",
"236 67 CURVE SMOOTH",
"209 67 OFFCURVE",
"188 89 OFFCURVE",
"188 116 CURVE SMOOTH",
"188 143 OFFCURVE",
"209 164 OFFCURVE",
"236 164 CURVE SMOOTH",
"263 164 OFFCURVE",
"285 143 OFFCURVE"
);
},
{
closed = 1;
nodes = (
"360 27 CURVE SMOOTH",
"360 0 OFFCURVE",
"338 -22 OFFCURVE",
"311 -22 CURVE SMOOTH",
"284 -22 OFFCURVE",
"262 0 OFFCURVE",
"262 27 CURVE SMOOTH",
"262 54 OFFCURVE",
"284 76 OFFCURVE",
"311 76 CURVE SMOOTH",
"338 76 OFFCURVE",
"360 54 OFFCURVE"
);
}
);
width = 450;
}
);
unicode = 006B;
userData = {
com.fontlab.hintData = {
hhints = (
{
position = -22;
width = 98;
},
{
position = -22;
width = 21;
},
{
position = 67;
width = 97;
},
{
position = 156;
width = 97;
},
{
position = 244;
width = 98;
},
{
position = 333;
width = 98;
},
{
position = 589;
width = 20;
}
);
vhints = (
{
position = 37;
width = 98;
},
{
position = 188;
width = 97;
},
{
position = 262;
width = 98;
}
);
};
};
},
{
glyphname = l;
lastChange = "2017-08-06 04:45:23 +0000";
layers = (
{
layerId = "50D14539-243D-4DFB-80D4-A58473C3BD4B";
paths = (
{
closed = 1;
nodes = (
"210 560 CURVE SMOOTH",
"210 540 OFFCURVE",
"199 524 OFFCURVE",
"182 516 CURVE",
"199 508 OFFCURVE",
"210 491 OFFCURVE",
"210 471 CURVE SMOOTH",
"210 451 OFFCURVE",
"199 435 OFFCURVE",
"182 427 CURVE",
"199 419 OFFCURVE",
"210 402 OFFCURVE",
"210 382 CURVE SMOOTH",
"210 362 OFFCURVE",
"199 346 OFFCURVE",
"182 338 CURVE",
"199 330 OFFCURVE",
"210 313 OFFCURVE",
"210 293 CURVE SMOOTH",
"210 273 OFFCURVE",
"199 257 OFFCURVE",
"182 249 CURVE",
"199 241 OFFCURVE",
"210 224 OFFCURVE",
"210 204 CURVE SMOOTH",
"210 184 OFFCURVE",
"199 168 OFFCURVE",
"182 160 CURVE",
"199 152 OFFCURVE",
"210 136 OFFCURVE",
"210 116 CURVE SMOOTH",
"210 96 OFFCURVE",
"199 79 OFFCURVE",
"182 71 CURVE",
"189 68 OFFCURVE",
"194 64 OFFCURVE",
"199 58 CURVE",
"208 69 OFFCURVE",
"221 76 OFFCURVE",
"236 76 CURVE SMOOTH",
"263 76 OFFCURVE",
"285 54 OFFCURVE",
"285 27 CURVE SMOOTH",
"285 0 OFFCURVE",
"263 -22 OFFCURVE",
"236 -22 CURVE SMOOTH",
"221 -22 OFFCURVE",
"208 -16 OFFCURVE",
"199 -5 CURVE",
"190 -16 OFFCURVE",
"176 -22 OFFCURVE",
"161 -22 CURVE SMOOTH",
"146 -22 OFFCURVE",
"133 -16 OFFCURVE",
"124 -5 CURVE",
"115 -16 OFFCURVE",
"101 -22 OFFCURVE",
"86 -22 CURVE SMOOTH",
"59 -22 OFFCURVE",
"37 0 OFFCURVE",
"37 27 CURVE SMOOTH",
"37 54 OFFCURVE",
"59 76 OFFCURVE",
"86 76 CURVE SMOOTH",
"101 76 OFFCURVE",
"115 69 OFFCURVE",
"124 58 CURVE",
"129 64 OFFCURVE",
"134 68 OFFCURVE",
"141 71 CURVE",
"124 79 OFFCURVE",
"112 96 OFFCURVE",
"112 116 CURVE SMOOTH",
"112 136 OFFCURVE",
"124 152 OFFCURVE",
"141 160 CURVE",
"124 168 OFFCURVE",
"112 184 OFFCURVE",
"112 204 CURVE SMOOTH",
"112 224 OFFCURVE",
"124 241 OFFCURVE",
"141 249 CURVE",
"124 257 OFFCURVE",
"112 273 OFFCURVE",
"112 293 CURVE SMOOTH",
"112 313 OFFCURVE",
"124 330 OFFCURVE",
"141 338 CURVE",
"124 346 OFFCURVE",
"112 362 OFFCURVE",
"112 382 CURVE SMOOTH",
"112 402 OFFCURVE",
"124 419 OFFCURVE",
"141 427 CURVE",
"124 435 OFFCURVE",
"112 451 OFFCURVE",
"112 471 CURVE SMOOTH",
"112 491 OFFCURVE",
"124 508 OFFCURVE",
"141 516 CURVE",
"134 519 OFFCURVE",
"129 523 OFFCURVE",
"124 529 CURVE",
"115 518 OFFCURVE",
"101 511 OFFCURVE",
"86 511 CURVE SMOOTH",
"59 511 OFFCURVE",
"37 533 OFFCURVE",
"37 560 CURVE SMOOTH",
"37 587 OFFCURVE",
"59 609 OFFCURVE",
"86 609 CURVE SMOOTH",
"101 609 OFFCURVE",
"115 602 OFFCURVE",
"124 591 CURVE",
"133 602 OFFCURVE",
"146 609 OFFCURVE",
"161 609 CURVE SMOOTH",
"188 609 OFFCURVE",
"210 587 OFFCURVE"
);
}
);
width = 450;
}
);
unicode = 006C;
userData = {
com.fontlab.hintData = {
hhints = (
{
position = -22;
width = 98;
},
{
position = 511;
width = 98;
}
);
vhints = (
{
position = 37;
width = 173;
},
{
position = 112;
width = 98;
}
);
};
};
},
{
glyphname = m;
lastChange = "2017-08-06 04:45:23 +0000";
layers = (
{
layerId = "50D14539-243D-4DFB-80D4-A58473C3BD4B";
paths = (
{
closed = 1;
nodes = (
"360 382 CURVE SMOOTH",
"360 365 OFFCURVE",
"351 350 OFFCURVE",
"337 341 CURVE",
"341 342 OFFCURVE",
"345 342 OFFCURVE",
"349 342 CURVE SMOOTH",
"376 342 OFFCURVE",
"398 320 OFFCURVE",
"398 293 CURVE SMOOTH",
"398 273 OFFCURVE",
"386 257 OFFCURVE",
"369 249 CURVE",
"386 241 OFFCURVE",
"398 224 OFFCURVE",
"398 204 CURVE SMOOTH",
"398 184 OFFCURVE",
"386 168 OFFCURVE",
"369 160 CURVE",
"386 152 OFFCURVE",
"398 136 OFFCURVE",
"398 116 CURVE SMOOTH",
"398 96 OFFCURVE",
"386 79 OFFCURVE",
"369 71 CURVE",
"386 63 OFFCURVE",
"398 47 OFFCURVE",
"398 27 CURVE SMOOTH",
"398 0 OFFCURVE",
"376 -22 OFFCURVE",
"349 -22 CURVE SMOOTH",
"322 -22 OFFCURVE",
"300 0 OFFCURVE",
"300 27 CURVE SMOOTH",
"300 47 OFFCURVE",
"312 63 OFFCURVE",
"329 71 CURVE",
"312 79 OFFCURVE",
"300 96 OFFCURVE",
"300 116 CURVE SMOOTH",
"300 136 OFFCURVE",
"312 152 OFFCURVE",
"329 160 CURVE",
"312 168 OFFCURVE",
"300 184 OFFCURVE",
"300 204 CURVE SMOOTH",
"300 224 OFFCURVE",
"312 241 OFFCURVE",
"329 249 CURVE",
"312 257 OFFCURVE",
"300 273 OFFCURVE",
"300 293 CURVE SMOOTH",
"300 310 OFFCURVE",
"309 326 OFFCURVE",
"323 335 CURVE",
"319 334 OFFCURVE",
"315 333 OFFCURVE",
"311 333 CURVE SMOOTH",
"296 333 OFFCURVE",
"283 340 OFFCURVE",
"274 351 CURVE",
"265 340 OFFCURVE",
"251 333 OFFCURVE",
"236 333 CURVE SMOOTH",
"232 333 OFFCURVE",
"229 334 OFFCURVE",
"225 335 CURVE",
"239 326 OFFCURVE",
"248 310 OFFCURVE",
"248 293 CURVE SMOOTH",
"248 273 OFFCURVE",
"236 257 OFFCURVE",
"219 249 CURVE",
"236 241 OFFCURVE",
"248 224 OFFCURVE",
"248 204 CURVE SMOOTH",
"248 184 OFFCURVE",
"236 168 OFFCURVE",
"219 160 CURVE",
"236 152 OFFCURVE",
"248 136 OFFCURVE",
"248 116 CURVE SMOOTH",
"248 96 OFFCURVE",
"236 79 OFFCURVE",
"219 71 CURVE",
"236 63 OFFCURVE",
"248 47 OFFCURVE",
"248 27 CURVE SMOOTH",
"248 0 OFFCURVE",
"226 -22 OFFCURVE",
"199 -22 CURVE SMOOTH",
"172 -22 OFFCURVE",
"150 0 OFFCURVE",
"150 27 CURVE SMOOTH",
"150 47 OFFCURVE",
"162 63 OFFCURVE",
"179 71 CURVE",
"162 79 OFFCURVE",
"150 96 OFFCURVE",
"150 116 CURVE SMOOTH",
"150 136 OFFCURVE",
"162 152 OFFCURVE",
"179 160 CURVE",
"162 168 OFFCURVE",
"150 184 OFFCURVE",
"150 204 CURVE SMOOTH",
"150 224 OFFCURVE",
"162 241 OFFCURVE",
"179 249 CURVE",
"162 257 OFFCURVE",
"150 273 OFFCURVE",
"150 293 CURVE SMOOTH",
"150 310 OFFCURVE",
"159 326 OFFCURVE",
"173 335 CURVE",
"169 334 OFFCURVE",
"165 333 OFFCURVE",
"161 333 CURVE SMOOTH",
"146 333 OFFCURVE",
"133 340 OFFCURVE",
"124 351 CURVE",
"115 340 OFFCURVE",
"101 333 OFFCURVE",
"86 333 CURVE SMOOTH",
"82 333 OFFCURVE",
"79 334 OFFCURVE",
"75 335 CURVE",
"89 326 OFFCURVE",
"98 310 OFFCURVE",
"98 293 CURVE SMOOTH",
"98 273 OFFCURVE",
"86 257 OFFCURVE",
"69 249 CURVE",
"86 241 OFFCURVE",
"98 224 OFFCURVE",
"98 204 CURVE SMOOTH",
"98 184 OFFCURVE",
"86 168 OFFCURVE",
"69 160 CURVE",
"86 152 OFFCURVE",
"98 136 OFFCURVE",
"98 116 CURVE SMOOTH",
"98 96 OFFCURVE",
"86 79 OFFCURVE",
"69 71 CURVE",
"86 63 OFFCURVE",
"98 47 OFFCURVE",
"98 27 CURVE SMOOTH",
"98 0 OFFCURVE",
"76 -22 OFFCURVE",
"49 -22 CURVE SMOOTH",
"22 -22 OFFCURVE",
"0 0 OFFCURVE",
"0 27 CURVE SMOOTH",
"0 47 OFFCURVE",
"12 63 OFFCURVE",
"29 71 CURVE",
"12 79 OFFCURVE",
"0 96 OFFCURVE",
"0 116 CURVE SMOOTH",
"0 136 OFFCURVE",
"12 152 OFFCURVE",
"29 160 CURVE",
"12 168 OFFCURVE",
"0 184 OFFCURVE",
"0 204 CURVE SMOOTH",
"0 224 OFFCURVE",
"12 241 OFFCURVE",
"29 249 CURVE",
"12 257 OFFCURVE",
"0 273 OFFCURVE",
"0 293 CURVE SMOOTH",
"0 320 OFFCURVE",
"22 342 OFFCURVE",
"49 342 CURVE SMOOTH",
"53 342 OFFCURVE",
"56 342 OFFCURVE",
"60 341 CURVE",
"46 350 OFFCURVE",
"37 365 OFFCURVE",
"37 382 CURVE SMOOTH",
"37 409 OFFCURVE",
"59 431 OFFCURVE",
"86 431 CURVE SMOOTH",
"101 431 OFFCURVE",
"115 425 OFFCURVE",
"124 414 CURVE",
"133 425 OFFCURVE",
"146 431 OFFCURVE",
"161 431 CURVE SMOOTH",
"176 431 OFFCURVE",
"190 425 OFFCURVE",
"199 414 CURVE",
"208 425 OFFCURVE",
"221 431 OFFCURVE",
"236 431 CURVE SMOOTH",
"251 431 OFFCURVE",
"265 425 OFFCURVE",
"274 414 CURVE",
"283 425 OFFCURVE",
"296 431 OFFCURVE",
"311 431 CURVE SMOOTH",
"338 431 OFFCURVE",
"360 409 OFFCURVE"
);
},
{
closed = 1;
nodes = (
"199 351 CURVE",
"196 347 OFFCURVE",
"191 344 OFFCURVE",
"187 341 CURVE",
"191 342 OFFCURVE",
"195 342 OFFCURVE",
"199 342 CURVE SMOOTH",
"203 342 OFFCURVE",
"206 342 OFFCURVE",
"210 341 CURVE",
"206 344 OFFCURVE",
"202 347 OFFCURVE"
);
}
);
width = 450;
}
);
unicode = 006D;
userData = {
com.fontlab.hintData = {
hhints = (
{
position = -22;
width = 21;
},
{
position = -22;
width = 21;
},
{
position = 333;
width = 98;
}
);
vhints = (
{
position = 0;
width = 98;
},
{
position = 150;
width = 98;
},
{
position = 300;
width = 98;
}
);
};
};
},
{
glyphname = n;
lastChange = "2017-08-06 04:45:23 +0000";
layers = (
{
layerId = "50D14539-243D-4DFB-80D4-A58473C3BD4B";
paths = (
{
closed = 1;
nodes = (
"323 382 CURVE SMOOTH",
"323 365 OFFCURVE",
"314 350 OFFCURVE",
"300 341 CURVE",
"304 342 OFFCURVE",
"307 342 OFFCURVE",
"311 342 CURVE SMOOTH",
"338 342 OFFCURVE",
"360 320 OFFCURVE",
"360 293 CURVE SMOOTH",
"360 273 OFFCURVE",
"349 257 OFFCURVE",
"332 249 CURVE",
"349 241 OFFCURVE",
"360 224 OFFCURVE",
"360 204 CURVE SMOOTH",
"360 184 OFFCURVE",
"349 168 OFFCURVE",
"332 160 CURVE",
"349 152 OFFCURVE",
"360 136 OFFCURVE",
"360 116 CURVE SMOOTH",
"360 96 OFFCURVE",
"349 79 OFFCURVE",
"332 71 CURVE",
"349 63 OFFCURVE",
"360 47 OFFCURVE",
"360 27 CURVE SMOOTH",
"360 0 OFFCURVE",
"338 -22 OFFCURVE",
"311 -22 CURVE SMOOTH",
"284 -22 OFFCURVE",
"262 0 OFFCURVE",
"262 27 CURVE SMOOTH",
"262 47 OFFCURVE",
"274 63 OFFCURVE",
"291 71 CURVE",
"274 79 OFFCURVE",
"262 96 OFFCURVE",
"262 116 CURVE SMOOTH",
"262 136 OFFCURVE",
"274 152 OFFCURVE",
"291 160 CURVE",
"274 168 OFFCURVE",
"262 184 OFFCURVE",
"262 204 CURVE SMOOTH",
"262 224 OFFCURVE",
"274 241 OFFCURVE",
"291 249 CURVE",
"274 257 OFFCURVE",
"262 273 OFFCURVE",
"262 293 CURVE SMOOTH",
"262 310 OFFCURVE",
"271 326 OFFCURVE",
"285 335 CURVE",
"281 334 OFFCURVE",
"278 333 OFFCURVE",
"274 333 CURVE SMOOTH",
"259 333 OFFCURVE",
"245 340 OFFCURVE",
"236 351 CURVE",
"227 340 OFFCURVE",
"214 333 OFFCURVE",
"199 333 CURVE SMOOTH",
"184 333 OFFCURVE",
"170 340 OFFCURVE",
"161 351 CURVE",
"152 340 OFFCURVE",
"139 333 OFFCURVE",
"124 333 CURVE SMOOTH",
"109 333 OFFCURVE",
"95 340 OFFCURVE",
"86 351 CURVE",
"81 345 OFFCURVE",
"76 341 OFFCURVE",
"69 338 CURVE",
"86 330 OFFCURVE",
"98 313 OFFCURVE",
"98 293 CURVE SMOOTH",
"98 273 OFFCURVE",
"86 257 OFFCURVE",
"69 249 CURVE",
"86 241 OFFCURVE",
"98 224 OFFCURVE",
"98 204 CURVE SMOOTH",
"98 184 OFFCURVE",
"86 168 OFFCURVE",
"69 160 CURVE",
"86 152 OFFCURVE",
"98 136 OFFCURVE",
"98 116 CURVE SMOOTH",
"98 96 OFFCURVE",
"86 79 OFFCURVE",
"69 71 CURVE",
"86 63 OFFCURVE",
"98 47 OFFCURVE",
"98 27 CURVE SMOOTH",
"98 0 OFFCURVE",
"76 -22 OFFCURVE",
"49 -22 CURVE SMOOTH",
"22 -22 OFFCURVE",
"0 0 OFFCURVE",
"0 27 CURVE SMOOTH",
"0 47 OFFCURVE",
"12 63 OFFCURVE",
"29 71 CURVE",
"12 79 OFFCURVE",
"0 96 OFFCURVE",
"0 116 CURVE SMOOTH",
"0 136 OFFCURVE",
"12 152 OFFCURVE",
"29 160 CURVE",
"12 168 OFFCURVE",
"0 184 OFFCURVE",
"0 204 CURVE SMOOTH",
"0 224 OFFCURVE",
"12 241 OFFCURVE",
"29 249 CURVE",
"12 257 OFFCURVE",
"0 273 OFFCURVE",
"0 293 CURVE SMOOTH",
"0 313 OFFCURVE",
"12 330 OFFCURVE",
"29 338 CURVE",
"12 346 OFFCURVE",
"0 362 OFFCURVE",
"0 382 CURVE SMOOTH",
"0 409 OFFCURVE",
"22 431 OFFCURVE",
"49 431 CURVE SMOOTH",
"64 431 OFFCURVE",
"77 425 OFFCURVE",
"86 414 CURVE",
"95 425 OFFCURVE",
"109 431 OFFCURVE",
"124 431 CURVE SMOOTH",
"139 431 OFFCURVE",
"152 425 OFFCURVE",
"161 414 CURVE",
"170 425 OFFCURVE",
"184 431 OFFCURVE",
"199 431 CURVE SMOOTH",
"214 431 OFFCURVE",
"227 425 OFFCURVE",
"236 414 CURVE",
"245 425 OFFCURVE",
"259 431 OFFCURVE",
"274 431 CURVE SMOOTH",
"301 431 OFFCURVE",
"323 409 OFFCURVE"
);
}
);
width = 450;
}
);
unicode = 006E;
userData = {
com.fontlab.hintData = {
hhints = (
{
position = -22;
width = 21;
},
{
position = -22;
width = 21;
},
{
position = 333;
width = 98;
}
);
vhints = (
{
position = 0;
width = 98;
},
{
position = 262;
width = 98;
}
);
};
};
},
{
glyphname = o;
lastChange = "2017-08-06 04:45:23 +0000";
layers = (
{
layerId = "50D14539-243D-4DFB-80D4-A58473C3BD4B";
paths = (
{
closed = 1;
nodes = (
"360 382 CURVE SMOOTH",
"360 365 OFFCURVE",
"351 350 OFFCURVE",
"337 341 CURVE",
"341 342 OFFCURVE",
"345 342 OFFCURVE",
"349 342 CURVE SMOOTH",
"376 342 OFFCURVE",
"398 320 OFFCURVE",
"398 293 CURVE SMOOTH",
"398 273 OFFCURVE",
"386 257 OFFCURVE",
"369 249 CURVE",
"386 241 OFFCURVE",
"398 224 OFFCURVE",
"398 204 CURVE SMOOTH",
"398 184 OFFCURVE",
"386 168 OFFCURVE",
"369 160 CURVE",
"386 152 OFFCURVE",
"398 136 OFFCURVE",
"398 116 CURVE SMOOTH",
"398 89 OFFCURVE",
"376 67 OFFCURVE",
"349 67 CURVE SMOOTH",
"345 67 OFFCURVE",
"341 67 OFFCURVE",
"337 68 CURVE",
"351 59 OFFCURVE",
"360 44 OFFCURVE",
"360 27 CURVE SMOOTH",
"360 0 OFFCURVE",
"338 -22 OFFCURVE",
"311 -22 CURVE SMOOTH",
"296 -22 OFFCURVE",
"283 -16 OFFCURVE",
"274 -5 CURVE",
"265 -16 OFFCURVE",
"251 -22 OFFCURVE",
"236 -22 CURVE SMOOTH",
"221 -22 OFFCURVE",
"208 -16 OFFCURVE",
"199 -5 CURVE",
"190 -16 OFFCURVE",
"176 -22 OFFCURVE",
"161 -22 CURVE SMOOTH",
"146 -22 OFFCURVE",
"133 -16 OFFCURVE",
"124 -5 CURVE",
"115 -16 OFFCURVE",
"101 -22 OFFCURVE",
"86 -22 CURVE SMOOTH",
"59 -22 OFFCURVE",
"37 0 OFFCURVE",
"37 27 CURVE SMOOTH",
"37 44 OFFCURVE",
"46 59 OFFCURVE",
"60 68 CURVE",
"56 67 OFFCURVE",
"53 67 OFFCURVE",
"49 67 CURVE SMOOTH",
"22 67 OFFCURVE",
"0 89 OFFCURVE",
"0 116 CURVE SMOOTH",
"0 136 OFFCURVE",
"12 152 OFFCURVE",
"29 160 CURVE",
"12 168 OFFCURVE",
"0 184 OFFCURVE",
"0 204 CURVE SMOOTH",
"0 224 OFFCURVE",
"12 241 OFFCURVE",
"29 249 CURVE",
"12 257 OFFCURVE",
"0 273 OFFCURVE",
"0 293 CURVE SMOOTH",
"0 320 OFFCURVE",
"22 342 OFFCURVE",
"49 342 CURVE SMOOTH",
"53 342 OFFCURVE",
"56 342 OFFCURVE",
"60 341 CURVE",
"46 350 OFFCURVE",
"37 365 OFFCURVE",
"37 382 CURVE SMOOTH",
"37 409 OFFCURVE",
"59 431 OFFCURVE",
"86 431 CURVE SMOOTH",
"101 431 OFFCURVE",
"115 425 OFFCURVE",
"124 414 CURVE",
"133 425 OFFCURVE",
"146 431 OFFCURVE",
"161 431 CURVE SMOOTH",
"176 431 OFFCURVE",
"190 425 OFFCURVE",
"199 414 CURVE",
"208 425 OFFCURVE",
"221 431 OFFCURVE",
"236 431 CURVE SMOOTH",
"251 431 OFFCURVE",
"265 425 OFFCURVE",
"274 414 CURVE",
"283 425 OFFCURVE",
"296 431 OFFCURVE",
"311 431 CURVE SMOOTH",
"338 431 OFFCURVE",
"360 409 OFFCURVE"
);
},
{
closed = 1;
nodes = (
"124 351 CURVE",
"115 340 OFFCURVE",
"101 333 OFFCURVE",
"86 333 CURVE SMOOTH",
"82 333 OFFCURVE",
"79 334 OFFCURVE",
"75 335 CURVE",
"89 326 OFFCURVE",
"98 310 OFFCURVE",
"98 293 CURVE SMOOTH",
"98 273 OFFCURVE",
"86 257 OFFCURVE",
"69 249 CURVE",
"86 241 OFFCURVE",
"98 224 OFFCURVE",
"98 204 CURVE SMOOTH",
"98 184 OFFCURVE",
"86 168 OFFCURVE",
"69 160 CURVE",
"86 152 OFFCURVE",
"98 136 OFFCURVE",
"98 116 CURVE SMOOTH",
"98 99 OFFCURVE",
"89 83 OFFCURVE",
"75 74 CURVE",
"79 75 OFFCURVE",
"82 76 OFFCURVE",
"86 76 CURVE SMOOTH",
"101 76 OFFCURVE",
"115 69 OFFCURVE",
"124 58 CURVE",
"133 69 OFFCURVE",
"146 76 OFFCURVE",
"161 76 CURVE SMOOTH",
"176 76 OFFCURVE",
"190 69 OFFCURVE",
"199 58 CURVE",
"208 69 OFFCURVE",
"221 76 OFFCURVE",
"236 76 CURVE SMOOTH",
"251 76 OFFCURVE",
"265 69 OFFCURVE",
"274 58 CURVE",
"283 69 OFFCURVE",
"296 76 OFFCURVE",
"311 76 CURVE SMOOTH",
"315 76 OFFCURVE",
"319 75 OFFCURVE",
"323 74 CURVE",
"309 83 OFFCURVE",
"300 99 OFFCURVE",
"300 116 CURVE SMOOTH",
"300 136 OFFCURVE",
"312 152 OFFCURVE",
"329 160 CURVE",
"312 168 OFFCURVE",
"300 184 OFFCURVE",
"300 204 CURVE SMOOTH",
"300 224 OFFCURVE",
"312 241 OFFCURVE",
"329 249 CURVE",
"312 257 OFFCURVE",
"300 273 OFFCURVE",
"300 293 CURVE SMOOTH",
"300 310 OFFCURVE",
"309 326 OFFCURVE",
"323 335 CURVE",
"319 334 OFFCURVE",
"315 333 OFFCURVE",
"311 333 CURVE SMOOTH",
"296 333 OFFCURVE",
"283 340 OFFCURVE",
"274 351 CURVE",
"265 340 OFFCURVE",
"251 333 OFFCURVE",
"236 333 CURVE SMOOTH",
"221 333 OFFCURVE",
"208 340 OFFCURVE",
"199 351 CURVE",
"190 340 OFFCURVE",
"176 333 OFFCURVE",
"161 333 CURVE SMOOTH",
"146 333 OFFCURVE",
"133 340 OFFCURVE"
);
}
);
width = 450;
}
);
unicode = 006F;
userData = {
com.fontlab.hintData = {
hhints = (
{
position = -22;
width = 98;
},
{
position = 333;
width = 98;
}
);
vhints = (
{
position = 0;
width = 98;
},
{
position = 300;
width = 98;
}
);
};
};
},
{
glyphname = p;
lastChange = "2017-08-06 04:45:23 +0000";
layers = (
{
layerId = "50D14539-243D-4DFB-80D4-A58473C3BD4B";
paths = (
{
closed = 1;
nodes = (
"323 382 CURVE SMOOTH",
"323 365 OFFCURVE",
"314 350 OFFCURVE",
"300 341 CURVE",
"304 342 OFFCURVE",
"307 342 OFFCURVE",
"311 342 CURVE SMOOTH",
"338 342 OFFCURVE",
"360 320 OFFCURVE",
"360 293 CURVE SMOOTH",
"360 273 OFFCURVE",
"349 257 OFFCURVE",
"332 249 CURVE",
"349 241 OFFCURVE",
"360 224 OFFCURVE",
"360 204 CURVE SMOOTH",
"360 184 OFFCURVE",
"349 168 OFFCURVE",
"332 160 CURVE",
"349 152 OFFCURVE",
"360 136 OFFCURVE",
"360 116 CURVE SMOOTH",
"360 89 OFFCURVE",
"338 67 OFFCURVE",
"311 67 CURVE SMOOTH",
"307 67 OFFCURVE",
"304 67 OFFCURVE",
"300 68 CURVE",
"314 59 OFFCURVE",
"323 44 OFFCURVE",
"323 27 CURVE SMOOTH",
"323 0 OFFCURVE",
"301 -22 OFFCURVE",
"274 -22 CURVE SMOOTH",
"259 -22 OFFCURVE",
"245 -16 OFFCURVE",
"236 -5 CURVE",
"227 -16 OFFCURVE",
"214 -22 OFFCURVE",
"199 -22 CURVE SMOOTH",
"184 -22 OFFCURVE",
"170 -16 OFFCURVE",
"161 -5 CURVE",
"152 -16 OFFCURVE",
"139 -22 OFFCURVE",
"124 -22 CURVE SMOOTH",
"109 -22 OFFCURVE",
"95 -16 OFFCURVE",
"86 -5 CURVE",
"81 -11 OFFCURVE",
"76 -15 OFFCURVE",
"69 -18 CURVE",
"86 -26 OFFCURVE",
"98 -42 OFFCURVE",
"98 -62 CURVE SMOOTH",
"98 -82 OFFCURVE",
"86 -99 OFFCURVE",
"69 -107 CURVE",
"86 -115 OFFCURVE",
"98 -131 OFFCURVE",
"98 -151 CURVE SMOOTH",
"98 -178 OFFCURVE",
"76 -200 OFFCURVE",
"49 -200 CURVE SMOOTH",
"22 -200 OFFCURVE",
"0 -178 OFFCURVE",
"0 -151 CURVE SMOOTH",
"0 -131 OFFCURVE",
"12 -115 OFFCURVE",
"29 -107 CURVE",
"12 -99 OFFCURVE",
"0 -82 OFFCURVE",
"0 -62 CURVE SMOOTH",
"0 -42 OFFCURVE",
"12 -26 OFFCURVE",
"29 -18 CURVE",
"12 -10 OFFCURVE",
"0 7 OFFCURVE",
"0 27 CURVE SMOOTH",
"0 47 OFFCURVE",
"12 63 OFFCURVE",
"29 71 CURVE",
"12 79 OFFCURVE",
"0 96 OFFCURVE",
"0 116 CURVE SMOOTH",
"0 136 OFFCURVE",
"12 152 OFFCURVE",
"29 160 CURVE",
"12 168 OFFCURVE",
"0 184 OFFCURVE",
"0 204 CURVE SMOOTH",
"0 224 OFFCURVE",
"12 241 OFFCURVE",
"29 249 CURVE",
"12 257 OFFCURVE",
"0 273 OFFCURVE",
"0 293 CURVE SMOOTH",
"0 313 OFFCURVE",
"12 330 OFFCURVE",
"29 338 CURVE",
"12 346 OFFCURVE",
"0 362 OFFCURVE",
"0 382 CURVE SMOOTH",
"0 409 OFFCURVE",
"22 431 OFFCURVE",
"49 431 CURVE SMOOTH",
"64 431 OFFCURVE",
"77 425 OFFCURVE",
"86 414 CURVE",
"95 425 OFFCURVE",
"109 431 OFFCURVE",
"124 431 CURVE SMOOTH",
"139 431 OFFCURVE",
"152 425 OFFCURVE",
"161 414 CURVE",
"170 425 OFFCURVE",
"184 431 OFFCURVE",
"199 431 CURVE SMOOTH",
"214 431 OFFCURVE",
"227 425 OFFCURVE",
"236 414 CURVE",
"245 425 OFFCURVE",
"259 431 OFFCURVE",
"274 431 CURVE SMOOTH",
"301 431 OFFCURVE",
"323 409 OFFCURVE"
);
},
{
closed = 1;
nodes = (
"86 351 CURVE",
"81 345 OFFCURVE",
"76 341 OFFCURVE",
"69 338 CURVE",
"86 330 OFFCURVE",
"98 313 OFFCURVE",
"98 293 CURVE SMOOTH",
"98 273 OFFCURVE",
"86 257 OFFCURVE",
"69 249 CURVE",
"86 241 OFFCURVE",
"98 224 OFFCURVE",
"98 204 CURVE SMOOTH",
"98 184 OFFCURVE",
"86 168 OFFCURVE",
"69 160 CURVE",
"86 152 OFFCURVE",
"98 136 OFFCURVE",
"98 116 CURVE SMOOTH",
"98 96 OFFCURVE",
"86 79 OFFCURVE",
"69 71 CURVE",
"76 68 OFFCURVE",
"81 64 OFFCURVE",
"86 58 CURVE",
"95 69 OFFCURVE",
"109 76 OFFCURVE",
"124 76 CURVE SMOOTH",
"139 76 OFFCURVE",
"152 69 OFFCURVE",
"161 58 CURVE",
"170 69 OFFCURVE",
"184 76 OFFCURVE",
"199 76 CURVE SMOOTH",
"214 76 OFFCURVE",
"227 69 OFFCURVE",
"236 58 CURVE",
"245 69 OFFCURVE",
"259 76 OFFCURVE",
"274 76 CURVE SMOOTH",
"278 76 OFFCURVE",
"281 75 OFFCURVE",
"285 74 CURVE",
"271 83 OFFCURVE",
"262 99 OFFCURVE",
"262 116 CURVE SMOOTH",
"262 136 OFFCURVE",
"274 152 OFFCURVE",
"291 160 CURVE",
"274 168 OFFCURVE",
"262 184 OFFCURVE",
"262 204 CURVE SMOOTH",
"262 224 OFFCURVE",
"274 241 OFFCURVE",
"291 249 CURVE",
"274 257 OFFCURVE",
"262 273 OFFCURVE",
"262 293 CURVE SMOOTH",
"262 310 OFFCURVE",
"271 326 OFFCURVE",
"285 335 CURVE",
"281 334 OFFCURVE",
"278 333 OFFCURVE",
"274 333 CURVE SMOOTH",
"259 333 OFFCURVE",
"245 340 OFFCURVE",
"236 351 CURVE",
"227 340 OFFCURVE",
"214 333 OFFCURVE",
"199 333 CURVE SMOOTH",
"184 333 OFFCURVE",
"170 340 OFFCURVE",
"161 351 CURVE",
"152 340 OFFCURVE",
"139 333 OFFCURVE",
"124 333 CURVE SMOOTH",
"109 333 OFFCURVE",
"95 340 OFFCURVE"
);
}
);
width = 450;
}
);
unicode = 0070;
userData = {
com.fontlab.hintData = {
hhints = (
{
position = -22;
width = 98;
},
{
position = 333;
width = 98;
}
);
vhints = (
{
position = 0;
width = 98;
},
{
position = 262;
width = 98;
}
);
};
};
},
{
glyphname = q;
lastChange = "2017-08-06 04:45:23 +0000";
layers = (
{
layerId = "50D14539-243D-4DFB-80D4-A58473C3BD4B";
paths = (
{
closed = 1;
nodes = (
"398 382 CURVE SMOOTH",
"398 362 OFFCURVE",
"386 346 OFFCURVE",
"369 338 CURVE",
"386 330 OFFCURVE",
"398 313 OFFCURVE",
"398 293 CURVE SMOOTH",
"398 273 OFFCURVE",
"386 257 OFFCURVE",
"369 249 CURVE",
"386 241 OFFCURVE",
"398 224 OFFCURVE",
"398 204 CURVE SMOOTH",
"398 184 OFFCURVE",
"386 168 OFFCURVE",
"369 160 CURVE",
"386 152 OFFCURVE",
"398 136 OFFCURVE",
"398 116 CURVE SMOOTH",
"398 96 OFFCURVE",
"386 79 OFFCURVE",
"369 71 CURVE",
"386 63 OFFCURVE",
"398 47 OFFCURVE",
"398 27 CURVE SMOOTH",
"398 7 OFFCURVE",
"386 -10 OFFCURVE",
"369 -18 CURVE",
"386 -26 OFFCURVE",
"398 -42 OFFCURVE",
"398 -62 CURVE SMOOTH",
"398 -82 OFFCURVE",
"386 -99 OFFCURVE",
"369 -107 CURVE",
"386 -115 OFFCURVE",
"398 -131 OFFCURVE",
"398 -151 CURVE SMOOTH",
"398 -178 OFFCURVE",
"376 -200 OFFCURVE",
"349 -200 CURVE SMOOTH",
"322 -200 OFFCURVE",
"300 -178 OFFCURVE",
"300 -151 CURVE SMOOTH",
"300 -131 OFFCURVE",
"312 -115 OFFCURVE",
"329 -107 CURVE",
"312 -99 OFFCURVE",
"300 -82 OFFCURVE",
"300 -62 CURVE SMOOTH",
"300 -42 OFFCURVE",
"312 -26 OFFCURVE",
"329 -18 CURVE",
"322 -15 OFFCURVE",
"316 -11 OFFCURVE",
"311 -5 CURVE",
"302 -16 OFFCURVE",
"289 -22 OFFCURVE",
"274 -22 CURVE SMOOTH",
"259 -22 OFFCURVE",
"245 -16 OFFCURVE",
"236 -5 CURVE",
"227 -16 OFFCURVE",
"214 -22 OFFCURVE",
"199 -22 CURVE SMOOTH",
"184 -22 OFFCURVE",
"170 -16 OFFCURVE",
"161 -5 CURVE",
"152 -16 OFFCURVE",
"139 -22 OFFCURVE",
"124 -22 CURVE SMOOTH",
"97 -22 OFFCURVE",
"75 0 OFFCURVE",
"75 27 CURVE SMOOTH",
"75 44 OFFCURVE",
"84 59 OFFCURVE",
"98 68 CURVE",
"94 67 OFFCURVE",
"90 67 OFFCURVE",
"86 67 CURVE SMOOTH",
"59 67 OFFCURVE",
"37 89 OFFCURVE",
"37 116 CURVE SMOOTH",
"37 136 OFFCURVE",
"49 152 OFFCURVE",
"66 160 CURVE",
"49 168 OFFCURVE",
"37 184 OFFCURVE",
"37 204 CURVE SMOOTH",
"37 224 OFFCURVE",
"49 241 OFFCURVE",
"66 249 CURVE",
"49 257 OFFCURVE",
"37 273 OFFCURVE",
"37 293 CURVE SMOOTH",
"37 320 OFFCURVE",
"59 342 OFFCURVE",
"86 342 CURVE SMOOTH",
"90 342 OFFCURVE",
"94 342 OFFCURVE",
"98 341 CURVE",
"84 350 OFFCURVE",
"75 365 OFFCURVE",
"75 382 CURVE SMOOTH",
"75 409 OFFCURVE",
"97 431 OFFCURVE",
"124 431 CURVE SMOOTH",
"139 431 OFFCURVE",
"152 425 OFFCURVE",
"161 414 CURVE",
"170 425 OFFCURVE",
"184 431 OFFCURVE",
"199 431 CURVE SMOOTH",
"214 431 OFFCURVE",
"227 425 OFFCURVE",
"236 414 CURVE",
"245 425 OFFCURVE",
"259 431 OFFCURVE",
"274 431 CURVE SMOOTH",
"289 431 OFFCURVE",
"302 425 OFFCURVE",
"311 414 CURVE",
"320 425 OFFCURVE",
"334 431 OFFCURVE",
"349 431 CURVE SMOOTH",
"376 431 OFFCURVE",
"398 409 OFFCURVE"
);
},
{
closed = 1;
nodes = (
"161 351 CURVE",
"152 340 OFFCURVE",
"139 333 OFFCURVE",
"124 333 CURVE SMOOTH",
"120 333 OFFCURVE",
"116 334 OFFCURVE",
"112 335 CURVE",
"126 326 OFFCURVE",
"135 310 OFFCURVE",
"135 293 CURVE SMOOTH",
"135 273 OFFCURVE",
"124 257 OFFCURVE",
"107 249 CURVE",
"124 241 OFFCURVE",
"135 224 OFFCURVE",
"135 204 CURVE SMOOTH",
"135 184 OFFCURVE",
"124 168 OFFCURVE",
"107 160 CURVE",
"124 152 OFFCURVE",
"135 136 OFFCURVE",
"135 116 CURVE SMOOTH",
"135 99 OFFCURVE",
"126 83 OFFCURVE",
"112 74 CURVE",
"116 75 OFFCURVE",
"120 76 OFFCURVE",
"124 76 CURVE SMOOTH",
"139 76 OFFCURVE",
"152 69 OFFCURVE",
"161 58 CURVE",
"170 69 OFFCURVE",
"184 76 OFFCURVE",
"199 76 CURVE SMOOTH",
"214 76 OFFCURVE",
"227 69 OFFCURVE",
"236 58 CURVE",
"245 69 OFFCURVE",
"259 76 OFFCURVE",
"274 76 CURVE SMOOTH",
"289 76 OFFCURVE",
"302 69 OFFCURVE",
"311 58 CURVE",
"316 64 OFFCURVE",
"322 68 OFFCURVE",
"329 71 CURVE",
"312 79 OFFCURVE",
"300 96 OFFCURVE",
"300 116 CURVE SMOOTH",
"300 136 OFFCURVE",
"312 152 OFFCURVE",
"329 160 CURVE",
"312 168 OFFCURVE",
"300 184 OFFCURVE",
"300 204 CURVE SMOOTH",
"300 224 OFFCURVE",
"312 241 OFFCURVE",
"329 249 CURVE",
"312 257 OFFCURVE",
"300 273 OFFCURVE",
"300 293 CURVE SMOOTH",
"300 313 OFFCURVE",
"312 330 OFFCURVE",
"329 338 CURVE",
"322 341 OFFCURVE",
"316 345 OFFCURVE",
"311 351 CURVE",
"302 340 OFFCURVE",
"289 333 OFFCURVE",
"274 333 CURVE SMOOTH",
"259 333 OFFCURVE",
"245 340 OFFCURVE",
"236 351 CURVE",
"227 340 OFFCURVE",
"214 333 OFFCURVE",
"199 333 CURVE SMOOTH",
"184 333 OFFCURVE",
"170 340 OFFCURVE"
);
}
);
width = 450;
}
);
unicode = 0071;
userData = {
com.fontlab.hintData = {
hhints = (
{
position = -22;
width = 98;
},
{
position = 333;
width = 98;
}
);
vhints = (
{
position = 37;
width = 98;
},
{
position = 300;
width = 98;
}
);
};
};
},
{
glyphname = r;
lastChange = "2017-08-06 04:45:23 +0000";
layers = (
{
layerId = "50D14539-243D-4DFB-80D4-A58473C3BD4B";
paths = (
{
closed = 1;
nodes = (
"98 382 CURVE SMOOTH",
"98 362 OFFCURVE",
"86 346 OFFCURVE",
"69 338 CURVE",
"76 335 OFFCURVE",
"81 331 OFFCURVE",
"86 325 CURVE",
"95 336 OFFCURVE",
"109 342 OFFCURVE",
"124 342 CURVE SMOOTH",
"128 342 OFFCURVE",
"131 342 OFFCURVE",
"135 341 CURVE",
"121 350 OFFCURVE",
"112 365 OFFCURVE",
"112 382 CURVE SMOOTH",
"112 409 OFFCURVE",
"134 431 OFFCURVE",
"161 431 CURVE SMOOTH",
"176 431 OFFCURVE",
"190 425 OFFCURVE",
"199 414 CURVE",
"208 425 OFFCURVE",
"221 431 OFFCURVE",
"236 431 CURVE SMOOTH",
"251 431 OFFCURVE",
"265 425 OFFCURVE",
"274 414 CURVE",
"283 425 OFFCURVE",
"296 431 OFFCURVE",
"311 431 CURVE SMOOTH",
"338 431 OFFCURVE",
"360 409 OFFCURVE",
"360 382 CURVE SMOOTH",
"360 355 OFFCURVE",
"338 333 OFFCURVE",
"311 333 CURVE SMOOTH",
"296 333 OFFCURVE",
"283 340 OFFCURVE",
"274 351 CURVE",
"265 340 OFFCURVE",
"251 333 OFFCURVE",
"236 333 CURVE SMOOTH",
"221 333 OFFCURVE",
"208 340 OFFCURVE",
"199 351 CURVE",
"190 340 OFFCURVE",
"176 333 OFFCURVE",
"161 333 CURVE SMOOTH",
"157 333 OFFCURVE",
"154 334 OFFCURVE",
"150 335 CURVE",
"164 326 OFFCURVE",
"173 310 OFFCURVE",
"173 293 CURVE SMOOTH",
"173 266 OFFCURVE",
"151 244 OFFCURVE",
"124 244 CURVE SMOOTH",
"109 244 OFFCURVE",
"95 251 OFFCURVE",
"86 262 CURVE",
"81 256 OFFCURVE",
"76 252 OFFCURVE",
"69 249 CURVE",
"86 241 OFFCURVE",
"98 224 OFFCURVE",
"98 204 CURVE SMOOTH",
"98 184 OFFCURVE",
"86 168 OFFCURVE",
"69 160 CURVE",
"86 152 OFFCURVE",
"98 136 OFFCURVE",
"98 116 CURVE SMOOTH",
"98 96 OFFCURVE",
"86 79 OFFCURVE",
"69 71 CURVE",
"86 63 OFFCURVE",
"98 47 OFFCURVE",
"98 27 CURVE SMOOTH",
"98 0 OFFCURVE",
"76 -22 OFFCURVE",
"49 -22 CURVE SMOOTH",
"22 -22 OFFCURVE",
"0 0 OFFCURVE",
"0 27 CURVE SMOOTH",
"0 47 OFFCURVE",
"12 63 OFFCURVE",
"29 71 CURVE",
"12 79 OFFCURVE",
"0 96 OFFCURVE",
"0 116 CURVE SMOOTH",
"0 136 OFFCURVE",
"12 152 OFFCURVE",
"29 160 CURVE",
"12 168 OFFCURVE",
"0 184 OFFCURVE",
"0 204 CURVE SMOOTH",
"0 224 OFFCURVE",
"12 241 OFFCURVE",
"29 249 CURVE",
"12 257 OFFCURVE",
"0 273 OFFCURVE",
"0 293 CURVE SMOOTH",
"0 313 OFFCURVE",
"12 330 OFFCURVE",
"29 338 CURVE",
"12 346 OFFCURVE",
"0 362 OFFCURVE",
"0 382 CURVE SMOOTH",
"0 409 OFFCURVE",
"22 431 OFFCURVE",
"49 431 CURVE SMOOTH",
"76 431 OFFCURVE",
"98 409 OFFCURVE"
);
}
);
width = 450;
}
);
unicode = 0072;
userData = {
com.fontlab.hintData = {
hhints = (
{
position = -22;
width = 21;
},
{
position = -22;
width = 21;
},
{
position = 244;
width = 98;
},
{
position = 333;
width = 98;
}
);
vhints = (
{
position = 0;
width = 98;
}
);
};
};
},
{
glyphname = s;
lastChange = "2017-08-06 04:45:23 +0000";
layers = (
{
layerId = "50D14539-243D-4DFB-80D4-A58473C3BD4B";
paths = (
{
closed = 1;
nodes = (
"360 382 CURVE SMOOTH",
"360 355 OFFCURVE",
"338 333 OFFCURVE",
"311 333 CURVE SMOOTH",
"296 333 OFFCURVE",
"283 340 OFFCURVE",
"274 351 CURVE",
"265 340 OFFCURVE",
"251 333 OFFCURVE",
"236 333 CURVE SMOOTH",
"221 333 OFFCURVE",
"208 340 OFFCURVE",
"199 351 CURVE",
"190 340 OFFCURVE",
"176 333 OFFCURVE",
"161 333 CURVE SMOOTH",
"146 333 OFFCURVE",
"133 340 OFFCURVE",
"124 351 CURVE",
"115 340 OFFCURVE",
"101 333 OFFCURVE",
"86 333 CURVE SMOOTH",
"82 333 OFFCURVE",
"79 334 OFFCURVE",
"75 335 CURVE",
"89 326 OFFCURVE",
"98 310 OFFCURVE",
"98 293 CURVE SMOOTH",
"98 276 OFFCURVE",
"89 261 OFFCURVE",
"75 252 CURVE",
"79 253 OFFCURVE",
"82 253 OFFCURVE",
"86 253 CURVE SMOOTH",
"101 253 OFFCURVE",
"115 247 OFFCURVE",
"124 236 CURVE",
"133 247 OFFCURVE",
"146 253 OFFCURVE",
"161 253 CURVE SMOOTH",
"176 253 OFFCURVE",
"190 247 OFFCURVE",
"199 236 CURVE",
"208 247 OFFCURVE",
"221 253 OFFCURVE",
"236 253 CURVE SMOOTH",
"251 253 OFFCURVE",
"265 247 OFFCURVE",
"274 236 CURVE",
"283 247 OFFCURVE",
"296 253 OFFCURVE",
"311 253 CURVE SMOOTH",
"338 253 OFFCURVE",
"360 231 OFFCURVE",
"360 204 CURVE SMOOTH",
"360 187 OFFCURVE",
"351 172 OFFCURVE",
"337 163 CURVE",
"341 164 OFFCURVE",
"345 164 OFFCURVE",
"349 164 CURVE SMOOTH",
"376 164 OFFCURVE",
"398 143 OFFCURVE",
"398 116 CURVE SMOOTH",
"398 89 OFFCURVE",
"376 67 OFFCURVE",
"349 67 CURVE SMOOTH",
"345 67 OFFCURVE",
"341 67 OFFCURVE",
"337 68 CURVE",
"351 59 OFFCURVE",
"360 44 OFFCURVE",
"360 27 CURVE SMOOTH",
"360 0 OFFCURVE",
"338 -22 OFFCURVE",
"311 -22 CURVE SMOOTH",
"296 -22 OFFCURVE",
"283 -16 OFFCURVE",
"274 -5 CURVE",
"265 -16 OFFCURVE",
"251 -22 OFFCURVE",
"236 -22 CURVE SMOOTH",
"221 -22 OFFCURVE",
"208 -16 OFFCURVE",
"199 -5 CURVE",
"190 -16 OFFCURVE",
"176 -22 OFFCURVE",
"161 -22 CURVE SMOOTH",
"146 -22 OFFCURVE",
"133 -16 OFFCURVE",
"124 -5 CURVE",
"115 -16 OFFCURVE",
"101 -22 OFFCURVE",
"86 -22 CURVE SMOOTH",
"59 -22 OFFCURVE",
"37 0 OFFCURVE",
"37 27 CURVE SMOOTH",
"37 54 OFFCURVE",
"59 76 OFFCURVE",
"86 76 CURVE SMOOTH",
"101 76 OFFCURVE",
"115 69 OFFCURVE",
"124 58 CURVE",
"133 69 OFFCURVE",
"146 76 OFFCURVE",
"161 76 CURVE SMOOTH",
"176 76 OFFCURVE",
"190 69 OFFCURVE",
"199 58 CURVE",
"208 69 OFFCURVE",
"221 76 OFFCURVE",
"236 76 CURVE SMOOTH",
"251 76 OFFCURVE",
"265 69 OFFCURVE",
"274 58 CURVE",
"283 69 OFFCURVE",
"296 76 OFFCURVE",
"311 76 CURVE SMOOTH",
"315 76 OFFCURVE",
"319 75 OFFCURVE",
"323 74 CURVE",
"309 83 OFFCURVE",
"300 99 OFFCURVE",
"300 116 CURVE SMOOTH",
"300 133 OFFCURVE",
"309 148 OFFCURVE",
"323 157 CURVE",
"319 156 OFFCURVE",
"315 156 OFFCURVE",
"311 156 CURVE SMOOTH",
"296 156 OFFCURVE",
"283 162 OFFCURVE",
"274 173 CURVE",
"265 162 OFFCURVE",
"251 156 OFFCURVE",
"236 156 CURVE SMOOTH",
"221 156 OFFCURVE",
"208 162 OFFCURVE",
"199 173 CURVE",
"190 162 OFFCURVE",
"176 156 OFFCURVE",
"161 156 CURVE SMOOTH",
"146 156 OFFCURVE",
"133 162 OFFCURVE",
"124 173 CURVE",
"115 162 OFFCURVE",
"101 156 OFFCURVE",
"86 156 CURVE SMOOTH",
"59 156 OFFCURVE",
"37 177 OFFCURVE",
"37 204 CURVE SMOOTH",
"37 221 OFFCURVE",
"46 237 OFFCURVE",
"60 246 CURVE",
"56 245 OFFCURVE",
"53 244 OFFCURVE",
"49 244 CURVE SMOOTH",
"22 244 OFFCURVE",
"0 266 OFFCURVE",
"0 293 CURVE SMOOTH",
"0 320 OFFCURVE",
"22 342 OFFCURVE",
"49 342 CURVE SMOOTH",
"53 342 OFFCURVE",
"56 342 OFFCURVE",
"60 341 CURVE",
"46 350 OFFCURVE",
"37 365 OFFCURVE",
"37 382 CURVE SMOOTH",
"37 409 OFFCURVE",
"59 431 OFFCURVE",
"86 431 CURVE SMOOTH",
"101 431 OFFCURVE",
"115 425 OFFCURVE",
"124 414 CURVE",
"133 425 OFFCURVE",
"146 431 OFFCURVE",
"161 431 CURVE SMOOTH",
"176 431 OFFCURVE",
"190 425 OFFCURVE",
"199 414 CURVE",
"208 425 OFFCURVE",
"221 431 OFFCURVE",
"236 431 CURVE SMOOTH",
"251 431 OFFCURVE",
"265 425 OFFCURVE",
"274 414 CURVE",
"283 425 OFFCURVE",
"296 431 OFFCURVE",
"311 431 CURVE SMOOTH",
"338 431 OFFCURVE",
"360 409 OFFCURVE"
);
}
);
width = 450;
}
);
unicode = 0073;
userData = {
com.fontlab.hintData = {
hhints = (
{
position = -22;
width = 98;
},
{
position = 67;
width = 97;
},
{
position = 156;
width = 97;
},
{
position = 244;
width = 98;
},
{
position = 333;
width = 98;
}
);
vhints = (
{
position = 0;
width = 98;
},
{
position = 300;
width = 98;
}
);
};
};
},
